<svg width="32" height="32" viewBox="0 0 32 32" fill="none" xmlns="http://www.w3.org/2000/svg">
<path fill-rule="evenodd" clip-rule="evenodd" d="M6.66667 25.333V12.7733C6.66667 12.2948 6.92305 11.853 7.33848 11.6157L15.3477 7.03896C15.7526 6.80756 16.249 6.80457 16.6567 7.03107L20.6686 9.2599C20.7066 8.55752 21.2881 7.99967 22 7.99967C22.7364 7.99967 23.3333 8.59663 23.3333 9.33301V10.7995L24.686 11.6111C25.0876 11.8521 25.3333 12.2861 25.3333 12.7545V25.333H26.6667C27.403 25.333 28 25.93 28 26.6663C28 27.4027 27.403 27.9997 26.6667 27.9997H5.33333C4.59695 27.9997 4 27.4027 4 26.6663C4 25.93 4.59695 25.333 5.33333 25.333H6.66667ZM14.6667 25.333H17.3333V22.6662C17.3333 21.9298 16.7364 21.3329 16 21.3329C15.2636 21.3329 14.6667 21.9298 14.6667 22.6662V25.333ZM21.3333 18.6662C21.3333 19.4026 20.7364 19.9995 20 19.9995H18.6667C17.9303 19.9995 17.3333 19.4026 17.3333 18.6662C17.3333 17.9298 17.9303 17.3329 18.6667 17.3329H20C20.7364 17.3329 21.3333 17.9298 21.3333 18.6662ZM20 15.9995C20.7364 15.9995 21.3333 15.4026 21.3333 14.6662C21.3333 13.9298 20.7364 13.3329 20 13.3329H18.6667C17.9303 13.3329 17.3333 13.9298 17.3333 14.6662C17.3333 15.4026 17.9303 15.9995 18.6667 15.9995H20ZM14.6667 18.6662C14.6667 19.4026 14.0697 19.9995 13.3333 19.9995H12C11.2636 19.9995 10.6667 19.4026 10.6667 18.6662C10.6667 17.9298 11.2636 17.3329 12 17.3329H13.3333C14.0697 17.3329 14.6667 17.9298 14.6667 18.6662ZM13.3333 15.9995C14.0697 15.9995 14.6667 15.4026 14.6667 14.6662C14.6667 13.9298 14.0697 13.3329 13.3333 13.3329H12C11.2636 13.3329 10.6667 13.9298 10.6667 14.6662C10.6667 15.4026 11.2636 15.9995 12 15.9995H13.3333Z" fill="#1F3C15"/>
</svg>
