<svg width="32" height="32" viewBox="0 0 32 32" fill="none" xmlns="http://www.w3.org/2000/svg">
<path fill-rule="evenodd" clip-rule="evenodd" d="M6.6665 5.33398H25.3332C27.5423 5.33398 29.3332 7.12485 29.3332 9.33398V22.6673C29.3332 24.8765 27.5423 26.6673 25.3332 26.6673H6.6665C4.45736 26.6673 2.6665 24.8765 2.6665 22.6673V9.33399C2.6665 7.12485 4.45737 5.33398 6.6665 5.33398ZM7.05703 19.9469C6.53633 20.4676 6.53633 21.3118 7.05703 21.8325C7.57773 22.3532 8.42195 22.3532 8.94265 21.8325L13.4235 17.3516L15.1565 18.7668C15.701 19.2115 16.4972 19.157 16.9761 18.6422L21.337 13.9543L23.0271 15.7571C23.5308 16.2944 24.3745 16.3216 24.9118 15.8179C25.449 15.3143 25.4762 14.4705 24.9726 13.9333L22.3059 11.0889C22.0532 10.8193 21.7 10.6667 21.3306 10.6674C20.9611 10.6682 20.6086 10.8221 20.3569 11.0926L15.875 15.9107L14.1765 14.5236C13.6464 14.0906 12.8744 14.1295 12.3904 14.6135L7.05703 19.9469Z" fill="#1F3C15"/>
</svg>
