<svg width="32" height="32" viewBox="0 0 32 32" fill="none" xmlns="http://www.w3.org/2000/svg">
<path d="M4.89426 4.68561C3.60944 5.50322 3 6.50977 3 7.46364C3 8.41751 3.60944 9.42405 4.89426 10.2417C6.16722 11.0517 7.98686 11.5855 10.0486 11.5855C12.1104 11.5855 13.93 11.0517 15.203 10.2417C16.4878 9.42405 17.0972 8.41751 17.0972 7.46364C17.0972 6.50977 16.4878 5.50322 15.203 4.68561C13.93 3.87555 12.1104 3.3418 10.0486 3.3418C7.98686 3.3418 6.16722 3.87555 4.89426 4.68561Z" fill="#1F3C15"/>
<path d="M17.0972 11.3303C16.8402 11.5454 16.5653 11.7453 16.2767 11.929C14.6366 12.9727 12.432 13.5855 10.0486 13.5855C7.66524 13.5855 5.46057 12.9727 3.82051 11.929C3.53191 11.7453 3.257 11.5454 3 11.3303V13.3172C3 14.271 3.60944 15.2776 4.89426 16.0952C6.16722 16.9053 7.98686 17.439 10.0486 17.439C12.1104 17.439 13.93 16.9053 15.203 16.0952C16.4878 15.2776 17.0972 14.271 17.0972 13.3172V11.3303Z" fill="#1F3C15"/>
<path d="M17.0972 17.1838C16.8402 17.3989 16.5653 17.5989 16.2767 17.7825C14.6366 18.8262 12.432 19.439 10.0486 19.439C7.66524 19.439 5.46057 18.8262 3.82051 17.7825C3.53191 17.5989 3.257 17.3989 3 17.1838V19.1707C3 20.1246 3.60944 21.1311 4.89426 21.9487C6.16722 22.7588 7.98686 23.2925 10.0486 23.2925C12.1104 23.2925 13.93 22.7588 15.203 21.9487C16.4878 21.1311 17.0972 20.1246 17.0972 19.1707V17.1838Z" fill="#1F3C15"/>
<path d="M17.0972 23.0373C16.8402 23.2525 16.5653 23.4524 16.2767 23.6361C14.6366 24.6797 12.432 25.2925 10.0486 25.2925C7.66524 25.2925 5.46057 24.6797 3.82051 23.6361C3.53191 23.4524 3.257 23.2525 3 23.0373V23.5609C3 24.5147 3.60944 25.5213 4.89426 26.3389C6.16722 27.1489 7.98686 27.6827 10.0486 27.6827C12.1104 27.6827 13.93 27.1489 15.203 26.3389C16.4878 25.5213 17.0972 24.5147 17.0972 23.5609V23.0373Z" fill="#1F3C15"/>
<path d="M20.0649 10.6433C19.1358 11.2345 18.7464 11.9283 18.7464 12.5367C18.7464 13.1452 19.1358 13.839 20.0649 14.4302C20.9821 15.0139 22.3103 15.4076 23.8292 15.4076C25.3482 15.4076 26.6764 15.0139 27.5936 14.4302C28.5227 13.839 28.9121 13.1452 28.9121 12.5367C28.9121 11.9283 28.5227 11.2345 27.5936 10.6433C26.6764 10.0596 25.3482 9.66585 23.8292 9.66585C22.3103 9.66585 20.9821 10.0596 20.0649 10.6433Z" fill="#1F3C15"/>
<path d="M28.9121 15.9538C28.8319 16.0102 28.7502 16.0648 28.6673 16.1175C27.383 16.9348 25.6698 17.4076 23.8292 17.4076C21.9887 17.4076 20.2755 16.9348 18.9912 16.1175C18.9082 16.0648 18.8266 16.0102 18.7464 15.9538V16.9606C18.7464 17.569 19.1358 18.2629 20.0649 18.8541C20.9821 19.4378 22.3103 19.8315 23.8292 19.8315C25.3482 19.8315 26.6764 19.4378 27.5936 18.8541C28.5227 18.2629 28.9121 17.569 28.9121 16.9606V15.9538Z" fill="#1F3C15"/>
<path d="M28.9121 20.3777C28.8319 20.434 28.7502 20.4886 28.6673 20.5414C27.383 21.3587 25.6698 21.8315 23.8292 21.8315C21.9887 21.8315 20.2755 21.3587 18.9912 20.5414C18.9082 20.4886 18.8266 20.434 18.7464 20.3777V21.3845C18.7464 21.9929 19.1358 22.6867 20.0649 23.278C20.9821 23.8616 22.3103 24.2554 23.8292 24.2554C25.3482 24.2554 26.6764 23.8616 27.5936 23.278C28.5227 22.6867 28.9121 21.9929 28.9121 21.3845V20.3777Z" fill="#1F3C15"/>
<path d="M28.9085 24.8041C28.8294 24.8596 28.749 24.9133 28.6673 24.9653C27.383 25.7826 25.6698 26.2554 23.8292 26.2554C21.9887 26.2554 20.2755 25.7826 18.9912 24.9653C18.9095 24.9133 18.829 24.8595 18.75 24.8041C18.7911 25.3872 19.1872 26.0373 20.0649 26.5959C20.9821 27.1796 22.3103 27.5733 23.8292 27.5733C25.3482 27.5733 26.6764 27.1796 27.5936 26.5959C28.4713 26.0373 28.8674 25.3872 28.9085 24.8041Z" fill="#1F3C15"/>
</svg>
