<svg width="32" height="32" viewBox="0 0 32 32" fill="none" xmlns="http://www.w3.org/2000/svg">
<path d="M17.3335 16.8709C18.7781 15.0122 21.5897 13.334 26.6668 13.334C25.1939 17.9367 20.4373 19.781 17.3335 20.2951V24.301C17.738 24.4241 18.2427 24.6036 18.6617 24.843C19.2378 25.1722 19.9752 25.7302 20.5191 26.1595C20.8023 26.383 21.0538 26.5882 21.2344 26.7374C21.3249 26.8122 21.398 26.8733 21.4489 26.916L21.5081 26.9659L21.5286 26.9832L21.5299 26.9843C22.0909 27.4613 22.1596 28.3034 21.6826 28.8644C21.2056 29.4253 20.3642 29.4934 19.8032 29.0165L19.7997 29.0135L19.7867 29.0026L19.7343 28.9584C19.688 28.9196 19.6202 28.8629 19.5356 28.793C19.3661 28.6529 19.1307 28.4608 18.8671 28.2528C18.3175 27.8191 17.7215 27.3771 17.3386 27.1583C17.1309 27.0396 16.7635 26.9081 16.3708 26.7976C16.2323 26.7586 16.1047 26.726 16.0002 26.7007C15.8956 26.726 15.768 26.7586 15.6295 26.7976C15.2369 26.9081 14.8695 27.0396 14.6617 27.1583C14.2788 27.3771 13.6828 27.8191 13.1332 28.2528C12.8696 28.4608 12.6342 28.6529 12.4647 28.793C12.3801 28.8629 12.3123 28.9196 12.2661 28.9584L12.2136 29.0026L12.2006 29.0135L12.1977 29.016C11.6367 29.4929 10.7947 29.4253 10.3177 28.8644C9.84071 28.3034 9.9088 27.4619 10.4698 26.9849C11.342 28.0107 11.3866 28.0631 10.4698 26.9849L10.4718 26.9832L10.4762 26.9794L10.4922 26.9659L10.5514 26.916C10.6023 26.8733 10.6754 26.8122 10.7659 26.7374C10.9465 26.5882 11.198 26.383 11.4812 26.1595C12.0251 25.7302 12.7625 25.1722 13.3386 24.843C13.7576 24.6036 14.2623 24.4241 14.6668 24.301V12.9289C11.2485 12.112 6.81482 9.96311 5.3335 5.33398C13.5281 5.33398 16.4765 9.22008 17.1641 12.0165C17.272 12.209 17.3335 12.431 17.3335 12.6673V16.8709Z" fill="#1F3C15"/>
</svg>
