<svg width="18" height="16" viewBox="0 0 18 16" fill="none" xmlns="http://www.w3.org/2000/svg">
<path fill-rule="evenodd" clip-rule="evenodd" d="M-0.000488281 1.24944C-0.000488281 0.716884 0.431237 0.285156 0.963798 0.285156H17.036C17.5685 0.285156 18.0003 0.716884 18.0003 1.24944C18.0003 1.78201 17.5685 2.21373 17.036 2.21373H0.963798C0.431237 2.21373 -0.000488281 1.78201 -0.000488281 1.24944ZM-0.000488281 7.99963C-0.000488281 7.46708 0.431237 7.03535 0.963798 7.03535H17.036C17.5685 7.03535 18.0003 7.46708 18.0003 7.99963C18.0003 8.5322 17.5685 8.96392 17.036 8.96392H0.963798C0.431237 8.96392 -0.000488281 8.5322 -0.000488281 7.99963ZM0.963798 13.7862C0.431237 13.7862 -0.000488281 14.2179 -0.000488281 14.7505C-0.000488281 15.283 0.431237 15.7147 0.963798 15.7147H17.036C17.5685 15.7147 18.0003 15.283 18.0003 14.7505C18.0003 14.2179 17.5685 13.7862 17.036 13.7862H0.963798Z" fill="black"/>
</svg>
