<svg width="134" height="169" viewBox="0 0 134 169" fill="none" xmlns="http://www.w3.org/2000/svg">
<mask id="path-1-inside-1_1545_12822" fill="white">
<path d="M131.416 60.6808C134.689 57.5127 131.855 51.2173 127.473 52.196C129.089 47.8837 127.788 39.2164 123.679 41.7043C123.455 37.7321 122.27 29.7361 118.004 32.2329C118.219 29.4129 118.543 26.3192 115.253 26.4362C115.435 24.0971 114.192 22.6206 111.948 22.5711C115.22 14.9241 108.891 7.70058 101.674 5.24547C99.694 4.57319 97.5644 4.47406 95.5021 4.7398C94.9722 4.80623 90.9041 6.41555 90.8051 6.24103C88.8914 3.08092 85.8258 1.75419 83.3237 4.10915C82.1886 1.68775 79.4131 1.14834 77.6738 2.74079C76.1989 -2.93194 68.4194 1.23163 65.6608 5.93362C63.3905 2.5167 59.7285 1.84444 56.9531 5.00454C54.1192 0.251986 48.2623 0.236125 45.9098 5.26136C42.9353 2.22619 38.5779 2.33328 35.8768 5.94158C34.8655 7.28514 35.8272 6.85381 34.1622 6.54741C33.1598 6.36497 32.4556 6.3729 31.47 6.66343C30.0951 7.06997 29.4404 8.32231 29.1422 9.6163C24.3947 5.53602 18.1643 8.6376 15.8118 14.1775C15.4225 15.0818 15.0164 16.5414 15.166 17.5617C15.3403 18.8061 15.7049 19.876 16.0941 21.0619C16.6241 22.6622 15.1244 22.4134 14.9927 23.4426C14.6113 26.2458 17.5779 27.9711 19.7481 29.3563C18.5139 30.4927 17.992 31.7529 17.7107 33.5774C17.6612 33.9095 14.2062 33.7261 13.3029 33.8927C11.82 34.1743 10.6681 35.0955 9.78156 36.2566C8.53846 37.8818 10.0876 39.1093 7.66087 39.4831C6.14438 39.7151 4.97654 40.6611 4.27228 41.963C3.71759 42.9834 4.67841 46.1097 4.05735 46.5163C1.58006 48.1414 2.00299 50.895 3.883 52.6452C0.113077 54.42 -0.656573 58.7075 0.486487 62.6559C2.04458 68.047 7.0398 69.2082 11.8864 68.9345C10.5859 71.6217 12.8977 73.5621 15.797 74.0183C9.55869 81.0018 22.0848 86.0519 24.0074 81.2249C26.0618 84.8739 31.3977 82.6766 32.7646 78.8531C34.1563 80.4703 36.0125 80.0886 37.0476 78.2314C37.6855 79.1188 38.5799 79.7574 39.5417 80.1144C40.3698 84.9909 42.4499 89.6354 45.1758 93.9814C49.5668 100.99 57.587 106.182 60.0059 114.234C60.9756 120.338 60.9172 126.525 61.0747 132.687C61.249 139.488 61.9196 146.272 62.2514 153.065C62.5495 159.169 62.914 165.879 61.3569 171.816C60.205 176.187 55.0681 177.613 53.834 182.034C53.7101 182.482 54.1163 182.789 54.5303 182.722C58.847 182.025 62.9973 178.965 66.7008 182.838C66.891 183.045 67.2812 183.062 67.4625 182.838C70.2627 179.512 75.1846 183.178 78.8208 181.867C79.218 181.718 79.318 181.295 79.0526 180.972C77.6361 179.205 75.9958 177.671 74.4377 176.029C71.3968 172.819 71.066 168.789 71.0323 164.559C70.9828 157.966 70.5182 151.38 70.3776 144.787C70.1369 134.196 68.5303 122.403 73.998 112.79C76.6991 108.047 81.0901 104.563 85.0581 100.93C89.0598 97.2813 92.9119 93.4747 96.3094 89.2358C99.9545 84.6904 103.31 78.7777 104.852 72.6479C107.553 75.7168 111.96 77.0683 113.575 72.9137C116.351 78.0063 125.149 77.2349 125.406 70.8988C132.022 73.702 137.382 63.9242 131.416 60.6808ZM89.7274 82.866C89.2054 80.5933 89.2054 78.2294 89.3708 75.8497C91.1934 75.2359 92.8337 73.8754 93.538 71.9181C94.4165 73.5026 96.9097 72.8224 97.8963 70.5825C99.5286 72.6558 101.74 71.8596 103.099 69.7694C103.107 69.8021 103.124 69.8438 103.132 69.8775C101.798 73.8417 99.2553 77.4163 96.5294 80.6756C94.8801 82.6508 90.8537 87.7593 89.7274 82.866ZM87.4482 75.1119C87.6553 73.4362 88.0941 71.8437 88.7577 70.2523C88.6587 71.811 88.5259 73.3787 88.418 74.9463C88.095 75.0286 87.7721 75.0782 87.4482 75.1119ZM61.0202 104.197C58.7747 103.111 56.8531 101.353 55.0464 99.6689C51.1695 96.0616 48.0453 91.9229 47.7809 86.499C47.6729 84.3424 47.7482 82.3186 47.6234 80.3454C49.0893 80.5943 50.5731 80.039 51.5419 78.5041C52.884 81.3737 55.701 82.8917 58.7083 80.6607C61.1776 78.8194 60.6556 74.9127 59.8097 72.0689C61.3341 72.7074 62.7259 72.1849 63.3885 70.5765C63.8521 71.2647 64.4078 71.8705 65.0288 72.3762C64.9704 76.3742 64.3077 80.4704 63.9016 84.2363C63.438 88.5327 63.5787 92.7617 63.3964 97.0661C63.3816 97.5877 62.6437 104.994 61.0202 104.197ZM68.1945 77.4005C68.3183 76.2721 68.4263 75.1367 68.5343 74.0083C70.862 74.406 73.157 73.5185 74.1436 70.873C76.2484 74.8452 80.3571 77.574 82.6442 73.2944C83.2821 74.9443 84.6163 75.8566 86.1566 76.1313C86.115 76.6955 86.0982 77.2755 86.1071 77.8724C86.2398 83.7861 87.5403 88.4217 83.3395 93.3646C79.8846 97.437 75.0133 104.885 69.6694 106.468C64.0769 108.129 67.8548 80.4783 68.1945 77.4005ZM88.8488 38.8773C90.2821 39.3751 91.3182 38.7781 91.9472 37.6666C92.4107 39.0845 93.4795 40.0553 95.0624 39.732C94.7811 41.0429 95.1208 42.1455 95.8904 43.0161C94.0184 43.0736 92.485 44.1276 92.2453 46.2089C90.4971 44.6581 88.0287 44.318 86.8599 46.4746C85.9238 45.2302 84.7223 44.5094 83.4218 44.5252C84.0517 43.6794 84.441 42.7008 84.3667 41.7717C86.4131 42.5927 88.8072 41.4811 88.8488 38.8773ZM36.4136 28.336C34.9883 27.8382 33.6055 27.9047 32.3377 28.8586C32.0395 27.4406 31.4175 25.5824 30.0347 25.2096C29.4136 25.044 28.8253 24.8863 28.2032 25.16C28.535 25.0192 27.5327 23.518 27.4158 23.3604C26.8938 22.6891 24.5819 22.5889 24.574 22.4808C24.4997 20.4818 23.2903 19.4615 21.6163 18.8983C22.6187 18.1269 23.107 17.0986 23.1823 15.8711C23.9193 16.5176 24.7562 16.7168 25.6675 16.468C24.7731 18.691 26.0241 20.5483 27.8378 21.1125C28.8322 21.5517 30.1407 21.2533 31.2927 20.6732C32.5021 20.0594 32.0385 19.3544 33.3054 19.7282C34.283 20.0098 34.8635 19.9603 35.4766 19.6122C35.2775 21.4863 35.6509 23.4852 36.9347 24.3231C35.9491 25.2502 35.8253 26.8595 36.4136 28.336ZM25.1871 58.4329C24.7067 57.5286 24.0272 56.9653 23.1744 56.7323C23.7459 56.185 23.9361 55.4631 23.5973 54.6173C25.097 55.1815 26.7957 54.186 27.0938 52.4865C28.1458 52.7929 28.9243 52.5113 29.4721 51.9144C29.6712 52.6769 30.0773 53.3412 30.7152 53.8638C29.0997 54.3536 28.23 55.9291 28.5529 57.4968C27.3415 57.0149 26.1152 57.2559 25.1871 58.4329ZM40.448 79.3419C40.2163 77.9071 40.0835 76.4555 40.0915 74.988C40.241 76.4476 40.3817 77.924 40.5639 79.3836C40.5223 79.3747 40.4896 79.3578 40.448 79.3419ZM41.5664 80.4119C42.8253 80.3038 43.9189 79.6245 44.4082 78.2472C44.8054 78.7866 45.2699 79.2259 45.7671 79.574C45.8503 80.3454 45.9167 81.1169 45.9573 81.8962C46.0316 83.4808 45.8414 85.0226 45.5344 86.5744C44.8301 90.0994 43.0571 86.1926 42.6509 85.0484C42.122 83.5462 41.7991 81.9874 41.5664 80.4119Z"/>
</mask>
<path d="M131.416 60.6808C134.689 57.5127 131.855 51.2173 127.473 52.196C129.089 47.8837 127.788 39.2164 123.679 41.7043C123.455 37.7321 122.27 29.7361 118.004 32.2329C118.219 29.4129 118.543 26.3192 115.253 26.4362C115.435 24.0971 114.192 22.6206 111.948 22.5711C115.22 14.9241 108.891 7.70058 101.674 5.24547C99.694 4.57319 97.5644 4.47406 95.5021 4.7398C94.9722 4.80623 90.9041 6.41555 90.8051 6.24103C88.8914 3.08092 85.8258 1.75419 83.3237 4.10915C82.1886 1.68775 79.4131 1.14834 77.6738 2.74079C76.1989 -2.93194 68.4194 1.23163 65.6608 5.93362C63.3905 2.5167 59.7285 1.84444 56.9531 5.00454C54.1192 0.251986 48.2623 0.236125 45.9098 5.26136C42.9353 2.22619 38.5779 2.33328 35.8768 5.94158C34.8655 7.28514 35.8272 6.85381 34.1622 6.54741C33.1598 6.36497 32.4556 6.3729 31.47 6.66343C30.0951 7.06997 29.4404 8.32231 29.1422 9.6163C24.3947 5.53602 18.1643 8.6376 15.8118 14.1775C15.4225 15.0818 15.0164 16.5414 15.166 17.5617C15.3403 18.8061 15.7049 19.876 16.0941 21.0619C16.6241 22.6622 15.1244 22.4134 14.9927 23.4426C14.6113 26.2458 17.5779 27.9711 19.7481 29.3563C18.5139 30.4927 17.992 31.7529 17.7107 33.5774C17.6612 33.9095 14.2062 33.7261 13.3029 33.8927C11.82 34.1743 10.6681 35.0955 9.78156 36.2566C8.53846 37.8818 10.0876 39.1093 7.66087 39.4831C6.14438 39.7151 4.97654 40.6611 4.27228 41.963C3.71759 42.9834 4.67841 46.1097 4.05735 46.5163C1.58006 48.1414 2.00299 50.895 3.883 52.6452C0.113077 54.42 -0.656573 58.7075 0.486487 62.6559C2.04458 68.047 7.0398 69.2082 11.8864 68.9345C10.5859 71.6217 12.8977 73.5621 15.797 74.0183C9.55869 81.0018 22.0848 86.0519 24.0074 81.2249C26.0618 84.8739 31.3977 82.6766 32.7646 78.8531C34.1563 80.4703 36.0125 80.0886 37.0476 78.2314C37.6855 79.1188 38.5799 79.7574 39.5417 80.1144C40.3698 84.9909 42.4499 89.6354 45.1758 93.9814C49.5668 100.99 57.587 106.182 60.0059 114.234C60.9756 120.338 60.9172 126.525 61.0747 132.687C61.249 139.488 61.9196 146.272 62.2514 153.065C62.5495 159.169 62.914 165.879 61.3569 171.816C60.205 176.187 55.0681 177.613 53.834 182.034C53.7101 182.482 54.1163 182.789 54.5303 182.722C58.847 182.025 62.9973 178.965 66.7008 182.838C66.891 183.045 67.2812 183.062 67.4625 182.838C70.2627 179.512 75.1846 183.178 78.8208 181.867C79.218 181.718 79.318 181.295 79.0526 180.972C77.6361 179.205 75.9958 177.671 74.4377 176.029C71.3968 172.819 71.066 168.789 71.0323 164.559C70.9828 157.966 70.5182 151.38 70.3776 144.787C70.1369 134.196 68.5303 122.403 73.998 112.79C76.6991 108.047 81.0901 104.563 85.0581 100.93C89.0598 97.2813 92.9119 93.4747 96.3094 89.2358C99.9545 84.6904 103.31 78.7777 104.852 72.6479C107.553 75.7168 111.96 77.0683 113.575 72.9137C116.351 78.0063 125.149 77.2349 125.406 70.8988C132.022 73.702 137.382 63.9242 131.416 60.6808ZM89.7274 82.866C89.2054 80.5933 89.2054 78.2294 89.3708 75.8497C91.1934 75.2359 92.8337 73.8754 93.538 71.9181C94.4165 73.5026 96.9097 72.8224 97.8963 70.5825C99.5286 72.6558 101.74 71.8596 103.099 69.7694C103.107 69.8021 103.124 69.8438 103.132 69.8775C101.798 73.8417 99.2553 77.4163 96.5294 80.6756C94.8801 82.6508 90.8537 87.7593 89.7274 82.866ZM87.4482 75.1119C87.6553 73.4362 88.0941 71.8437 88.7577 70.2523C88.6587 71.811 88.5259 73.3787 88.418 74.9463C88.095 75.0286 87.7721 75.0782 87.4482 75.1119ZM61.0202 104.197C58.7747 103.111 56.8531 101.353 55.0464 99.6689C51.1695 96.0616 48.0453 91.9229 47.7809 86.499C47.6729 84.3424 47.7482 82.3186 47.6234 80.3454C49.0893 80.5943 50.5731 80.039 51.5419 78.5041C52.884 81.3737 55.701 82.8917 58.7083 80.6607C61.1776 78.8194 60.6556 74.9127 59.8097 72.0689C61.3341 72.7074 62.7259 72.1849 63.3885 70.5765C63.8521 71.2647 64.4078 71.8705 65.0288 72.3762C64.9704 76.3742 64.3077 80.4704 63.9016 84.2363C63.438 88.5327 63.5787 92.7617 63.3964 97.0661C63.3816 97.5877 62.6437 104.994 61.0202 104.197ZM68.1945 77.4005C68.3183 76.2721 68.4263 75.1367 68.5343 74.0083C70.862 74.406 73.157 73.5185 74.1436 70.873C76.2484 74.8452 80.3571 77.574 82.6442 73.2944C83.2821 74.9443 84.6163 75.8566 86.1566 76.1313C86.115 76.6955 86.0982 77.2755 86.1071 77.8724C86.2398 83.7861 87.5403 88.4217 83.3395 93.3646C79.8846 97.437 75.0133 104.885 69.6694 106.468C64.0769 108.129 67.8548 80.4783 68.1945 77.4005ZM88.8488 38.8773C90.2821 39.3751 91.3182 38.7781 91.9472 37.6666C92.4107 39.0845 93.4795 40.0553 95.0624 39.732C94.7811 41.0429 95.1208 42.1455 95.8904 43.0161C94.0184 43.0736 92.485 44.1276 92.2453 46.2089C90.4971 44.6581 88.0287 44.318 86.8599 46.4746C85.9238 45.2302 84.7223 44.5094 83.4218 44.5252C84.0517 43.6794 84.441 42.7008 84.3667 41.7717C86.4131 42.5927 88.8072 41.4811 88.8488 38.8773ZM36.4136 28.336C34.9883 27.8382 33.6055 27.9047 32.3377 28.8586C32.0395 27.4406 31.4175 25.5824 30.0347 25.2096C29.4136 25.044 28.8253 24.8863 28.2032 25.16C28.535 25.0192 27.5327 23.518 27.4158 23.3604C26.8938 22.6891 24.5819 22.5889 24.574 22.4808C24.4997 20.4818 23.2903 19.4615 21.6163 18.8983C22.6187 18.1269 23.107 17.0986 23.1823 15.8711C23.9193 16.5176 24.7562 16.7168 25.6675 16.468C24.7731 18.691 26.0241 20.5483 27.8378 21.1125C28.8322 21.5517 30.1407 21.2533 31.2927 20.6732C32.5021 20.0594 32.0385 19.3544 33.3054 19.7282C34.283 20.0098 34.8635 19.9603 35.4766 19.6122C35.2775 21.4863 35.6509 23.4852 36.9347 24.3231C35.9491 25.2502 35.8253 26.8595 36.4136 28.336ZM25.1871 58.4329C24.7067 57.5286 24.0272 56.9653 23.1744 56.7323C23.7459 56.185 23.9361 55.4631 23.5973 54.6173C25.097 55.1815 26.7957 54.186 27.0938 52.4865C28.1458 52.7929 28.9243 52.5113 29.4721 51.9144C29.6712 52.6769 30.0773 53.3412 30.7152 53.8638C29.0997 54.3536 28.23 55.9291 28.5529 57.4968C27.3415 57.0149 26.1152 57.2559 25.1871 58.4329ZM40.448 79.3419C40.2163 77.9071 40.0835 76.4555 40.0915 74.988C40.241 76.4476 40.3817 77.924 40.5639 79.3836C40.5223 79.3747 40.4896 79.3578 40.448 79.3419ZM41.5664 80.4119C42.8253 80.3038 43.9189 79.6245 44.4082 78.2472C44.8054 78.7866 45.2699 79.2259 45.7671 79.574C45.8503 80.3454 45.9167 81.1169 45.9573 81.8962C46.0316 83.4808 45.8414 85.0226 45.5344 86.5744C44.8301 90.0994 43.0571 86.1926 42.6509 85.0484C42.122 83.5462 41.7991 81.9874 41.5664 80.4119Z" stroke="white" stroke-width="2" mask="url(#path-1-inside-1_1545_12822)"/>
</svg>
