<svg width="311" height="285" viewBox="0 0 311 285" fill="none" xmlns="http://www.w3.org/2000/svg">
<mask id="path-1-inside-1_1621_18055" fill="white">
<path d="M303.896 59.6276C307.93 55.1451 310.722 46.3881 303.383 44.1461C302.268 43.7981 300.155 44.7005 299.694 43.3732C299.157 41.8149 298.503 40.218 297.03 39.3034C295.058 38.0792 293.15 37.6033 290.844 37.397C289.845 37.2938 290.524 32.8761 290.319 31.7551C287.04 13.7621 260.876 10.8765 249.387 22.5069C248.683 15.7316 241.716 14.5352 236.58 18.5911C236.12 13.8392 230.805 14.6121 228 18.1014C227.181 9.5753 221.417 3.58538 212.593 3.05876C204.576 2.58295 198.082 7.96623 196.406 15.4483C191.667 11.1075 185.404 14.9971 183.394 20.6652C180.87 17.4193 177.079 17.9212 173.698 20.3942C170.804 3.99805 151.58 9.20117 143.716 20.02C142.167 12.9876 134.842 10.1282 128.412 13.7868C127.529 9.97421 124.698 6.75437 120.421 9.27969C119.717 9.69237 117.104 4.50162 116.271 3.49611C114.734 1.62829 111.993 0.225462 109.612 0.0453012C102.722 -0.470543 95.9345 3.4576 93.1676 9.85868C91.0806 14.6753 92.2458 20.2648 92.5781 25.6235C90.7729 22.533 87.4043 21.0256 82.8827 21.6954C81.0897 21.9525 79.3993 22.8934 77.8742 23.8204C75.6204 25.1985 76.6447 24.31 74.2377 23.2275C71.0483 21.7847 67.8848 22.2866 65.0813 24.4763C63.1857 25.9699 62.9805 27.6961 61.483 25.6481C60.869 24.8104 59.8569 24.4763 58.9474 24.1021C55.758 22.8272 51.9545 25.2739 49.6118 27.0909C43.3616 31.9337 42.8502 40.7816 44.6171 48.1481C43.5667 47.466 42.2729 47.1304 40.6468 47.1304C39.5582 47.1427 33.6156 50.0545 34.2557 50.8136C30.3236 46.1263 24.228 47.1565 22.6907 52.5013C19.0526 49.3077 12.7136 48.0712 9.49965 52.6168C8.68047 53.7763 8.07871 59.7 7.80922 59.8294C5.29963 61.1567 3.378 63.5896 3.31369 66.5785C3.27541 68.0721 3.42855 69.2577 3.83891 70.6744C4.1727 71.8077 5.65791 72.9287 5.06841 73.0319C2.43019 73.4954 0.393739 76.3287 0.0997538 78.8663C-0.912353 87.8173 5.93964 92.751 13.2786 95.8291C9.69255 97.4259 7.61781 100.504 7.28555 104.755C7.04209 107.86 7.00382 107.01 4.19871 108.58C2.31537 109.637 1.27877 111.632 0.510117 113.553C0.0109538 114.775 0.0109538 116.914 0.701514 118.073C2.04588 120.34 1.17616 120.676 0.369233 122.993C-0.22027 124.693 0.125779 127.423 1.02305 128.919C1.48393 129.704 4.6351 132.46 4.40389 133.039C2.94315 136.696 6.27344 139.57 9.16737 140.895C11.2804 141.849 13.6752 142.029 15.9428 142.016C16.8141 142.004 17.6976 141.81 18.5428 141.656C17.4281 141.862 17.5567 144.967 17.4924 145.777C17.082 150.775 19.9254 155.398 23.9861 158C28.4051 160.833 33.6049 158.528 37.2415 155.579C37.9075 158.631 39.7265 161.323 43.2482 161.62C45.375 161.8 47.5126 161.581 49.4725 160.655C51.8672 159.521 52.1872 157.924 53.9802 160.011C57.7454 164.376 65.4166 160.011 66.1087 154.949C73.4982 158.402 84.2944 157.951 92.0942 161.016C92.1463 162.239 92.1968 163.439 92.2734 164.572C92.5551 168.629 94.0664 172.764 95.5655 176.498C101.637 191.631 115.135 202.037 124.177 215.2C137.394 234.468 138.328 262.017 129.339 283.139C129.083 283.177 128.839 283.216 128.596 283.281C128.467 283.307 128.378 283.487 128.455 283.603C128.596 283.797 128.763 283.951 128.942 284.092C128.711 284.801 129.672 285.379 130.043 284.685C132.361 285.458 135.935 284.594 137.791 284.363C143.516 283.629 149.547 281.955 155.31 283.036C155.848 283.139 156.232 282.779 156.347 282.378C156.77 282.417 157.218 282.107 157.025 281.605C151.276 266.162 147.805 249.638 148.01 233.114C148.112 225.155 149.354 217.196 153.157 210.125C156.629 203.659 162.43 198.933 167.502 193.807C175.044 186.196 180.783 178.52 183.959 169.04C203.694 159.47 236.109 164.661 249.595 146.411C250.761 146.385 251.94 145.909 252.989 145.045C253.194 148.02 256.715 150.493 259.392 150.777C261.173 150.957 263.004 150.352 264.093 149.154C266.103 153.456 273.045 152.102 275.247 147.543C277.489 152.141 281.51 155.361 287.056 153.468C292.101 151.742 292.96 146.681 291.577 142.314C294.958 143.615 298.25 142.146 300.44 138.462C303.436 133.44 301.156 127.927 296.968 124.76C303.526 121.153 307.342 114.623 301.848 107.874C300.542 106.277 298.556 105.22 296.763 104.32C295.636 103.753 296.174 100.907 295.995 99.8126C295.584 97.1087 293.164 95.7813 290.73 95.2532C293.036 93.0897 293.139 90.2179 291.217 87.4616C295.393 86.4053 299.824 83.0316 298.069 79.1666C309.761 80.2229 317.241 62.4747 303.896 59.6276ZM148.149 35.2213C147.765 34.8348 147.431 34.3713 147.151 33.7908C147.048 33.5721 147.177 33.392 147.356 33.3396C147.471 33.1595 147.688 33.03 147.893 33.03C148.034 33.03 148.163 33.0809 148.278 33.2102C150.519 32.2062 152.759 31.2008 155.015 30.1968C155.041 29.6686 155.731 29.4499 156.001 29.9258C157.756 30.4277 159.498 30.9297 161.239 31.4333C161.559 31.2654 161.956 31.4071 162.058 31.7674C163.851 38.6319 170.102 34.1634 171.702 31.6257C171.983 31.1884 172.816 31.3163 172.764 31.9091C174.225 33.4412 175.696 34.9873 177.169 36.5194C177.515 36.3777 177.861 36.738 177.874 37.0598C180.013 38.5534 182.138 40.0487 184.277 41.5285C184.853 41.3606 185.571 41.3097 186.493 41.4514C187.364 41.5807 187.159 43.0744 186.275 43.0097C181.613 42.6232 185.661 49.6171 186.134 50.3763C186.621 51.1616 185.442 52.1148 184.841 51.3803C182.253 48.4562 179.462 48.0696 176.439 50.2084C175.914 50.5179 175.236 50.1315 175.222 49.5125C173.211 47.8772 171.187 46.2541 169.177 44.6188C168.601 44.9145 168.05 44.5419 167.973 43.9229C166.013 43.2531 164.041 42.5832 162.081 41.9134C161.685 42.2737 161.133 42.1705 160.839 41.7456C157.766 41.938 156.831 43.3161 158.01 45.8661C158.151 46.5236 157.472 47.1288 156.857 46.7546C154.333 47.2951 151.81 47.8233 149.288 48.3653C148.699 48.8796 147.7 48.4037 147.93 47.5661C147.187 46.3558 146.457 45.1316 145.727 43.909C144.869 43.8058 144.485 42.44 145.495 42.2598C150.121 41.416 149.738 38.1069 148.149 35.2213ZM260.378 109.936C257.061 108.39 253.822 110.039 253.129 113.58C252.335 112.344 251.286 111.21 249.94 110.85C247.25 110.116 246.7 110.992 245.06 108.661C243.831 106.896 242.307 106.149 240.731 106.175C241.973 104.192 240.462 101.306 238.106 99.671C239.77 99.1166 240.923 98.0095 241.538 96.3865C243.114 100.276 246.444 105.016 248.749 102.891C249.004 105.234 250.043 107.566 252.848 106.574C256.14 105.415 257.074 102.62 256.741 99.7218C258.432 100.444 260.43 99.5031 261.66 97.4936C262.235 99.1936 263.223 100.663 264.63 101.513C261.018 101.822 259.456 106.111 260.378 109.936ZM143.488 208.026C135.189 185.783 138.314 161.132 129.822 138.76C127.722 133.221 125.673 127.734 124.393 121.938C123.125 116.156 123.817 111.597 125.854 106.56C128.133 107.564 131.259 106.534 133.73 104.769C133.615 105.967 133.909 107.165 134.921 108.169C137.239 110.501 139.032 107.526 140.838 110.578C142.54 113.463 146.152 111.956 146.985 109.535C147.857 110.282 148.984 110.901 149.636 111.274C151.966 112.613 154.196 113.089 156.77 112.047C157.615 111.711 158.293 111.209 158.857 110.63C159.971 110.308 160.432 109.098 160.547 107.552C161.034 105.84 161.084 103.881 160.893 102.013C163.545 105.324 169.039 105.516 170.562 101.756C172.675 104.28 176.71 103.83 178.746 100.894C179.36 102.555 180.463 103.881 181.821 104.809C180.04 108.454 178.426 112.151 177.313 116.027C173.906 127.825 178.12 138.966 181.565 150.131C181.36 151.882 181.169 153.622 180.938 155.308C179.336 166.965 173.945 177.628 166.491 186.579C159.728 194.696 150.3 199.925 143.488 208.026ZM78.9522 154.511C75.6219 154.434 72.728 153.507 70.1403 152.064C72.0359 150.028 72.1507 145.92 69.7437 143.461C74.201 142.675 77.0045 138.992 75.2253 134.522C75.3018 134.534 75.3784 134.534 75.4565 134.534C75.6617 134.702 75.8531 134.882 76.0583 135.05C80.4007 138.553 85.1519 141.271 88.5067 145.869C90.364 148.407 91.197 151.562 91.6319 154.832C87.5084 154.15 83.2426 154.601 78.9522 154.511ZM79.7606 128.443C79.6581 127.115 79.2998 125.737 78.724 124.527C83.5013 124.901 85.4597 121.398 84.6145 117.108C87.4579 118.666 93.2074 116.993 94.8733 112.703C98.1898 116.58 104.466 113.308 103.927 107.924C108.371 109.922 113.776 109.045 115.684 104.486C116.311 105.336 117.042 105.98 117.797 106.405C117.784 106.572 117.758 106.753 117.732 106.921C116.734 111.956 115.772 116.489 115.581 121.668C115.158 133.079 118.117 142.751 122.548 153.106C125.673 160.396 128.349 167.995 128.106 176.031C128.003 179.419 126.864 182.728 125.749 185.871C124.981 187.828 124.148 189.76 123.252 191.654C122.33 193.69 120.576 190.367 119.922 189.657C116.08 185.511 112.289 182.265 109.51 177.126C106.59 171.755 105.513 165.753 104.463 159.803C102.914 151.083 98.6232 144.012 92.0667 138.204C88.0719 134.651 83.832 131.638 79.7606 128.443ZM186.122 106.355C189.145 106.613 192.206 105.299 193.652 102.105C195.279 104.629 198.289 104.643 199.877 102.067C200.915 104.488 202.861 107.258 204.449 104.617C202.668 107.566 202.425 111.739 202.271 115.1C202.233 116.053 202.271 116.98 202.386 117.856C197.456 119.724 192.679 121.295 188.914 126.01C185.635 130.08 183.983 135.013 182.971 140.138C175.134 129.59 180.282 118.089 186.122 106.355ZM186.213 159.175C187.571 148.91 187.647 139.405 193.358 130.351C195.856 126.396 199.531 123.692 203.438 121.296C204.515 123.19 206.358 123.923 208.984 122.327C209.419 126.293 212.48 126.449 215.579 124.567C213.85 130.247 218.167 134.343 223.763 131.626C223.52 134.433 224.019 137.64 227.17 138.464C229.438 139.057 231.307 138.476 233.151 138.219C232.37 142.997 232.305 148.174 230.307 152.412C224.274 154.601 217.897 155.915 211.993 156.534C205.936 157.151 199.852 157.538 193.807 158.428C191.36 158.788 188.492 159.213 186.046 160.296C186.096 159.92 186.16 159.547 186.213 159.175ZM235.455 135.566C235.443 135.578 235.429 135.578 235.417 135.578C235.264 135.669 235.109 135.746 234.944 135.823C235.597 133.53 236.582 131.444 238.272 129.77C237.107 131.598 236.159 133.557 235.455 135.566ZM236.608 149.694C235.429 145.985 235.391 142.095 236.238 138.373C236.686 138.515 237.147 138.721 237.62 139.017C239.043 139.905 241.218 139.069 242.589 138.592C243.382 138.308 244.394 142.404 244.958 143.382C245.086 143.601 245.213 143.807 245.354 144.001C242.717 146.217 239.759 148.111 236.608 149.694ZM39.8399 100.264C36.8051 99.3368 32.5653 99.092 32.5653 102.723C32.5653 103.753 34.0628 105.659 33.781 105.775C32.0003 106.548 31.3342 107.487 31.2331 109.407C31.1566 110.605 32.0523 112.113 33.0522 113.091C32.9496 113.129 32.8348 113.18 32.7199 113.245C32.2468 113.297 31.7982 113.463 31.3878 113.747C30.8504 113.979 30.3374 114.378 30.0051 114.841C28.353 117.108 29.7739 119.466 27.0591 117.804C25.8036 117.031 24.5495 117.07 23.3843 117.508C24.0121 115.756 23.7932 114.07 22.7183 112.536C26.612 111.595 28.9165 105.955 24.2556 104.666C24.8711 104.834 25.306 104.743 26.3043 103.444C27.1755 102.284 26.7529 100.533 26.4329 99.2968C26.3426 98.9226 26.2538 98.6532 26.1634 98.4468C27.2521 98.4345 27.9181 98.125 28.9165 97.3258C29.9148 96.5266 30.1843 94.8266 30.3512 93.6933C30.4278 93.2421 30.4155 92.7787 30.3389 92.3275C31.939 93.0235 33.9892 91.941 34.9876 90.6013C35.8588 89.4156 36.4866 88.2315 36.9857 86.9565C37.1128 87.4462 37.2797 87.9221 37.5492 88.3732C37.6641 88.5534 37.7789 88.7089 37.8953 88.889C38.6517 90.2934 39.7909 91.4513 41.1092 92.1612C41.2379 92.3028 41.3527 92.4322 41.4813 92.5739C41.2899 92.831 41.123 93.1021 40.9821 93.3854C39.2764 95.3949 38.5843 97.894 39.8399 100.264ZM248.672 144.891C248.288 144.75 247.942 144.531 247.61 144.26C248.839 143.127 250.004 141.941 251.067 140.666C250.375 142.198 249.568 143.602 248.672 144.891Z"/>
</mask>
<path d="M303.896 59.6276C307.93 55.1451 310.722 46.3881 303.383 44.1461C302.268 43.7981 300.155 44.7005 299.694 43.3732C299.157 41.8149 298.503 40.218 297.03 39.3034C295.058 38.0792 293.15 37.6033 290.844 37.397C289.845 37.2938 290.524 32.8761 290.319 31.7551C287.04 13.7621 260.876 10.8765 249.387 22.5069C248.683 15.7316 241.716 14.5352 236.58 18.5911C236.12 13.8392 230.805 14.6121 228 18.1014C227.181 9.5753 221.417 3.58538 212.593 3.05876C204.576 2.58295 198.082 7.96623 196.406 15.4483C191.667 11.1075 185.404 14.9971 183.394 20.6652C180.87 17.4193 177.079 17.9212 173.698 20.3942C170.804 3.99805 151.58 9.20117 143.716 20.02C142.167 12.9876 134.842 10.1282 128.412 13.7868C127.529 9.97421 124.698 6.75437 120.421 9.27969C119.717 9.69237 117.104 4.50162 116.271 3.49611C114.734 1.62829 111.993 0.225462 109.612 0.0453012C102.722 -0.470543 95.9345 3.4576 93.1676 9.85868C91.0806 14.6753 92.2458 20.2648 92.5781 25.6235C90.7729 22.533 87.4043 21.0256 82.8827 21.6954C81.0897 21.9525 79.3993 22.8934 77.8742 23.8204C75.6204 25.1985 76.6447 24.31 74.2377 23.2275C71.0483 21.7847 67.8848 22.2866 65.0813 24.4763C63.1857 25.9699 62.9805 27.6961 61.483 25.6481C60.869 24.8104 59.8569 24.4763 58.9474 24.1021C55.758 22.8272 51.9545 25.2739 49.6118 27.0909C43.3616 31.9337 42.8502 40.7816 44.6171 48.1481C43.5667 47.466 42.2729 47.1304 40.6468 47.1304C39.5582 47.1427 33.6156 50.0545 34.2557 50.8136C30.3236 46.1263 24.228 47.1565 22.6907 52.5013C19.0526 49.3077 12.7136 48.0712 9.49965 52.6168C8.68047 53.7763 8.07871 59.7 7.80922 59.8294C5.29963 61.1567 3.378 63.5896 3.31369 66.5785C3.27541 68.0721 3.42855 69.2577 3.83891 70.6744C4.1727 71.8077 5.65791 72.9287 5.06841 73.0319C2.43019 73.4954 0.393739 76.3287 0.0997538 78.8663C-0.912353 87.8173 5.93964 92.751 13.2786 95.8291C9.69255 97.4259 7.61781 100.504 7.28555 104.755C7.04209 107.86 7.00382 107.01 4.19871 108.58C2.31537 109.637 1.27877 111.632 0.510117 113.553C0.0109538 114.775 0.0109538 116.914 0.701514 118.073C2.04588 120.34 1.17616 120.676 0.369233 122.993C-0.22027 124.693 0.125779 127.423 1.02305 128.919C1.48393 129.704 4.6351 132.46 4.40389 133.039C2.94315 136.696 6.27344 139.57 9.16737 140.895C11.2804 141.849 13.6752 142.029 15.9428 142.016C16.8141 142.004 17.6976 141.81 18.5428 141.656C17.4281 141.862 17.5567 144.967 17.4924 145.777C17.082 150.775 19.9254 155.398 23.9861 158C28.4051 160.833 33.6049 158.528 37.2415 155.579C37.9075 158.631 39.7265 161.323 43.2482 161.62C45.375 161.8 47.5126 161.581 49.4725 160.655C51.8672 159.521 52.1872 157.924 53.9802 160.011C57.7454 164.376 65.4166 160.011 66.1087 154.949C73.4982 158.402 84.2944 157.951 92.0942 161.016C92.1463 162.239 92.1968 163.439 92.2734 164.572C92.5551 168.629 94.0664 172.764 95.5655 176.498C101.637 191.631 115.135 202.037 124.177 215.2C137.394 234.468 138.328 262.017 129.339 283.139C129.083 283.177 128.839 283.216 128.596 283.281C128.467 283.307 128.378 283.487 128.455 283.603C128.596 283.797 128.763 283.951 128.942 284.092C128.711 284.801 129.672 285.379 130.043 284.685C132.361 285.458 135.935 284.594 137.791 284.363C143.516 283.629 149.547 281.955 155.31 283.036C155.848 283.139 156.232 282.779 156.347 282.378C156.77 282.417 157.218 282.107 157.025 281.605C151.276 266.162 147.805 249.638 148.01 233.114C148.112 225.155 149.354 217.196 153.157 210.125C156.629 203.659 162.43 198.933 167.502 193.807C175.044 186.196 180.783 178.52 183.959 169.04C203.694 159.47 236.109 164.661 249.595 146.411C250.761 146.385 251.94 145.909 252.989 145.045C253.194 148.02 256.715 150.493 259.392 150.777C261.173 150.957 263.004 150.352 264.093 149.154C266.103 153.456 273.045 152.102 275.247 147.543C277.489 152.141 281.51 155.361 287.056 153.468C292.101 151.742 292.96 146.681 291.577 142.314C294.958 143.615 298.25 142.146 300.44 138.462C303.436 133.44 301.156 127.927 296.968 124.76C303.526 121.153 307.342 114.623 301.848 107.874C300.542 106.277 298.556 105.22 296.763 104.32C295.636 103.753 296.174 100.907 295.995 99.8126C295.584 97.1087 293.164 95.7813 290.73 95.2532C293.036 93.0897 293.139 90.2179 291.217 87.4616C295.393 86.4053 299.824 83.0316 298.069 79.1666C309.761 80.2229 317.241 62.4747 303.896 59.6276ZM148.149 35.2213C147.765 34.8348 147.431 34.3713 147.151 33.7908C147.048 33.5721 147.177 33.392 147.356 33.3396C147.471 33.1595 147.688 33.03 147.893 33.03C148.034 33.03 148.163 33.0809 148.278 33.2102C150.519 32.2062 152.759 31.2008 155.015 30.1968C155.041 29.6686 155.731 29.4499 156.001 29.9258C157.756 30.4277 159.498 30.9297 161.239 31.4333C161.559 31.2654 161.956 31.4071 162.058 31.7674C163.851 38.6319 170.102 34.1634 171.702 31.6257C171.983 31.1884 172.816 31.3163 172.764 31.9091C174.225 33.4412 175.696 34.9873 177.169 36.5194C177.515 36.3777 177.861 36.738 177.874 37.0598C180.013 38.5534 182.138 40.0487 184.277 41.5285C184.853 41.3606 185.571 41.3097 186.493 41.4514C187.364 41.5807 187.159 43.0744 186.275 43.0097C181.613 42.6232 185.661 49.6171 186.134 50.3763C186.621 51.1616 185.442 52.1148 184.841 51.3803C182.253 48.4562 179.462 48.0696 176.439 50.2084C175.914 50.5179 175.236 50.1315 175.222 49.5125C173.211 47.8772 171.187 46.2541 169.177 44.6188C168.601 44.9145 168.05 44.5419 167.973 43.9229C166.013 43.2531 164.041 42.5832 162.081 41.9134C161.685 42.2737 161.133 42.1705 160.839 41.7456C157.766 41.938 156.831 43.3161 158.01 45.8661C158.151 46.5236 157.472 47.1288 156.857 46.7546C154.333 47.2951 151.81 47.8233 149.288 48.3653C148.699 48.8796 147.7 48.4037 147.93 47.5661C147.187 46.3558 146.457 45.1316 145.727 43.909C144.869 43.8058 144.485 42.44 145.495 42.2598C150.121 41.416 149.738 38.1069 148.149 35.2213ZM260.378 109.936C257.061 108.39 253.822 110.039 253.129 113.58C252.335 112.344 251.286 111.21 249.94 110.85C247.25 110.116 246.7 110.992 245.06 108.661C243.831 106.896 242.307 106.149 240.731 106.175C241.973 104.192 240.462 101.306 238.106 99.671C239.77 99.1166 240.923 98.0095 241.538 96.3865C243.114 100.276 246.444 105.016 248.749 102.891C249.004 105.234 250.043 107.566 252.848 106.574C256.14 105.415 257.074 102.62 256.741 99.7218C258.432 100.444 260.43 99.5031 261.66 97.4936C262.235 99.1936 263.223 100.663 264.63 101.513C261.018 101.822 259.456 106.111 260.378 109.936ZM143.488 208.026C135.189 185.783 138.314 161.132 129.822 138.76C127.722 133.221 125.673 127.734 124.393 121.938C123.125 116.156 123.817 111.597 125.854 106.56C128.133 107.564 131.259 106.534 133.73 104.769C133.615 105.967 133.909 107.165 134.921 108.169C137.239 110.501 139.032 107.526 140.838 110.578C142.54 113.463 146.152 111.956 146.985 109.535C147.857 110.282 148.984 110.901 149.636 111.274C151.966 112.613 154.196 113.089 156.77 112.047C157.615 111.711 158.293 111.209 158.857 110.63C159.971 110.308 160.432 109.098 160.547 107.552C161.034 105.84 161.084 103.881 160.893 102.013C163.545 105.324 169.039 105.516 170.562 101.756C172.675 104.28 176.71 103.83 178.746 100.894C179.36 102.555 180.463 103.881 181.821 104.809C180.04 108.454 178.426 112.151 177.313 116.027C173.906 127.825 178.12 138.966 181.565 150.131C181.36 151.882 181.169 153.622 180.938 155.308C179.336 166.965 173.945 177.628 166.491 186.579C159.728 194.696 150.3 199.925 143.488 208.026ZM78.9522 154.511C75.6219 154.434 72.728 153.507 70.1403 152.064C72.0359 150.028 72.1507 145.92 69.7437 143.461C74.201 142.675 77.0045 138.992 75.2253 134.522C75.3018 134.534 75.3784 134.534 75.4565 134.534C75.6617 134.702 75.8531 134.882 76.0583 135.05C80.4007 138.553 85.1519 141.271 88.5067 145.869C90.364 148.407 91.197 151.562 91.6319 154.832C87.5084 154.15 83.2426 154.601 78.9522 154.511ZM79.7606 128.443C79.6581 127.115 79.2998 125.737 78.724 124.527C83.5013 124.901 85.4597 121.398 84.6145 117.108C87.4579 118.666 93.2074 116.993 94.8733 112.703C98.1898 116.58 104.466 113.308 103.927 107.924C108.371 109.922 113.776 109.045 115.684 104.486C116.311 105.336 117.042 105.98 117.797 106.405C117.784 106.572 117.758 106.753 117.732 106.921C116.734 111.956 115.772 116.489 115.581 121.668C115.158 133.079 118.117 142.751 122.548 153.106C125.673 160.396 128.349 167.995 128.106 176.031C128.003 179.419 126.864 182.728 125.749 185.871C124.981 187.828 124.148 189.76 123.252 191.654C122.33 193.69 120.576 190.367 119.922 189.657C116.08 185.511 112.289 182.265 109.51 177.126C106.59 171.755 105.513 165.753 104.463 159.803C102.914 151.083 98.6232 144.012 92.0667 138.204C88.0719 134.651 83.832 131.638 79.7606 128.443ZM186.122 106.355C189.145 106.613 192.206 105.299 193.652 102.105C195.279 104.629 198.289 104.643 199.877 102.067C200.915 104.488 202.861 107.258 204.449 104.617C202.668 107.566 202.425 111.739 202.271 115.1C202.233 116.053 202.271 116.98 202.386 117.856C197.456 119.724 192.679 121.295 188.914 126.01C185.635 130.08 183.983 135.013 182.971 140.138C175.134 129.59 180.282 118.089 186.122 106.355ZM186.213 159.175C187.571 148.91 187.647 139.405 193.358 130.351C195.856 126.396 199.531 123.692 203.438 121.296C204.515 123.19 206.358 123.923 208.984 122.327C209.419 126.293 212.48 126.449 215.579 124.567C213.85 130.247 218.167 134.343 223.763 131.626C223.52 134.433 224.019 137.64 227.17 138.464C229.438 139.057 231.307 138.476 233.151 138.219C232.37 142.997 232.305 148.174 230.307 152.412C224.274 154.601 217.897 155.915 211.993 156.534C205.936 157.151 199.852 157.538 193.807 158.428C191.36 158.788 188.492 159.213 186.046 160.296C186.096 159.92 186.16 159.547 186.213 159.175ZM235.455 135.566C235.443 135.578 235.429 135.578 235.417 135.578C235.264 135.669 235.109 135.746 234.944 135.823C235.597 133.53 236.582 131.444 238.272 129.77C237.107 131.598 236.159 133.557 235.455 135.566ZM236.608 149.694C235.429 145.985 235.391 142.095 236.238 138.373C236.686 138.515 237.147 138.721 237.62 139.017C239.043 139.905 241.218 139.069 242.589 138.592C243.382 138.308 244.394 142.404 244.958 143.382C245.086 143.601 245.213 143.807 245.354 144.001C242.717 146.217 239.759 148.111 236.608 149.694ZM39.8399 100.264C36.8051 99.3368 32.5653 99.092 32.5653 102.723C32.5653 103.753 34.0628 105.659 33.781 105.775C32.0003 106.548 31.3342 107.487 31.2331 109.407C31.1566 110.605 32.0523 112.113 33.0522 113.091C32.9496 113.129 32.8348 113.18 32.7199 113.245C32.2468 113.297 31.7982 113.463 31.3878 113.747C30.8504 113.979 30.3374 114.378 30.0051 114.841C28.353 117.108 29.7739 119.466 27.0591 117.804C25.8036 117.031 24.5495 117.07 23.3843 117.508C24.0121 115.756 23.7932 114.07 22.7183 112.536C26.612 111.595 28.9165 105.955 24.2556 104.666C24.8711 104.834 25.306 104.743 26.3043 103.444C27.1755 102.284 26.7529 100.533 26.4329 99.2968C26.3426 98.9226 26.2538 98.6532 26.1634 98.4468C27.2521 98.4345 27.9181 98.125 28.9165 97.3258C29.9148 96.5266 30.1843 94.8266 30.3512 93.6933C30.4278 93.2421 30.4155 92.7787 30.3389 92.3275C31.939 93.0235 33.9892 91.941 34.9876 90.6013C35.8588 89.4156 36.4866 88.2315 36.9857 86.9565C37.1128 87.4462 37.2797 87.9221 37.5492 88.3732C37.6641 88.5534 37.7789 88.7089 37.8953 88.889C38.6517 90.2934 39.7909 91.4513 41.1092 92.1612C41.2379 92.3028 41.3527 92.4322 41.4813 92.5739C41.2899 92.831 41.123 93.1021 40.9821 93.3854C39.2764 95.3949 38.5843 97.894 39.8399 100.264ZM248.672 144.891C248.288 144.75 247.942 144.531 247.61 144.26C248.839 143.127 250.004 141.941 251.067 140.666C250.375 142.198 249.568 143.602 248.672 144.891Z" stroke="white" stroke-width="2" mask="url(#path-1-inside-1_1621_18055)"/>
</svg>
