<svg width="260" height="300" viewBox="0 0 260 300" fill="none" xmlns="http://www.w3.org/2000/svg">
<mask id="path-1-inside-1_1545_12820" fill="white">
<path d="M434.834 84.9432C440.607 78.5576 444.602 66.0827 434.1 62.8888C432.506 62.3931 429.482 63.6786 428.823 61.7877C428.054 59.5678 427.118 57.2931 425.01 55.9901C422.189 54.2462 419.459 53.5683 416.159 53.2743C414.731 53.1274 415.701 46.834 415.408 45.237C410.717 19.605 373.279 15.4942 356.84 32.0624C355.832 22.4106 345.864 20.7063 338.515 26.4842C337.856 19.7148 330.251 20.8158 326.238 25.7865C325.065 13.6406 316.819 5.10759 304.193 4.35738C292.721 3.67957 283.429 11.3484 281.03 22.007C274.25 15.8233 265.289 21.3643 262.412 29.4389C258.801 24.8148 253.377 25.5299 248.539 29.0528C244.398 5.69546 216.892 13.1076 205.639 28.5198C203.422 18.5017 192.941 14.4282 183.741 19.6402C182.477 14.2089 178.426 9.62201 172.307 13.2195C171.299 13.8074 167.561 6.41284 166.369 4.98042C164.17 2.3196 160.248 0.321184 156.841 0.0645343C146.982 -0.670317 137.27 4.92556 133.311 14.0443C130.324 20.9058 131.992 28.8685 132.467 36.5022C129.884 32.0997 125.064 29.9522 118.594 30.9064C116.029 31.2728 113.61 32.613 111.428 33.9336C108.203 35.8968 109.668 34.6311 106.224 33.089C101.661 31.0336 97.1343 31.7487 93.1227 34.868C90.4104 36.9958 90.1168 39.4547 87.9741 36.5373C87.0956 35.3439 85.6474 34.868 84.346 34.335C79.7823 32.5187 74.34 36.0042 70.988 38.5927C62.0447 45.4915 61.3129 58.0958 63.8412 68.59C62.3383 67.6182 60.487 67.1401 58.1602 67.1401C56.6025 67.1576 48.0996 71.3056 49.0154 72.3871C43.3891 65.7098 34.6671 67.1773 32.4674 74.7913C27.2618 70.2418 18.1915 68.4804 13.5927 74.9558C12.4206 76.6076 11.5596 85.0464 11.174 85.2306C7.58307 87.1215 4.83347 90.5874 4.74145 94.8451C4.68668 96.9729 4.90581 98.6619 5.49297 100.68C5.97059 102.294 8.09572 103.891 7.25222 104.038C3.47729 104.699 0.563389 108.735 0.142734 112.35C-1.30546 125.101 8.49885 132.129 18.9999 136.514C13.8688 138.789 10.9001 143.174 10.4247 149.231C10.0763 153.653 10.0215 152.442 6.0078 154.68C3.31298 156.184 1.82975 159.027 0.72991 161.763C0.0156735 163.504 0.0156735 166.551 1.00377 168.203C2.92739 171.432 1.68293 171.91 0.528323 175.211C-0.315177 177.633 0.179973 181.522 1.46385 183.652C2.12331 184.771 6.63222 188.698 6.30139 189.522C4.21126 194.732 8.97647 198.826 13.1173 200.714C16.1407 202.072 19.5674 202.329 22.8121 202.311C24.0587 202.293 25.3229 202.017 26.5323 201.798C24.9373 202.092 25.1213 206.514 25.0293 207.668C24.4421 214.788 28.5106 221.373 34.3209 225.08C40.6439 229.117 48.0842 225.833 53.2877 221.632C54.2407 225.98 56.8434 229.814 61.8825 230.238C64.9257 230.494 67.9842 230.183 70.7886 228.862C74.2152 227.248 74.6731 224.973 77.2386 227.945C82.6261 234.164 93.6026 227.945 94.5928 220.735C105.166 225.653 120.614 225.01 131.775 229.378C131.849 231.119 131.922 232.828 132.031 234.443C132.434 240.223 134.597 246.113 136.742 251.432C145.429 272.991 164.744 287.815 177.681 306.566C196.593 334.014 197.929 373.259 185.066 403.349C184.701 403.404 184.352 403.459 184.004 403.551C183.82 403.588 183.693 403.845 183.802 404.009C184.004 404.286 184.243 404.505 184.499 404.707C184.168 405.716 185.544 406.54 186.074 405.551C189.391 406.652 194.505 405.422 197.16 405.093C205.352 404.046 213.982 401.662 222.229 403.202C222.998 403.349 223.548 402.836 223.712 402.265C224.317 402.32 224.958 401.879 224.682 401.164C216.456 379.165 211.489 355.625 211.782 332.086C211.929 320.747 213.706 309.409 219.148 299.336C224.115 290.125 232.416 283.393 239.673 276.09C250.465 265.247 258.677 254.312 263.22 240.808C291.459 227.175 337.841 234.57 357.138 208.572C358.805 208.534 360.492 207.856 361.993 206.626C362.287 210.864 367.326 214.387 371.156 214.79C373.704 215.047 376.324 214.185 377.882 212.478C380.758 218.607 390.692 216.679 393.843 210.184C397.05 216.734 402.803 221.321 410.739 218.625C417.958 216.166 419.187 208.955 417.209 202.734C422.046 204.588 426.757 202.495 429.89 197.248C434.177 190.093 430.915 182.24 424.923 177.728C434.306 172.59 439.766 163.287 431.905 153.673C430.036 151.398 427.195 149.893 424.629 148.61C423.017 147.803 423.786 143.749 423.529 142.189C422.942 138.337 419.478 136.446 415.997 135.694C419.297 132.612 419.443 128.521 416.694 124.594C422.668 123.09 429.009 118.284 426.498 112.778C443.228 114.282 453.93 88.9991 434.834 84.9432ZM211.982 50.1749C211.432 49.6243 210.954 48.964 210.553 48.137C210.406 47.8255 210.59 47.5689 210.847 47.4944C211.011 47.2377 211.322 47.0533 211.616 47.0533C211.817 47.0533 212.001 47.1257 212.166 47.31C215.373 45.8798 218.579 44.4474 221.806 43.0172C221.843 42.2648 222.831 41.9533 223.217 42.6311C225.727 43.3462 228.221 44.0613 230.712 44.7786C231.17 44.5395 231.737 44.7413 231.884 45.2546C234.45 55.0336 243.393 48.6678 245.682 45.0528C246.085 44.4298 247.277 44.6119 247.203 45.4565C249.293 47.6391 251.398 49.8415 253.506 52.0241C254.001 51.8223 254.496 52.3355 254.514 52.794C257.575 54.9217 260.616 57.0518 263.676 59.1598C264.5 58.9207 265.528 58.8482 266.846 59.05C268.093 59.2343 267.799 61.3621 266.535 61.27C259.864 60.7194 265.657 70.6827 266.334 71.7641C267.031 72.8828 265.344 74.2408 264.482 73.1944C260.78 69.0288 256.786 68.4781 252.461 71.525C251.71 71.9659 250.739 71.4154 250.719 70.5336C247.843 68.204 244.946 65.8919 242.069 63.5623C241.246 63.9834 240.457 63.4527 240.347 62.5708C237.543 61.6166 234.721 60.6624 231.917 59.7082C231.349 60.2215 230.561 60.0745 230.14 59.4691C225.743 59.7433 224.404 61.7065 226.091 65.3391C226.293 66.2757 225.322 67.1379 224.441 66.6048C220.831 67.3748 217.22 68.1272 213.612 68.8994C212.768 69.632 211.34 68.9541 211.668 67.7608C210.606 66.0366 209.561 64.2927 208.516 62.551C207.289 62.4041 206.739 60.4584 208.185 60.2017C214.804 58.9996 214.256 54.2857 211.982 50.1749ZM372.567 156.61C367.821 154.408 363.185 156.757 362.195 161.802C361.058 160.041 359.557 158.426 357.631 157.913C353.782 156.867 352.995 158.115 350.649 154.794C348.889 152.28 346.709 151.216 344.455 151.253C346.232 148.428 344.069 144.317 340.698 141.987C343.079 141.198 344.729 139.621 345.61 137.308C347.864 142.849 352.629 149.601 355.927 146.574C356.293 149.913 357.778 153.234 361.792 151.821C366.502 150.17 367.839 146.188 367.363 142.06C369.782 143.089 372.641 141.748 374.4 138.886C375.224 141.307 376.637 143.4 378.651 144.611C373.482 145.052 371.248 151.161 372.567 156.61ZM205.313 296.346C193.438 264.659 197.91 229.542 185.759 197.672C182.753 189.781 179.821 181.966 177.99 173.709C176.176 165.472 177.166 158.977 180.08 151.802C183.342 153.232 187.814 151.764 191.35 149.25C191.186 150.957 191.606 152.664 193.054 154.094C196.371 157.415 198.937 153.177 201.52 157.525C203.956 161.635 209.125 159.488 210.317 156.04C211.563 157.103 213.176 157.985 214.109 158.516C217.444 160.425 220.634 161.102 224.317 159.617C225.526 159.139 226.497 158.424 227.303 157.599C228.898 157.141 229.557 155.417 229.722 153.214C230.418 150.775 230.491 147.985 230.217 145.324C234.011 150.04 241.872 150.314 244.052 144.958C247.076 148.553 252.849 147.912 255.763 143.729C256.641 146.096 258.219 147.985 260.162 149.307C257.614 154.5 255.305 159.766 253.712 165.288C248.837 182.095 254.867 197.966 259.796 213.871C259.503 216.365 259.229 218.844 258.898 221.246C256.606 237.852 248.892 253.042 238.227 265.793C228.549 277.356 215.06 284.805 205.313 296.346ZM112.97 220.11C108.205 220 104.064 218.68 100.362 216.624C103.074 213.724 103.238 207.872 99.7941 204.369C106.172 203.25 110.183 198.003 107.637 191.635C107.747 191.652 107.857 191.652 107.968 191.652C108.262 191.891 108.536 192.148 108.829 192.387C115.043 197.378 121.841 201.249 126.641 207.799C129.299 211.414 130.491 215.909 131.113 220.568C125.213 219.596 119.109 220.239 112.97 220.11ZM114.127 182.975C113.98 181.084 113.467 179.12 112.644 177.396C119.479 177.929 122.282 172.939 121.072 166.828C125.141 169.048 133.368 166.663 135.751 160.552C140.497 166.075 149.477 161.414 148.706 153.745C155.064 156.59 162.798 155.342 165.528 148.847C166.426 150.058 167.471 150.975 168.551 151.58C168.534 151.819 168.497 152.076 168.459 152.315C167.031 159.488 165.655 165.946 165.381 173.323C164.776 189.58 169.009 203.357 175.35 218.109C179.821 228.494 183.651 239.319 183.303 250.767C183.156 255.593 181.526 260.307 179.931 264.784C178.831 267.572 177.639 270.325 176.358 273.024C175.039 275.923 172.528 271.19 171.592 270.178C166.095 264.271 160.671 259.647 156.694 252.327C152.516 244.676 150.976 236.125 149.473 227.649C147.256 215.227 141.117 205.154 131.735 196.88C126.019 191.819 119.953 187.526 114.127 182.975ZM266.316 151.51C270.641 151.876 275.021 150.005 277.091 145.455C279.418 149.051 283.725 149.071 285.997 145.401C287.483 148.849 290.267 152.795 292.539 149.033C289.991 153.234 289.643 159.179 289.424 163.967C289.369 165.325 289.424 166.646 289.588 167.894C282.533 170.554 275.698 172.792 270.31 179.509C265.62 185.306 263.256 192.335 261.807 199.635C250.594 184.609 257.96 168.225 266.316 151.51ZM266.446 226.754C268.389 212.132 268.498 198.591 276.671 185.692C280.244 180.059 285.502 176.207 291.093 172.794C292.633 175.492 295.271 176.536 299.029 174.262C299.651 179.912 304.031 180.134 308.465 177.453C305.991 185.546 312.168 191.38 320.175 187.509C319.827 191.508 320.541 196.077 325.05 197.25C328.295 198.095 330.97 197.268 333.608 196.902C332.491 203.708 332.398 211.083 329.539 217.12C320.907 220.239 311.782 222.11 303.334 222.992C294.667 223.872 285.962 224.422 277.312 225.69C273.811 226.204 269.708 226.809 266.207 228.351C266.279 227.816 266.371 227.285 266.446 226.754ZM336.905 193.122C336.888 193.14 336.868 193.14 336.85 193.14C336.631 193.269 336.41 193.379 336.173 193.488C337.109 190.222 338.518 187.25 340.936 184.865C339.269 187.469 337.913 190.26 336.905 193.122ZM338.555 213.248C336.868 207.964 336.813 202.423 338.025 197.121C338.667 197.323 339.326 197.617 340.003 198.038C342.039 199.304 345.152 198.113 347.113 197.432C348.248 197.029 349.696 202.864 350.502 204.257C350.686 204.568 350.868 204.862 351.069 205.139C347.297 208.295 343.064 210.993 338.555 213.248ZM57.0056 142.832C52.6632 141.511 46.5966 141.163 46.5966 146.335C46.5966 147.803 48.7393 150.518 48.3362 150.683C45.7882 151.784 44.8351 153.122 44.6905 155.857C44.581 157.564 45.8626 159.712 47.2933 161.105C47.1465 161.159 46.9822 161.232 46.8179 161.324C46.1409 161.398 45.499 161.635 44.9118 162.039C44.1428 162.37 43.4088 162.938 42.9334 163.599C40.5694 166.828 42.6025 170.186 38.7181 167.819C36.9215 166.718 35.1272 166.773 33.4599 167.398C34.3582 164.902 34.0449 162.5 32.5068 160.315C38.0783 158.974 41.3756 150.939 34.7065 149.103C35.5873 149.343 36.2095 149.213 37.638 147.362C38.8846 145.71 38.2799 143.216 37.822 141.454C37.6927 140.921 37.5657 140.537 37.4364 140.244C38.9941 140.226 39.9472 139.785 41.3757 138.647C42.8041 137.508 43.1898 135.086 43.4286 133.472C43.5381 132.829 43.5205 132.169 43.411 131.526C45.7005 132.518 48.6341 130.976 50.0626 129.067C51.3092 127.378 52.2075 125.691 52.9217 123.875C53.1036 124.572 53.3424 125.25 53.728 125.893C53.8923 126.15 54.0567 126.371 54.2232 126.628C55.3055 128.628 56.9355 130.278 58.8219 131.289C59.0059 131.491 59.1702 131.675 59.3542 131.877C59.0804 132.243 58.8416 132.63 58.64 133.033C56.1994 135.896 55.2091 139.456 57.0056 142.832ZM355.817 206.406C355.267 206.205 354.772 205.893 354.297 205.507C356.056 203.893 357.723 202.204 359.244 200.387C358.253 202.57 357.099 204.57 355.817 206.406Z"/>
</mask>
<path d="M434.834 84.9432C440.607 78.5576 444.602 66.0827 434.1 62.8888C432.506 62.3931 429.482 63.6786 428.823 61.7877C428.054 59.5678 427.118 57.2931 425.01 55.9901C422.189 54.2462 419.459 53.5683 416.159 53.2743C414.731 53.1274 415.701 46.834 415.408 45.237C410.717 19.605 373.279 15.4942 356.84 32.0624C355.832 22.4106 345.864 20.7063 338.515 26.4842C337.856 19.7148 330.251 20.8158 326.238 25.7865C325.065 13.6406 316.819 5.10759 304.193 4.35738C292.721 3.67957 283.429 11.3484 281.03 22.007C274.25 15.8233 265.289 21.3643 262.412 29.4389C258.801 24.8148 253.377 25.5299 248.539 29.0528C244.398 5.69546 216.892 13.1076 205.639 28.5198C203.422 18.5017 192.941 14.4282 183.741 19.6402C182.477 14.2089 178.426 9.62201 172.307 13.2195C171.299 13.8074 167.561 6.41284 166.369 4.98042C164.17 2.3196 160.248 0.321184 156.841 0.0645343C146.982 -0.670317 137.27 4.92556 133.311 14.0443C130.324 20.9058 131.992 28.8685 132.467 36.5022C129.884 32.0997 125.064 29.9522 118.594 30.9064C116.029 31.2728 113.61 32.613 111.428 33.9336C108.203 35.8968 109.668 34.6311 106.224 33.089C101.661 31.0336 97.1343 31.7487 93.1227 34.868C90.4104 36.9958 90.1168 39.4547 87.9741 36.5373C87.0956 35.3439 85.6474 34.868 84.346 34.335C79.7823 32.5187 74.34 36.0042 70.988 38.5927C62.0447 45.4915 61.3129 58.0958 63.8412 68.59C62.3383 67.6182 60.487 67.1401 58.1602 67.1401C56.6025 67.1576 48.0996 71.3056 49.0154 72.3871C43.3891 65.7098 34.6671 67.1773 32.4674 74.7913C27.2618 70.2418 18.1915 68.4804 13.5927 74.9558C12.4206 76.6076 11.5596 85.0464 11.174 85.2306C7.58307 87.1215 4.83347 90.5874 4.74145 94.8451C4.68668 96.9729 4.90581 98.6619 5.49297 100.68C5.97059 102.294 8.09572 103.891 7.25222 104.038C3.47729 104.699 0.563389 108.735 0.142734 112.35C-1.30546 125.101 8.49885 132.129 18.9999 136.514C13.8688 138.789 10.9001 143.174 10.4247 149.231C10.0763 153.653 10.0215 152.442 6.0078 154.68C3.31298 156.184 1.82975 159.027 0.72991 161.763C0.0156735 163.504 0.0156735 166.551 1.00377 168.203C2.92739 171.432 1.68293 171.91 0.528323 175.211C-0.315177 177.633 0.179973 181.522 1.46385 183.652C2.12331 184.771 6.63222 188.698 6.30139 189.522C4.21126 194.732 8.97647 198.826 13.1173 200.714C16.1407 202.072 19.5674 202.329 22.8121 202.311C24.0587 202.293 25.3229 202.017 26.5323 201.798C24.9373 202.092 25.1213 206.514 25.0293 207.668C24.4421 214.788 28.5106 221.373 34.3209 225.08C40.6439 229.117 48.0842 225.833 53.2877 221.632C54.2407 225.98 56.8434 229.814 61.8825 230.238C64.9257 230.494 67.9842 230.183 70.7886 228.862C74.2152 227.248 74.6731 224.973 77.2386 227.945C82.6261 234.164 93.6026 227.945 94.5928 220.735C105.166 225.653 120.614 225.01 131.775 229.378C131.849 231.119 131.922 232.828 132.031 234.443C132.434 240.223 134.597 246.113 136.742 251.432C145.429 272.991 164.744 287.815 177.681 306.566C196.593 334.014 197.929 373.259 185.066 403.349C184.701 403.404 184.352 403.459 184.004 403.551C183.82 403.588 183.693 403.845 183.802 404.009C184.004 404.286 184.243 404.505 184.499 404.707C184.168 405.716 185.544 406.54 186.074 405.551C189.391 406.652 194.505 405.422 197.16 405.093C205.352 404.046 213.982 401.662 222.229 403.202C222.998 403.349 223.548 402.836 223.712 402.265C224.317 402.32 224.958 401.879 224.682 401.164C216.456 379.165 211.489 355.625 211.782 332.086C211.929 320.747 213.706 309.409 219.148 299.336C224.115 290.125 232.416 283.393 239.673 276.09C250.465 265.247 258.677 254.312 263.22 240.808C291.459 227.175 337.841 234.57 357.138 208.572C358.805 208.534 360.492 207.856 361.993 206.626C362.287 210.864 367.326 214.387 371.156 214.79C373.704 215.047 376.324 214.185 377.882 212.478C380.758 218.607 390.692 216.679 393.843 210.184C397.05 216.734 402.803 221.321 410.739 218.625C417.958 216.166 419.187 208.955 417.209 202.734C422.046 204.588 426.757 202.495 429.89 197.248C434.177 190.093 430.915 182.24 424.923 177.728C434.306 172.59 439.766 163.287 431.905 153.673C430.036 151.398 427.195 149.893 424.629 148.61C423.017 147.803 423.786 143.749 423.529 142.189C422.942 138.337 419.478 136.446 415.997 135.694C419.297 132.612 419.443 128.521 416.694 124.594C422.668 123.09 429.009 118.284 426.498 112.778C443.228 114.282 453.93 88.9991 434.834 84.9432ZM211.982 50.1749C211.432 49.6243 210.954 48.964 210.553 48.137C210.406 47.8255 210.59 47.5689 210.847 47.4944C211.011 47.2377 211.322 47.0533 211.616 47.0533C211.817 47.0533 212.001 47.1257 212.166 47.31C215.373 45.8798 218.579 44.4474 221.806 43.0172C221.843 42.2648 222.831 41.9533 223.217 42.6311C225.727 43.3462 228.221 44.0613 230.712 44.7786C231.17 44.5395 231.737 44.7413 231.884 45.2546C234.45 55.0336 243.393 48.6678 245.682 45.0528C246.085 44.4298 247.277 44.6119 247.203 45.4565C249.293 47.6391 251.398 49.8415 253.506 52.0241C254.001 51.8223 254.496 52.3355 254.514 52.794C257.575 54.9217 260.616 57.0518 263.676 59.1598C264.5 58.9207 265.528 58.8482 266.846 59.05C268.093 59.2343 267.799 61.3621 266.535 61.27C259.864 60.7194 265.657 70.6827 266.334 71.7641C267.031 72.8828 265.344 74.2408 264.482 73.1944C260.78 69.0288 256.786 68.4781 252.461 71.525C251.71 71.9659 250.739 71.4154 250.719 70.5336C247.843 68.204 244.946 65.8919 242.069 63.5623C241.246 63.9834 240.457 63.4527 240.347 62.5708C237.543 61.6166 234.721 60.6624 231.917 59.7082C231.349 60.2215 230.561 60.0745 230.14 59.4691C225.743 59.7433 224.404 61.7065 226.091 65.3391C226.293 66.2757 225.322 67.1379 224.441 66.6048C220.831 67.3748 217.22 68.1272 213.612 68.8994C212.768 69.632 211.34 68.9541 211.668 67.7608C210.606 66.0366 209.561 64.2927 208.516 62.551C207.289 62.4041 206.739 60.4584 208.185 60.2017C214.804 58.9996 214.256 54.2857 211.982 50.1749ZM372.567 156.61C367.821 154.408 363.185 156.757 362.195 161.802C361.058 160.041 359.557 158.426 357.631 157.913C353.782 156.867 352.995 158.115 350.649 154.794C348.889 152.28 346.709 151.216 344.455 151.253C346.232 148.428 344.069 144.317 340.698 141.987C343.079 141.198 344.729 139.621 345.61 137.308C347.864 142.849 352.629 149.601 355.927 146.574C356.293 149.913 357.778 153.234 361.792 151.821C366.502 150.17 367.839 146.188 367.363 142.06C369.782 143.089 372.641 141.748 374.4 138.886C375.224 141.307 376.637 143.4 378.651 144.611C373.482 145.052 371.248 151.161 372.567 156.61ZM205.313 296.346C193.438 264.659 197.91 229.542 185.759 197.672C182.753 189.781 179.821 181.966 177.99 173.709C176.176 165.472 177.166 158.977 180.08 151.802C183.342 153.232 187.814 151.764 191.35 149.25C191.186 150.957 191.606 152.664 193.054 154.094C196.371 157.415 198.937 153.177 201.52 157.525C203.956 161.635 209.125 159.488 210.317 156.04C211.563 157.103 213.176 157.985 214.109 158.516C217.444 160.425 220.634 161.102 224.317 159.617C225.526 159.139 226.497 158.424 227.303 157.599C228.898 157.141 229.557 155.417 229.722 153.214C230.418 150.775 230.491 147.985 230.217 145.324C234.011 150.04 241.872 150.314 244.052 144.958C247.076 148.553 252.849 147.912 255.763 143.729C256.641 146.096 258.219 147.985 260.162 149.307C257.614 154.5 255.305 159.766 253.712 165.288C248.837 182.095 254.867 197.966 259.796 213.871C259.503 216.365 259.229 218.844 258.898 221.246C256.606 237.852 248.892 253.042 238.227 265.793C228.549 277.356 215.06 284.805 205.313 296.346ZM112.97 220.11C108.205 220 104.064 218.68 100.362 216.624C103.074 213.724 103.238 207.872 99.7941 204.369C106.172 203.25 110.183 198.003 107.637 191.635C107.747 191.652 107.857 191.652 107.968 191.652C108.262 191.891 108.536 192.148 108.829 192.387C115.043 197.378 121.841 201.249 126.641 207.799C129.299 211.414 130.491 215.909 131.113 220.568C125.213 219.596 119.109 220.239 112.97 220.11ZM114.127 182.975C113.98 181.084 113.467 179.12 112.644 177.396C119.479 177.929 122.282 172.939 121.072 166.828C125.141 169.048 133.368 166.663 135.751 160.552C140.497 166.075 149.477 161.414 148.706 153.745C155.064 156.59 162.798 155.342 165.528 148.847C166.426 150.058 167.471 150.975 168.551 151.58C168.534 151.819 168.497 152.076 168.459 152.315C167.031 159.488 165.655 165.946 165.381 173.323C164.776 189.58 169.009 203.357 175.35 218.109C179.821 228.494 183.651 239.319 183.303 250.767C183.156 255.593 181.526 260.307 179.931 264.784C178.831 267.572 177.639 270.325 176.358 273.024C175.039 275.923 172.528 271.19 171.592 270.178C166.095 264.271 160.671 259.647 156.694 252.327C152.516 244.676 150.976 236.125 149.473 227.649C147.256 215.227 141.117 205.154 131.735 196.88C126.019 191.819 119.953 187.526 114.127 182.975ZM266.316 151.51C270.641 151.876 275.021 150.005 277.091 145.455C279.418 149.051 283.725 149.071 285.997 145.401C287.483 148.849 290.267 152.795 292.539 149.033C289.991 153.234 289.643 159.179 289.424 163.967C289.369 165.325 289.424 166.646 289.588 167.894C282.533 170.554 275.698 172.792 270.31 179.509C265.62 185.306 263.256 192.335 261.807 199.635C250.594 184.609 257.96 168.225 266.316 151.51ZM266.446 226.754C268.389 212.132 268.498 198.591 276.671 185.692C280.244 180.059 285.502 176.207 291.093 172.794C292.633 175.492 295.271 176.536 299.029 174.262C299.651 179.912 304.031 180.134 308.465 177.453C305.991 185.546 312.168 191.38 320.175 187.509C319.827 191.508 320.541 196.077 325.05 197.25C328.295 198.095 330.97 197.268 333.608 196.902C332.491 203.708 332.398 211.083 329.539 217.12C320.907 220.239 311.782 222.11 303.334 222.992C294.667 223.872 285.962 224.422 277.312 225.69C273.811 226.204 269.708 226.809 266.207 228.351C266.279 227.816 266.371 227.285 266.446 226.754ZM336.905 193.122C336.888 193.14 336.868 193.14 336.85 193.14C336.631 193.269 336.41 193.379 336.173 193.488C337.109 190.222 338.518 187.25 340.936 184.865C339.269 187.469 337.913 190.26 336.905 193.122ZM338.555 213.248C336.868 207.964 336.813 202.423 338.025 197.121C338.667 197.323 339.326 197.617 340.003 198.038C342.039 199.304 345.152 198.113 347.113 197.432C348.248 197.029 349.696 202.864 350.502 204.257C350.686 204.568 350.868 204.862 351.069 205.139C347.297 208.295 343.064 210.993 338.555 213.248ZM57.0056 142.832C52.6632 141.511 46.5966 141.163 46.5966 146.335C46.5966 147.803 48.7393 150.518 48.3362 150.683C45.7882 151.784 44.8351 153.122 44.6905 155.857C44.581 157.564 45.8626 159.712 47.2933 161.105C47.1465 161.159 46.9822 161.232 46.8179 161.324C46.1409 161.398 45.499 161.635 44.9118 162.039C44.1428 162.37 43.4088 162.938 42.9334 163.599C40.5694 166.828 42.6025 170.186 38.7181 167.819C36.9215 166.718 35.1272 166.773 33.4599 167.398C34.3582 164.902 34.0449 162.5 32.5068 160.315C38.0783 158.974 41.3756 150.939 34.7065 149.103C35.5873 149.343 36.2095 149.213 37.638 147.362C38.8846 145.71 38.2799 143.216 37.822 141.454C37.6927 140.921 37.5657 140.537 37.4364 140.244C38.9941 140.226 39.9472 139.785 41.3757 138.647C42.8041 137.508 43.1898 135.086 43.4286 133.472C43.5381 132.829 43.5205 132.169 43.411 131.526C45.7005 132.518 48.6341 130.976 50.0626 129.067C51.3092 127.378 52.2075 125.691 52.9217 123.875C53.1036 124.572 53.3424 125.25 53.728 125.893C53.8923 126.15 54.0567 126.371 54.2232 126.628C55.3055 128.628 56.9355 130.278 58.8219 131.289C59.0059 131.491 59.1702 131.675 59.3542 131.877C59.0804 132.243 58.8416 132.63 58.64 133.033C56.1994 135.896 55.2091 139.456 57.0056 142.832ZM355.817 206.406C355.267 206.205 354.772 205.893 354.297 205.507C356.056 203.893 357.723 202.204 359.244 200.387C358.253 202.57 357.099 204.57 355.817 206.406Z" stroke="white" stroke-width="2" mask="url(#path-1-inside-1_1545_12820)"/>
</svg>
