<svg width="1440" height="1068" viewBox="0 0 1440 1068" fill="none" xmlns="http://www.w3.org/2000/svg">
<path d="M596.588 461.186C591.408 454.468 588.711 447.379 589.002 440.394C589.511 427.683 600.112 417.522 618.069 412.503L812.587 358.157C839.227 350.714 876.738 356.354 903.809 371.87C919.164 380.673 929.267 391.719 932.237 403.011L969.074 542.902C971.588 552.458 968.885 561.103 961.355 568.013C943.658 584.087 903.405 586.339 867.805 573.187L636.45 487.642C618.526 481.022 604.582 471.552 596.588 461.186ZM921.655 392.775C916.046 385.946 909.167 380.269 901.399 376.055C875.372 361.138 839.366 355.682 813.888 362.81L619.37 417.156C603.342 421.632 594.28 429.965 593.834 440.6C593.198 456.217 610.581 472.905 638.137 483.092L869.492 568.636C908.208 582.916 944.064 577.174 958.13 564.481C964.368 558.808 966.542 551.976 964.426 544.159L927.589 404.268C926.397 400.08 924.379 396.172 921.655 392.775Z" fill="#DD5D36" fill-opacity="0.14"/>
<path d="M575.597 471.457C570.963 465.857 568.243 458.92 567.836 451.663C567.481 438.195 577.32 427.176 595.504 420.657L796.67 348.526C843.158 331.856 916.454 354.217 929.586 389.068L985.894 538.781C987.862 543.468 988.389 548.634 987.407 553.622C986.426 558.609 983.981 563.191 980.384 566.783C963.216 585.157 920.712 590.108 881.53 578.294L624.115 500.788C602.001 494.068 584.881 483.497 575.597 471.457ZM919.766 381.615C899.102 354.818 837.506 339.043 798.251 353.125L597.124 425.306C581.052 431.079 572.35 440.398 572.643 451.627C573.094 468.914 594.306 486.822 625.432 496.201L882.915 573.795C925.696 586.686 963.189 578.097 976.823 563.57C979.805 560.64 981.832 556.878 982.639 552.776C983.446 548.674 982.995 544.424 981.345 540.583L924.956 390.894C923.701 387.558 921.952 384.43 919.766 381.615Z" fill="#DD5D36" fill-opacity="0.14"/>
<path d="M554.367 483.676C550.059 478.41 547.336 472.028 546.516 465.274C545.194 451.228 554.428 439.112 572.429 431.028L778.443 339.169C825.982 317.957 906.797 337.269 925.009 374.181L1003.4 533.306C1008.89 544.402 1007.86 555.187 1000.46 564.483C983.707 585.425 940.171 593.278 896.821 583.033L612.433 515.815C586.067 509.565 565.145 497.653 554.367 483.676ZM916.417 369.673C893.328 339.731 822.05 324.982 780.342 343.583L574.328 435.442C558.354 442.564 550.152 453.001 551.277 464.813C552.779 480.888 572.599 501.414 613.492 511.127L897.933 578.283C944.567 589.327 983.625 577.825 996.684 561.435C1002.79 553.74 1003.66 544.7 999.075 535.397L920.676 376.419C919.49 374.031 918.063 371.771 916.417 369.673Z" fill="#DD5D36" fill-opacity="0.14"/>
<path d="M533.208 498.664C529.194 493.679 526.481 487.774 525.314 481.48C522.912 466.842 531.322 453.475 549.026 443.835L757.809 330.201C805.936 304.002 894.424 319.502 918.29 358.334L1021.44 526.072C1028.78 538.008 1028.8 550.006 1021.51 560.765C1005.71 584.084 960.355 595.123 913.691 587.032L601.792 532.944C570.563 527.516 545.529 514.641 533.208 498.664ZM911.511 357.062C885.696 323.585 803.829 310.662 760.09 334.46L551.33 448.098C535.576 456.675 528.031 468.251 530.092 480.705C532.987 498.534 556.554 520.223 602.589 528.177L914.521 582.28C964.841 591.002 1005.14 576.319 1017.52 558.063C1023.65 549.001 1023.59 538.821 1017.33 528.622L914.177 360.884C913.363 359.566 912.481 358.291 911.533 357.065L911.511 357.062Z" fill="#DD5D36" fill-opacity="0.14"/>
<path d="M512.405 516.334C508.737 511.707 506.093 506.354 504.648 500.629C500.949 485.426 508.452 470.753 525.672 459.42L734.768 321.892C782.923 290.214 879.24 300.882 909.324 341.638L1039.89 517.201C1049.38 529.947 1050.67 543.298 1043.52 555.729C1028.79 581.395 981.983 595.962 932.24 590.406L592.528 552.309C556.061 548.231 526.424 534.513 512.405 516.334ZM904.929 343.744C876 306.228 782.636 296.112 737.429 325.837L528.233 463.443C512.846 473.563 506.106 486.364 509.247 499.49C514.854 522.891 549.307 542.646 593.008 547.545L932.746 585.522C987.022 591.595 1027.44 573.891 1039.29 553.256C1045.34 542.575 1044.28 531.111 1035.96 520.012L905.39 344.471L904.929 343.744Z" fill="#DD5D36" fill-opacity="0.14"/>
<path d="M492.234 536.823C488.927 532.611 486.379 527.855 484.706 522.768C479.634 506.877 485.957 490.908 502.512 477.801L709.056 314.254C756.576 276.627 860.546 281.974 897.597 323.959L1058.43 506.174C1070.29 519.622 1073.08 534.799 1066.3 548.919C1052.56 577.387 1005.71 595.38 952.348 592.653L584.916 574.047C542.938 571.851 508.183 557.505 492.234 536.823ZM1057.03 512.189C1056.32 511.271 1055.59 510.315 1054.75 509.414L893.976 327.173C859.019 287.565 757.013 282.448 712.056 318.039L505.511 481.587C490.431 493.536 484.829 507.265 489.313 521.301C497.563 547.038 537.027 566.76 585.219 569.159L952.661 587.778C1010.04 590.696 1051.11 569.361 1061.99 546.765C1067.46 535.341 1065.77 523.422 1057.08 512.15L1057.03 512.189Z" fill="#DD5D36" fill-opacity="0.14"/>
<path d="M472.815 559.821C470.079 556.321 467.834 552.464 466.141 548.357C459.389 531.797 464.342 514.416 480.067 499.4L680.709 307.724C726.842 263.643 838.406 262.473 883.022 305.606L1076.98 493.075C1091.73 507.339 1096.31 524.151 1089.84 540.395C1077.54 571.281 1029.97 593.282 974.153 593.873L579.555 598.081C532.256 598.584 490.927 583.309 472.815 559.821ZM1075.27 494.791L1073.6 496.523L879.643 309.055C837.422 268.247 727.734 269.456 684.032 311.201L483.438 502.94C469.043 516.688 464.635 531.784 470.651 546.584C482.079 574.645 526.854 593.842 579.551 593.289L974.116 588.987C1028.02 588.408 1073.77 567.668 1085.36 538.549C1091.16 524.051 1087.04 509.508 1073.64 496.494L1075.27 494.791Z" fill="#DD5D36" fill-opacity="0.14"/>
<path d="M454.987 586.388C452.857 583.641 450.996 580.696 449.429 577.593C440.726 560.351 444.042 541.444 458.742 524.371L649.666 302.533C693.543 251.545 812.418 242.79 865.255 286.646L1095.19 477.563C1113.28 492.587 1119.95 511.153 1113.97 529.851C1103.29 563.2 1055.42 589.465 997.552 593.723L576.681 624.631C523.482 628.54 475.573 613.084 454.987 586.388ZM1092.07 481.272L862.174 290.325C812.046 248.734 694.964 257.29 653.327 305.668L462.412 527.518C448.883 543.248 445.895 559.795 453.766 575.413C469.106 605.712 519.44 623.974 576.292 619.835L997.182 588.872C1053.13 584.752 1099.21 559.886 1109.34 528.346C1114.75 511.41 1108.78 495.132 1092.07 481.272Z" fill="#DD5D36" fill-opacity="0.14"/>
<path d="M438.95 616.17C437.614 614.44 436.368 612.641 435.217 610.783C424.207 592.812 425.572 572.26 438.996 552.96L615.844 298.924C633.927 272.943 669.872 253.711 714.567 246.007C764.141 237.45 813.722 245.578 843.957 267.201L1112.75 459.492C1134.65 475.166 1143.79 495.603 1138.49 517.085C1129.51 553.497 1082.91 583.596 1022.51 591.955L576.853 653.71C517.687 661.9 462.388 646.565 438.95 616.17ZM1125.09 477.782C1120.75 472.279 1115.63 467.442 1109.89 463.426L841.186 271.204C811.968 250.302 763.783 242.501 715.439 250.832C672.652 258.227 636.924 277.272 619.864 301.743L442.939 555.758C430.477 573.653 429.23 591.807 439.311 608.288C459.166 640.643 515.43 657.36 576.153 648.953L1021.85 587.169C1079.37 579.198 1125.41 549.897 1133.79 515.934C1137.09 502.429 1134.01 489.356 1125.09 477.782Z" fill="#DD5D36" fill-opacity="0.14"/>
<path d="M425.126 649.26L424.272 648.153C410.476 629.482 409.437 607.192 421.395 585.393L579.303 297.273C594.79 269.02 629.198 246.077 673.696 234.293C727.031 220.207 782.7 225.226 818.877 247.503L1129.36 438.702C1155.55 454.84 1167.6 477.284 1163.27 501.927C1156.41 540.923 1110.47 575.685 1048.95 588.418L580.572 685.329C515.552 698.856 451.892 683.97 425.126 649.26ZM1126.82 442.826L816.302 251.656C781.227 230.054 727.031 225.203 674.9 239.002C631.606 250.5 598.418 272.502 583.519 299.619L425.61 587.659C414.453 607.999 415.336 627.901 428.141 645.21C453.408 679.25 515.563 693.772 579.548 680.542L1047.98 583.671C1107.56 571.345 1151.98 538.154 1158.49 501.095C1162.46 478.535 1151.22 457.837 1126.82 442.826Z" fill="#DD5D36" fill-opacity="0.14"/>
<path d="M414.232 685.965C399.864 667.333 397.121 644.733 406.563 621.804L540.109 297.903C552.767 267.177 585.325 240.405 629.42 224.457C685.779 204.068 747.2 205.333 789.722 227.773L1144.56 414.997C1175.6 431.365 1191.04 455.912 1188.02 484.122C1183.51 526.401 1139.84 565.126 1076.76 582.778L588.357 719.486C520.147 738.582 449.883 726.422 417.479 689.941C416.358 688.619 415.26 687.299 414.232 685.965ZM1171.43 442.708C1164.53 433.763 1154.75 425.839 1142.3 419.269L787.459 232.045C746.115 210.222 686.186 209.071 631.064 229.008C588.24 244.497 556.726 270.283 544.563 299.725L411.036 623.65C401.514 646.762 404.999 668.529 421.102 686.706C452.342 721.858 520.577 733.416 587.071 714.801L1075.48 578.105C1135.69 561.248 1179.01 523.271 1183.19 483.634C1184.84 468.974 1180.61 454.256 1171.43 442.708Z" fill="#DD5D36" fill-opacity="0.14"/>
<path d="M406.793 726.268C392.658 707.938 388.522 685.69 395.168 662.388L498.307 301.189C507.837 267.76 538.333 236.961 581.928 216.644C639.418 189.865 707.817 186.572 756.191 208.25L1157.94 388.192C1193.82 404.258 1213.71 431.691 1212.49 463.429C1210.77 508.425 1168.88 552.148 1105.78 574.804L600.881 756.071C531.181 781.091 455.12 772.939 415.881 736.232C412.589 733.16 409.55 729.828 406.793 726.268ZM1156.91 390.427L1155.93 392.633L754.176 212.713C707.032 191.591 640.147 194.921 583.926 221.082C541.6 240.781 512.061 270.481 502.92 302.567L399.81 663.724C392.306 689.973 399.01 713.833 419.18 732.705C457.135 768.215 531.166 775.946 599.228 751.508L1104.12 570.263C1165.39 548.254 1206 506.268 1207.65 463.246C1208.8 433.151 1190.44 408.068 1155.95 392.614L1156.91 390.427Z" fill="#DD5D36" fill-opacity="0.14"/>
<path d="M403.315 770.098C389.51 752.196 384.095 730.553 387.94 707.286L454.14 307.525C460.16 271.105 488.335 235.917 531.426 210.993C589.878 177.214 663.147 168.66 718.097 189.24L1168.98 358.155C1210.68 373.784 1235.18 403.398 1236.34 439.579C1237.82 487.331 1198.33 536.259 1135.81 564.166L618.701 795.053C548.561 826.37 467.12 823.13 420.644 787.289C414.154 782.327 408.329 776.549 403.315 770.098ZM1167.33 362.756L716.35 193.817C662.722 173.703 590.995 182.15 533.803 215.219C491.979 239.446 464.648 273.362 458.86 308.339L392.72 708.073C387.849 737.528 398.789 764.28 423.56 783.396C468.733 818.275 548.159 821.244 616.723 790.64L1133.8 559.783C1194.56 532.645 1232.91 485.519 1231.51 439.714C1230.46 405.654 1207.05 377.585 1167.28 362.693L1167.33 362.756Z" fill="#DD5D36" fill-opacity="0.14"/>
<path d="M404.429 817.407C390.999 800.096 384.322 778.493 385.642 756.623L407.609 317.426C409.603 277.631 435.191 237.657 477.805 207.745C536.17 166.75 613.582 152.434 674.983 171.208L1177.12 324.772C1225.08 339.488 1255.05 371.349 1259.17 412.307C1264.39 463.692 1228.88 516.735 1166.5 550.71L642.457 836.316C572.015 874.708 487.786 877.349 432.864 842.886C421.957 836.136 412.33 827.51 404.429 817.407ZM1236.85 368.828C1223.27 351.215 1202.41 337.567 1175.71 329.393L673.542 175.791C613.515 157.421 537.802 171.469 480.527 211.664C439.131 240.738 414.334 279.319 412.385 317.635L390.532 756.824C388.859 790.374 404.759 819.5 435.454 838.701C488.916 872.284 571.181 869.594 640.137 832.007L1164.19 546.413C1224.81 513.368 1259.36 462.149 1254.32 412.712C1252.75 396.73 1246.69 381.518 1236.85 368.828Z" fill="#DD5D36" fill-opacity="0.14"/>
<path d="M410.783 868.075C397.929 851.427 390.431 831.27 389.278 810.27L359.234 331.175C356.527 287.602 379.143 242.317 421.341 206.868C478.529 158.755 559.292 138.144 626.853 154.395L1181.77 287.901C1236.48 301.064 1272.47 335.04 1280.52 381.116C1290.02 435.434 1258.29 493.971 1197.69 533.861L672.864 879.49C604.437 924.553 516.491 933.872 454.06 902.732C437.194 894.608 422.396 882.757 410.783 868.075ZM1181.13 290.299L1180.61 292.711L625.724 159.097C559.601 143.202 480.59 163.405 424.453 210.566C383.437 245.024 361.488 288.832 364.063 330.882L394.14 809.992C396.559 848.249 418.58 879.616 456.267 898.362C517.217 928.778 603.214 919.559 670.255 875.404L1195.09 529.787C1254.04 490.965 1285.02 434.357 1275.81 381.913C1268.1 337.828 1233.43 305.258 1180.68 292.574L1181.13 290.299Z" fill="#DD5D36" fill-opacity="0.14"/>
<path d="M423.035 922.001C411.007 906.311 403.015 887.908 399.762 868.408L309.218 349.361C300.901 301.608 320.083 250.283 361.871 208.631C417.142 153.531 500.18 126.35 573.405 139.357L1182.23 247.502C1243.95 258.467 1286.82 294.305 1299.82 345.825C1314.29 403.14 1287.13 467.399 1228.91 513.555L710.541 924.503C644.349 976.991 555.979 993.538 485.367 966.619C459.09 956.529 437.907 941.287 423.035 922.001ZM1181.82 249.884L1181.37 252.238L572.563 144.119C500.858 131.365 419.48 158.047 365.278 212.062C324.633 252.593 305.928 302.325 314.017 348.509L404.461 867.633C412.018 911.097 441.384 944.625 487.121 962.077C556.17 988.375 642.702 972.123 707.58 920.688L1225.96 509.731C1282.61 464.8 1309.13 402.44 1295.09 347.026C1282.58 297.429 1241.13 262.893 1181.37 252.283L1181.82 249.884Z" fill="#DD5D36" fill-opacity="0.14"/>
<path d="M441.7 978.207C430.837 964.122 422.755 948.097 417.887 930.989L258.015 372.457C243.004 319.977 258.08 261.948 299.392 213.28C352.622 150.565 435.049 117.335 514.505 126.561L1177.86 203.533C1245.7 211.404 1297.48 249.71 1316.35 305.939C1336.93 367.249 1315.8 435.8 1259.85 489.317L756.358 970.885C694.632 1029.92 605.049 1054.62 528.136 1033.79C491.747 1023.93 461.976 1004.5 441.7 978.207ZM1177.29 208.342L513.941 131.369C436.079 122.339 355.276 154.918 303.088 216.408C262.843 263.833 248.104 320.217 262.662 371.121L422.534 929.652C436.442 978.23 475.411 1014.48 529.357 1029.16C604.664 1049.55 692.429 1025.32 752.953 967.432L1256.5 485.825C1311.1 433.686 1331.73 366.963 1311.77 307.488C1293.49 253.068 1243.17 215.938 1177.29 208.342Z" fill="#DD5D36" fill-opacity="0.14"/>
<path d="M467.391 1037.28C458.11 1025.2 450.548 1011.89 444.92 997.732L206.137 400.947C183.081 343.315 193.194 277.759 233.915 221.04C283.492 151.974 366.324 111.933 450.094 116.528L1167.84 155.991C1242.65 160.108 1303.02 199.363 1329.29 261.013C1356.8 325.506 1342.08 400.231 1289.92 460.911L810.936 1018.27C753.838 1084.71 666.642 1117.33 583.327 1103.51C534.576 1095.45 494.157 1071.99 467.391 1037.28ZM1167.69 158.408L1167.56 160.837L449.791 121.416C367.652 116.907 286.428 156.171 237.805 223.898C198.167 279.161 188.197 343.082 210.629 399.149L449.374 995.963C471.276 1050.69 520.436 1088.12 584.045 1098.75C665.736 1112.33 751.173 1080.35 807.227 1015.16L1286.22 457.792C1337.1 398.49 1351.56 325.691 1324.82 262.938C1299.26 203.023 1240.48 164.856 1167.54 160.857L1167.69 158.408Z" fill="#DD5D36" fill-opacity="0.14"/>
<path d="M500.698 1098.16C493.548 1088.87 487.247 1078.96 481.872 1068.54L154.197 435.362C121.507 372.159 125.525 298.203 165.251 232.441C210.475 157.444 292.815 110.599 380.027 110.032L1151.36 105.041C1232.83 104.525 1302.45 143.989 1337.57 210.668C1373.25 278.392 1366.19 359.646 1318.58 428.116L874.897 1066.25C824.364 1138.94 738.777 1180.59 651.522 1174.91C588.856 1170.83 535.546 1143.35 500.698 1098.16ZM1315.74 185.578C1278.43 137.193 1219.1 109.376 1151.29 109.767L379.973 114.748C294.513 115.429 213.798 161.441 169.441 234.907C130.607 299.199 126.63 371.438 158.545 433.092L486.198 1066.27C517.849 1127.42 578.238 1165.25 651.88 1170.04C737.461 1175.6 821.404 1134.76 870.976 1063.45L1314.55 425.285C1361.07 358.361 1368.06 278.945 1333.29 212.833C1328.23 203.262 1322.36 194.143 1315.74 185.578Z" fill="#DD5D36" fill-opacity="0.14"/>
<path d="M541.256 1159.11C537.272 1153.94 533.492 1148.57 529.916 1143L102.894 476.228C59.3232 408.175 55.8124 322.792 93.5215 247.832C113.306 208.037 143.199 174.14 180.207 149.534C217.215 124.929 260.039 110.479 304.389 107.633L1127.46 50.7099C1215.03 44.6054 1294.34 83.3748 1339.77 154.33C1385.2 225.285 1387.17 313.539 1345.07 390.502L949.086 1114.12C927.942 1153.23 896.889 1186.1 859.042 1209.42C821.194 1232.75 777.88 1245.72 733.441 1247.03C656.457 1249.7 586.011 1217.12 541.256 1159.11ZM1324.48 140.823C1278.88 81.6944 1206.71 49.9632 1127.82 55.4238L304.741 112.357C261.226 115.136 219.205 129.302 182.888 153.434C146.571 177.567 117.233 210.819 97.8129 249.859C60.8808 323.277 64.2945 406.869 106.985 473.495L534.007 1140.26C576.659 1206.84 651.15 1244.93 733.285 1242.1C776.887 1240.8 819.383 1228.08 856.514 1205.18C893.646 1182.29 924.109 1150.05 944.849 1111.67L1340.8 388.093C1382.05 312.708 1380.13 226.261 1335.68 156.837C1332.16 151.286 1328.43 145.947 1324.48 140.823Z" fill="#DD5D36" fill-opacity="0.14"/>
<path d="M590.32 1220.75L53.0791 524.068C-3.99386 450.057 -16.8402 354.258 18.7262 267.831C54.2925 181.403 130.81 122.377 223.513 109.912L1095.41 -6.97523C1188.05 -19.3916 1277.44 17.384 1334.51 91.3954C1391.58 165.407 1404.43 261.205 1368.87 347.646L1034.2 1161.19C998.576 1247.68 922.099 1306.66 829.459 1319.07C736.82 1331.49 647.393 1294.77 590.32 1220.75ZM1095.74 -4.5773L1096.06 -2.17934L224.089 114.744C133.188 126.943 58.0947 184.85 23.1899 269.665C-11.7148 354.479 0.897819 448.492 56.9037 521.119L594.144 1217.81C650.15 1290.43 737.859 1326.52 828.76 1314.32C919.661 1302.12 994.777 1244.21 1029.66 1159.4L1364.37 345.818C1399.27 260.992 1386.65 167.001 1330.65 94.3737C1274.64 21.7461 1186.95 -14.3466 1096.04 -2.15994L1095.74 -4.5773Z" fill="#DD5D36" fill-opacity="0.14"/>
</svg>
