<svg width="238" height="183" viewBox="0 0 238 183" fill="none" xmlns="http://www.w3.org/2000/svg">
<mask id="path-1-inside-1_1424_15008" fill="white">
<path d="M230.647 89.6153C231.073 88.169 229.834 87.0199 228.209 86.1777C230.339 84.9695 232.084 83.0268 230.865 80.8674C235.274 79.0053 240.863 70.6827 234.888 69.5029C236.483 67.4027 237.315 65.2527 236.711 62.488C236.384 61.012 235.462 60.7443 234.531 61.0014C236.077 55.8794 231.589 50.9351 227.418 53.6891C228.785 49.5077 229.468 44.7328 225.743 41.6909C220.78 37.648 215.27 41.2348 212.605 45.7728C211.347 42.9785 208.235 44.1382 206.909 46.7939C206.373 45.1095 204.818 44.1381 202.509 44.1488C199.309 44.1689 197.001 46.4669 196.019 49.2412C195.326 48.3788 194.425 47.9536 193.354 47.9038C194.405 46.6849 194.939 45.2481 193.988 44.0694C197.465 42.5236 199.348 37.4514 195.831 35.3903C199.289 31.3675 196.039 25.799 191.095 26.7513C191.987 23.6005 189.906 20.7268 186.587 22.0155C185.923 18.5969 182.376 17.7547 179.334 19.1916C178.451 12.7619 168.752 16.4564 167.444 22.1245C163.739 20.1226 161.054 24.3633 159.944 27.9702C159.558 29.2389 159.498 30.5952 159.607 31.9041C159.607 32.102 157.646 32.5189 157.249 32.667C156.119 33.1124 155.396 33.8954 154.98 34.8264C154.039 33.6182 152.474 32.9643 150.81 32.4786C154.07 30.4282 156.358 25.7019 152.672 24.0376C155.317 22.3129 157.784 18.9748 155.05 17.5083C156.715 16.4387 157.825 14.6453 156.913 13.5259C169.179 10.2565 156.764 -5.65549 149.412 2.11277C147.598 -0.443484 144.379 0.468602 142.754 2.86613C141.872 1.63775 140.297 1.59748 139.246 2.68845C138.939 2.24306 138.374 2.00497 137.493 2.17318C134.333 2.74768 132.619 4.49133 131.826 7.36504C128.943 4.96752 125.158 6.56194 123.345 9.95093C123.097 10.3963 123.256 11.556 122.503 11.3179C121.81 11.0999 120.423 11.3273 119.817 11.7336C118.203 12.8436 117.231 14.2603 116.607 15.9542C116.003 14.9142 115.071 14.0921 113.733 14.1312C110.642 14.2402 112.257 12.5463 110.603 10.4354C107.402 6.33331 101.973 9.29585 100.387 13.3577C98.2372 12.198 96.0777 12.8329 94.5816 14.7045C92.3523 9.87986 85.1894 10.0374 85.001 15.6853C82.0681 14.4865 82.0384 20.5301 82.5537 23.5329C80.0969 23.1764 78.6897 25.0385 77.5596 27.1885C76.6878 23.4927 75.0828 20.8369 71.0008 22.1754C70.6739 20.1842 69.8814 18.777 67.8298 17.9253C67.1664 17.6481 65.7391 17.8755 65.1551 18.2131C64.6303 18.501 64.3922 17.3318 63.8971 16.7763C63.1046 15.895 61.5789 15.9542 60.4098 16.5287C59.8246 13.963 56.4664 12.8436 53.4446 14.1703C53.0881 14.329 50.3731 12.7239 49.2039 12.8128C47.638 12.9312 46.6477 13.9322 46.1526 15.2008C40.674 10.2968 32.3905 22.2856 39.4255 27.1695C35.0557 30.2706 41.1004 35.5715 44.8057 37.7605C42.349 39.7518 41.1206 41.7738 41.0211 44.8844C38.3962 43.2497 35.5023 44.1903 33.2233 46.6482C33.0752 46.7963 30.3199 45.9943 29.7454 46.0441C27.2484 46.2822 27.5256 47.7676 25.2773 46.371C22.6121 44.7067 20.1352 45.7171 17.3408 45.6176C13.9921 45.4992 11.7829 47.5295 12.1193 50.5809C7.33373 49.818 3.70788 56.0902 7.74955 59.1511C4.92559 61.8364 5.47994 66.6019 9.31432 67.7604C8.63084 69.4152 8.61069 71.0404 9.35459 72.5365C7.17502 72.2688 4.40082 72.7841 4.30132 75.0335C4.22196 76.6978 3.24117 75.7869 2.04241 76.8565C0.655305 78.0849 0.0807726 79.4223 0.00140787 81.2559C-0.0578195 82.9108 1.77471 83.8323 1.15046 85.4374C0.308243 87.6572 0.278611 89.3405 1.24994 91.4904C3.11323 95.6423 7.94738 94.9777 11.0592 92.9474C11.7427 97.3362 17.0933 95.0583 20.0357 92.7792C20.7784 94.235 22.0269 94.7017 23.5029 94.9386C22.8691 95.3355 22.3135 95.8697 21.7592 96.6136C21.5211 96.9311 20.9762 99.7846 21.9179 99.7846C19.1733 100.052 18.0835 102.568 18.9258 104.65C16.7557 104.729 14.3392 105.789 15.0819 108.484C15.1707 108.831 10.4148 111.011 10.6825 113.369C10.801 114.479 11.0793 115.618 12.0305 116.341C13.972 117.808 13.3975 119.234 14.2492 121.365C15.3686 124.178 17.7969 124.723 19.916 123.485C20.3614 126.843 24.345 127.319 26.8421 124.813C27.843 127.27 31.4393 127.379 33.1142 125.338C36.2746 128.795 43.6069 125.199 43.9232 120.949C45.4691 121.385 47.2128 119.334 48.055 117.412C48.4707 117.947 48.9066 118.293 49.5214 118.551C46.4499 121.316 49.4219 126.429 52.0872 125.269C52.2755 127.151 53.1568 129.619 55.257 129.321C57.1393 129.054 57.8832 127.905 58.1604 126.448C58.7846 127.21 59.6766 127.667 60.9144 127.617C59.6955 130.005 59.9833 133.572 62.7576 134.721C64.2536 135.345 65.4631 134.176 66.0968 135.672C66.7708 137.297 68.3759 138.208 69.9407 138.734C71.1596 139.14 72.4673 138.922 73.5867 138.397C74.8554 140.448 76.4106 142.311 78.3426 143.728C80.6312 145.403 83.9799 145.293 86.6558 145.274C91.5705 145.235 94.3743 146.611 97.9303 149.771C99.5555 151.208 101.685 151.406 103.706 151.803C109.75 152.981 107.125 161.275 106.669 165.288C106.174 169.687 107.095 174.264 107.501 178.634C107.719 181.002 108.037 183.281 108.017 185.669C107.987 188.513 106.283 190.741 105.163 193.189C104.945 193.664 105.202 194.249 105.777 194.258C112.474 194.377 119.162 194.11 125.83 194.694C126.425 194.744 126.761 193.891 126.325 193.516C119.934 187.958 116.189 177.94 119.36 169.866C120.915 165.893 120.272 161.821 120.895 157.689C121.826 151.596 129.554 150.862 134.201 148.673C140.562 145.661 148.36 141.649 151.104 134.704C152.005 132.415 152.748 130.107 153.848 127.907C154.572 126.47 155.75 125.192 156.85 123.914C159.227 125.024 162.695 123.934 164.36 121.367C166.381 124.756 169.611 126.43 171.602 122.566C174.871 125.598 180.915 122.823 181.192 118.9C182.847 119.801 184.74 119.127 186.107 117.424C187.068 121.159 189.614 123.16 193.092 121.011C193.36 125.37 195.728 129.819 200.682 130.037C205.07 130.235 210.391 127.55 209.44 122.963C211.956 123.468 214.553 121.308 214.275 119.01C219.041 120.645 225.927 117.861 226.135 112.283C226.205 110.39 225.402 109.885 227.027 108.736C228.385 107.776 229.534 106.566 230.494 105.219C231.386 103.961 231.218 102.931 230.485 102.218C232.793 101.197 234.081 98.4331 232.347 96.7285C234.635 95.9159 237.251 94.004 236.558 91.4975C235.829 88.8228 232.976 89.0597 230.647 89.6153ZM214.775 91.3092C213.874 90.4279 212.417 90.0903 210.981 90.2099C210.119 90.2798 209.149 90.8437 208.713 91.6065C207.821 93.1121 209.049 92.0223 207.257 91.5271C206.018 91.1801 205.127 91.9038 204.364 92.7555C203.661 93.5587 204.037 94.0929 204.058 94.1521C204.017 94.1225 203.84 93.9543 203.354 93.6463C201.254 92.2995 199.431 93.7553 198.984 95.6281C197.518 94.3108 195.368 93.4378 193.456 94.0621C192.316 94.4281 190.612 97.1834 190.711 97.1834C188.036 97.1834 188.729 101.197 187.946 101.285C185.727 101.513 184.836 102.861 185.102 104.426C183.418 103.504 181.436 102.97 179.97 103.94C179.584 101.225 176.462 100.006 173.529 100.72C174.024 100.602 171.686 98.5006 171.449 98.4023C171.063 98.2341 170.627 98.2139 170.201 98.2234C170.884 97.2521 171.222 95.9846 171.102 94.7752C172.419 95.2608 173.817 95.063 174.669 93.9626C176.522 98.1938 183.665 97.7271 184.042 93.1109C185.568 93.6653 187.747 92.1502 188.769 90.1483C190.403 93.1204 194.247 91.9015 195.387 88.6617C196.774 90.653 199.142 92.9226 200.608 90.6435C201.787 91.6646 203.809 89.6828 204.324 88.246C205.859 88.3455 206.89 87.5328 207.276 86.1256C208.683 87.0069 210.12 86.0854 210.714 84.639C211.576 86.1647 213.141 87.4227 213.656 85.9764C213.011 87.7994 214.419 88.7506 216.044 89.087C215.42 89.6745 215.003 90.4374 214.775 91.3092ZM161.442 79.5988C160.729 78.4699 159.669 77.7852 158.539 77.8148C158.747 76.9525 158.519 76.0416 158.034 75.0797C158.371 75.2479 158.768 75.3474 159.224 75.3083C159.996 75.2384 160.541 74.8724 160.917 74.3477C162.245 75.9622 165.535 75.229 166.08 73.3171C167.556 75.1105 171.311 74.8831 171.767 72.6135C174.096 74.2091 177.949 73.8123 177.206 70.7407C179.921 70.216 178.743 67.6893 180.932 66.3022C183.24 64.8452 182.804 62.597 181.546 60.7739C183.696 59.9021 183.131 57.623 182.032 55.7112C183.31 56.0878 184.627 56.217 185.717 55.6117C186.332 56.9396 187.858 57.1279 189.472 57.0379C188.501 58.2165 188.115 59.7031 189.056 61.2987C189.779 62.5377 190.682 62.071 189.572 62.8647C188.423 63.6867 187.61 64.8962 187.036 66.1636C186.511 67.3032 187.669 68.9876 187.521 69.0669C186.758 69.5028 184.043 73.9816 185.104 74.0705C183.083 73.9117 180.724 74.2683 180.091 76.5568C179.784 77.6762 176.731 77.3292 176.158 79.1723C175.672 80.6885 176.644 80.9563 175.513 80.1034C174.572 79.3903 173.037 78.8359 171.877 78.8549C169.975 78.8951 168.894 79.6177 168.399 81.0842C166.217 78.6476 162.641 76.5569 161.442 79.5988ZM114.39 148.072C112.378 146.427 110.169 144.891 107.731 143.98C103.847 142.523 99.2701 142.584 95.7425 140.284C92.7006 138.303 90.8882 137.887 87.2516 138.134C83.4575 138.382 81.3668 136.35 79.5734 133.825C79.9702 132.942 80.059 131.863 79.8115 130.813C81.0304 131.199 82.1403 130.763 83.1697 129.684C84.8044 134.122 89.5994 135.589 90.4321 131.001C92.9682 133.785 96.7043 132.883 98.2691 129.039C100.429 132.081 106.215 133.171 107.305 129.584C108.712 131.001 111.049 130.962 112.606 129.525C113.686 131.913 116.856 132.072 118.442 130.278C118.412 130.278 118.392 130.269 118.372 130.269C118.491 130.169 118.6 130.051 118.699 129.933C118.699 129.933 118.699 129.933 118.708 129.933C118.708 129.923 118.708 129.923 118.718 129.912C118.718 129.903 118.727 129.903 118.738 129.892C118.838 130.042 118.956 130.169 119.075 130.299C119.788 131.061 120.789 131.527 121.958 131.517C122.225 131.517 122.394 131.388 122.493 131.23C122.552 131.22 122.602 131.209 122.661 131.189C125.059 130.417 123.88 133.082 125.99 134.182C127.604 135.024 129.765 134.965 131.232 134.093C131.558 136.828 132.519 139.235 134.719 140.89C134.382 141.147 134.045 141.385 133.679 141.603C131.023 143.169 127.347 143.04 124.385 143.317C120.533 143.682 116.272 144.317 114.39 148.072ZM67.3275 109.619C65.2273 108.826 63.216 109.242 61.868 111.115C60.8777 109.153 59.2821 107.509 56.9237 107.895C55.2393 108.172 56.3787 109.5 54.9822 107.936C54.2489 107.113 52.9009 107.37 52.0102 107.568C51.2864 107.727 49.4741 108.876 49.4741 109.214C49.217 107.391 47.978 105.765 46.72 104.498C44.7974 102.566 42.9649 103.408 41.7259 105.023C41.3492 102.437 40.25 100.257 37.6345 100.961C37.9816 99.1971 37.3171 97.8503 35.7617 97.5032C37.1488 95.9668 37.4367 93.8275 36.3362 92.2225C37.5149 92.5091 38.902 92.4795 38.902 91.8363C39.0406 93.4509 40.1505 96.0675 42.1026 94.9576C42.1417 95.5321 42.3798 96.1173 42.5681 96.6326C42.8856 97.5044 43.8462 98.4852 44.7276 98.8026C46.7093 99.5062 48.1651 98.9507 49.2063 97.643C49.3651 98.4651 49.7915 99.1687 50.6728 99.7929C50.9997 100.041 51.6133 99.8924 51.971 99.7929C52.2091 99.7231 51.932 102.102 51.932 102.558C51.9119 103.479 53.1307 104.48 54.0121 104.242C54.8637 104.004 55.687 103.886 56.2212 103.113C56.3195 103.48 56.3504 103.499 56.7661 104.055C57.5195 105.076 58.986 104.888 60.0059 104.55C61.9769 103.896 60.6005 102.4 61.74 104.025C63.1769 106.086 65.5649 105.699 66.9414 104.263C67.2387 105.006 67.8333 105.61 68.7241 106.066C67.446 106.865 66.9804 108.143 67.3275 109.619ZM57.5384 60.3274C58.678 61.8933 60.6301 62.0118 61.6204 60.7538C62.2245 61.6552 63.1958 62.2996 64.4147 62.3292C66.9212 62.4086 68.011 60.8628 68.2894 58.881C69.5272 60.1497 71.4699 60.7431 73.0253 60.0893C73.1437 62.1208 75.6312 63.2295 77.8997 62.7841C77.6414 63.8739 77.8499 64.8843 78.4445 65.6081C76.6807 66.1921 75.6407 67.7284 75.9179 69.6604C74.2631 69.324 72.6876 70.839 71.7471 72.771C70.4393 70.8094 68.3095 70.1852 65.7627 71.1565C65.0887 71.4135 63.2657 73.0198 63.2657 73.1288C62.6522 72.1183 61.2342 70.8497 59.9762 70.6909C59.5107 70.6317 55.7154 70.8201 56.1028 71.9395C55.597 70.473 54.538 69.8191 53.1995 69.2944C53.4968 69.4128 53.1899 66.8874 53.0111 66.4207C52.6841 65.5879 51.9509 65.152 51.1383 64.9045C51.2769 64.8156 51.4262 64.7256 51.5541 64.6166C52.0492 64.2198 52.2482 63.7246 52.2672 63.2094C54.5166 64.3797 57.0729 62.9132 57.5384 60.3274ZM101.113 31.1093C102.56 30.8712 103.679 30.0491 104.125 28.8208C105.295 30.2778 107.118 31.0702 108.664 30.2576C107.99 35.5478 114.133 37.0747 117.631 32.5758C118.185 33.4381 118.948 34.4391 120.167 34.1216C121.465 33.784 122.762 32.9027 122.604 32.4668C123.318 34.5279 124.993 34.7553 126.399 33.9036C126.21 35.132 126.478 36.2621 127.27 37.2227C125.368 37.3021 124.011 38.3421 124.258 40.0858C122.415 39.1737 119.82 38.7484 119.631 41.2348C119.532 42.5923 120.106 42.1765 118.928 41.6115C118.412 41.3639 117.302 41.1353 116.718 41.3047C116.074 41.5025 114.172 42.9299 114.371 43.078C113.013 42.0877 111.151 41.1258 109.467 42.1067C109.596 42.0273 106.563 39.9271 105.979 39.7778C105.593 39.6783 105.316 37.4194 104.79 36.7466C104.007 35.7456 102.452 35.3595 101.035 35.1912C102.282 34.0031 102.262 32.3187 101.113 31.1093ZM110.258 86.5734C111.08 86.8802 111.724 86.8802 112.824 86.5331C114.201 86.0972 113.854 85.3734 114.687 86.6622C115.518 87.9605 117.352 87.2663 118.65 86.6231C117.947 89.575 121.474 88.9223 124.02 87.7828C123.723 88.952 124.07 90.1116 124.931 91.0427C122.167 91.4288 120.125 93.8868 119.68 96.7202C119.096 96.1954 118.442 95.8389 117.539 95.5712C117.113 95.4527 113.537 95.7797 113.576 95.9278C112.872 93.3715 111.406 91.3009 109.018 91.2014C110.07 89.883 110.376 88.3668 110.258 86.5734ZM134.404 64.5787C136.188 63.8857 137.059 62.1705 135.553 61.0215C136.088 60.8628 136.622 60.5655 137.148 60.1106C137.882 59.4863 137.178 58.2378 137.763 58.1383C139.745 57.7723 140.299 56.4835 140.349 54.5716C140.349 54.4532 140.349 54.3631 140.349 54.2648C140.537 54.5219 140.924 54.6119 141.686 54.0563C142.34 53.5802 142.935 53.2141 143.291 52.5307C143.351 52.5804 143.41 52.6302 143.48 52.6989C144.797 53.8277 146.095 53.6595 147.611 52.937C147.632 52.9275 147.651 52.9168 147.671 52.9073C147.611 53.0862 147.542 53.2935 147.492 53.5517C147.283 54.5325 147.353 55.4446 147.532 56.4053C147.532 56.4645 147.562 56.5048 147.572 56.5534C146.403 56.9301 145.601 57.9109 145.581 59.298C142.629 57.366 139.706 60.2587 141.568 63.2804C138.556 63.7069 138.853 68.3929 141.945 68.175C141.3 69.5716 141.776 70.672 143.054 71.2465C141.093 72.0793 138.873 73.5552 140.28 74.9921C138.745 73.4166 136.634 73.1489 134.841 73.862C135.336 72.386 135.129 70.8994 134.028 69.8298C136.761 69.2446 136.781 66.1932 134.404 64.5787ZM138.019 131.367C139.277 130.377 140.169 128.772 140.04 127.137C141.615 127.781 143.2 127.266 143.865 125.72C144.716 126.731 145.985 127.395 147.293 127.652C145.837 129.841 143.845 131.616 141.615 133.428C141.259 133.725 140.922 134.032 140.594 134.359C139.526 133.567 138.704 132.536 138.019 131.367Z"/>
</mask>
<path d="M230.647 89.6153C231.073 88.169 229.834 87.0199 228.209 86.1777C230.339 84.9695 232.084 83.0268 230.865 80.8674C235.274 79.0053 240.863 70.6827 234.888 69.5029C236.483 67.4027 237.315 65.2527 236.711 62.488C236.384 61.012 235.462 60.7443 234.531 61.0014C236.077 55.8794 231.589 50.9351 227.418 53.6891C228.785 49.5077 229.468 44.7328 225.743 41.6909C220.78 37.648 215.27 41.2348 212.605 45.7728C211.347 42.9785 208.235 44.1382 206.909 46.7939C206.373 45.1095 204.818 44.1381 202.509 44.1488C199.309 44.1689 197.001 46.4669 196.019 49.2412C195.326 48.3788 194.425 47.9536 193.354 47.9038C194.405 46.6849 194.939 45.2481 193.988 44.0694C197.465 42.5236 199.348 37.4514 195.831 35.3903C199.289 31.3675 196.039 25.799 191.095 26.7513C191.987 23.6005 189.906 20.7268 186.587 22.0155C185.923 18.5969 182.376 17.7547 179.334 19.1916C178.451 12.7619 168.752 16.4564 167.444 22.1245C163.739 20.1226 161.054 24.3633 159.944 27.9702C159.558 29.2389 159.498 30.5952 159.607 31.9041C159.607 32.102 157.646 32.5189 157.249 32.667C156.119 33.1124 155.396 33.8954 154.98 34.8264C154.039 33.6182 152.474 32.9643 150.81 32.4786C154.07 30.4282 156.358 25.7019 152.672 24.0376C155.317 22.3129 157.784 18.9748 155.05 17.5083C156.715 16.4387 157.825 14.6453 156.913 13.5259C169.179 10.2565 156.764 -5.65549 149.412 2.11277C147.598 -0.443484 144.379 0.468602 142.754 2.86613C141.872 1.63775 140.297 1.59748 139.246 2.68845C138.939 2.24306 138.374 2.00497 137.493 2.17318C134.333 2.74768 132.619 4.49133 131.826 7.36504C128.943 4.96752 125.158 6.56194 123.345 9.95093C123.097 10.3963 123.256 11.556 122.503 11.3179C121.81 11.0999 120.423 11.3273 119.817 11.7336C118.203 12.8436 117.231 14.2603 116.607 15.9542C116.003 14.9142 115.071 14.0921 113.733 14.1312C110.642 14.2402 112.257 12.5463 110.603 10.4354C107.402 6.33331 101.973 9.29585 100.387 13.3577C98.2372 12.198 96.0777 12.8329 94.5816 14.7045C92.3523 9.87986 85.1894 10.0374 85.001 15.6853C82.0681 14.4865 82.0384 20.5301 82.5537 23.5329C80.0969 23.1764 78.6897 25.0385 77.5596 27.1885C76.6878 23.4927 75.0828 20.8369 71.0008 22.1754C70.6739 20.1842 69.8814 18.777 67.8298 17.9253C67.1664 17.6481 65.7391 17.8755 65.1551 18.2131C64.6303 18.501 64.3922 17.3318 63.8971 16.7763C63.1046 15.895 61.5789 15.9542 60.4098 16.5287C59.8246 13.963 56.4664 12.8436 53.4446 14.1703C53.0881 14.329 50.3731 12.7239 49.2039 12.8128C47.638 12.9312 46.6477 13.9322 46.1526 15.2008C40.674 10.2968 32.3905 22.2856 39.4255 27.1695C35.0557 30.2706 41.1004 35.5715 44.8057 37.7605C42.349 39.7518 41.1206 41.7738 41.0211 44.8844C38.3962 43.2497 35.5023 44.1903 33.2233 46.6482C33.0752 46.7963 30.3199 45.9943 29.7454 46.0441C27.2484 46.2822 27.5256 47.7676 25.2773 46.371C22.6121 44.7067 20.1352 45.7171 17.3408 45.6176C13.9921 45.4992 11.7829 47.5295 12.1193 50.5809C7.33373 49.818 3.70788 56.0902 7.74955 59.1511C4.92559 61.8364 5.47994 66.6019 9.31432 67.7604C8.63084 69.4152 8.61069 71.0404 9.35459 72.5365C7.17502 72.2688 4.40082 72.7841 4.30132 75.0335C4.22196 76.6978 3.24117 75.7869 2.04241 76.8565C0.655305 78.0849 0.0807726 79.4223 0.00140787 81.2559C-0.0578195 82.9108 1.77471 83.8323 1.15046 85.4374C0.308243 87.6572 0.278611 89.3405 1.24994 91.4904C3.11323 95.6423 7.94738 94.9777 11.0592 92.9474C11.7427 97.3362 17.0933 95.0583 20.0357 92.7792C20.7784 94.235 22.0269 94.7017 23.5029 94.9386C22.8691 95.3355 22.3135 95.8697 21.7592 96.6136C21.5211 96.9311 20.9762 99.7846 21.9179 99.7846C19.1733 100.052 18.0835 102.568 18.9258 104.65C16.7557 104.729 14.3392 105.789 15.0819 108.484C15.1707 108.831 10.4148 111.011 10.6825 113.369C10.801 114.479 11.0793 115.618 12.0305 116.341C13.972 117.808 13.3975 119.234 14.2492 121.365C15.3686 124.178 17.7969 124.723 19.916 123.485C20.3614 126.843 24.345 127.319 26.8421 124.813C27.843 127.27 31.4393 127.379 33.1142 125.338C36.2746 128.795 43.6069 125.199 43.9232 120.949C45.4691 121.385 47.2128 119.334 48.055 117.412C48.4707 117.947 48.9066 118.293 49.5214 118.551C46.4499 121.316 49.4219 126.429 52.0872 125.269C52.2755 127.151 53.1568 129.619 55.257 129.321C57.1393 129.054 57.8832 127.905 58.1604 126.448C58.7846 127.21 59.6766 127.667 60.9144 127.617C59.6955 130.005 59.9833 133.572 62.7576 134.721C64.2536 135.345 65.4631 134.176 66.0968 135.672C66.7708 137.297 68.3759 138.208 69.9407 138.734C71.1596 139.14 72.4673 138.922 73.5867 138.397C74.8554 140.448 76.4106 142.311 78.3426 143.728C80.6312 145.403 83.9799 145.293 86.6558 145.274C91.5705 145.235 94.3743 146.611 97.9303 149.771C99.5555 151.208 101.685 151.406 103.706 151.803C109.75 152.981 107.125 161.275 106.669 165.288C106.174 169.687 107.095 174.264 107.501 178.634C107.719 181.002 108.037 183.281 108.017 185.669C107.987 188.513 106.283 190.741 105.163 193.189C104.945 193.664 105.202 194.249 105.777 194.258C112.474 194.377 119.162 194.11 125.83 194.694C126.425 194.744 126.761 193.891 126.325 193.516C119.934 187.958 116.189 177.94 119.36 169.866C120.915 165.893 120.272 161.821 120.895 157.689C121.826 151.596 129.554 150.862 134.201 148.673C140.562 145.661 148.36 141.649 151.104 134.704C152.005 132.415 152.748 130.107 153.848 127.907C154.572 126.47 155.75 125.192 156.85 123.914C159.227 125.024 162.695 123.934 164.36 121.367C166.381 124.756 169.611 126.43 171.602 122.566C174.871 125.598 180.915 122.823 181.192 118.9C182.847 119.801 184.74 119.127 186.107 117.424C187.068 121.159 189.614 123.16 193.092 121.011C193.36 125.37 195.728 129.819 200.682 130.037C205.07 130.235 210.391 127.55 209.44 122.963C211.956 123.468 214.553 121.308 214.275 119.01C219.041 120.645 225.927 117.861 226.135 112.283C226.205 110.39 225.402 109.885 227.027 108.736C228.385 107.776 229.534 106.566 230.494 105.219C231.386 103.961 231.218 102.931 230.485 102.218C232.793 101.197 234.081 98.4331 232.347 96.7285C234.635 95.9159 237.251 94.004 236.558 91.4975C235.829 88.8228 232.976 89.0597 230.647 89.6153ZM214.775 91.3092C213.874 90.4279 212.417 90.0903 210.981 90.2099C210.119 90.2798 209.149 90.8437 208.713 91.6065C207.821 93.1121 209.049 92.0223 207.257 91.5271C206.018 91.1801 205.127 91.9038 204.364 92.7555C203.661 93.5587 204.037 94.0929 204.058 94.1521C204.017 94.1225 203.84 93.9543 203.354 93.6463C201.254 92.2995 199.431 93.7553 198.984 95.6281C197.518 94.3108 195.368 93.4378 193.456 94.0621C192.316 94.4281 190.612 97.1834 190.711 97.1834C188.036 97.1834 188.729 101.197 187.946 101.285C185.727 101.513 184.836 102.861 185.102 104.426C183.418 103.504 181.436 102.97 179.97 103.94C179.584 101.225 176.462 100.006 173.529 100.72C174.024 100.602 171.686 98.5006 171.449 98.4023C171.063 98.2341 170.627 98.2139 170.201 98.2234C170.884 97.2521 171.222 95.9846 171.102 94.7752C172.419 95.2608 173.817 95.063 174.669 93.9626C176.522 98.1938 183.665 97.7271 184.042 93.1109C185.568 93.6653 187.747 92.1502 188.769 90.1483C190.403 93.1204 194.247 91.9015 195.387 88.6617C196.774 90.653 199.142 92.9226 200.608 90.6435C201.787 91.6646 203.809 89.6828 204.324 88.246C205.859 88.3455 206.89 87.5328 207.276 86.1256C208.683 87.0069 210.12 86.0854 210.714 84.639C211.576 86.1647 213.141 87.4227 213.656 85.9764C213.011 87.7994 214.419 88.7506 216.044 89.087C215.42 89.6745 215.003 90.4374 214.775 91.3092ZM161.442 79.5988C160.729 78.4699 159.669 77.7852 158.539 77.8148C158.747 76.9525 158.519 76.0416 158.034 75.0797C158.371 75.2479 158.768 75.3474 159.224 75.3083C159.996 75.2384 160.541 74.8724 160.917 74.3477C162.245 75.9622 165.535 75.229 166.08 73.3171C167.556 75.1105 171.311 74.8831 171.767 72.6135C174.096 74.2091 177.949 73.8123 177.206 70.7407C179.921 70.216 178.743 67.6893 180.932 66.3022C183.24 64.8452 182.804 62.597 181.546 60.7739C183.696 59.9021 183.131 57.623 182.032 55.7112C183.31 56.0878 184.627 56.217 185.717 55.6117C186.332 56.9396 187.858 57.1279 189.472 57.0379C188.501 58.2165 188.115 59.7031 189.056 61.2987C189.779 62.5377 190.682 62.071 189.572 62.8647C188.423 63.6867 187.61 64.8962 187.036 66.1636C186.511 67.3032 187.669 68.9876 187.521 69.0669C186.758 69.5028 184.043 73.9816 185.104 74.0705C183.083 73.9117 180.724 74.2683 180.091 76.5568C179.784 77.6762 176.731 77.3292 176.158 79.1723C175.672 80.6885 176.644 80.9563 175.513 80.1034C174.572 79.3903 173.037 78.8359 171.877 78.8549C169.975 78.8951 168.894 79.6177 168.399 81.0842C166.217 78.6476 162.641 76.5569 161.442 79.5988ZM114.39 148.072C112.378 146.427 110.169 144.891 107.731 143.98C103.847 142.523 99.2701 142.584 95.7425 140.284C92.7006 138.303 90.8882 137.887 87.2516 138.134C83.4575 138.382 81.3668 136.35 79.5734 133.825C79.9702 132.942 80.059 131.863 79.8115 130.813C81.0304 131.199 82.1403 130.763 83.1697 129.684C84.8044 134.122 89.5994 135.589 90.4321 131.001C92.9682 133.785 96.7043 132.883 98.2691 129.039C100.429 132.081 106.215 133.171 107.305 129.584C108.712 131.001 111.049 130.962 112.606 129.525C113.686 131.913 116.856 132.072 118.442 130.278C118.412 130.278 118.392 130.269 118.372 130.269C118.491 130.169 118.6 130.051 118.699 129.933C118.699 129.933 118.699 129.933 118.708 129.933C118.708 129.923 118.708 129.923 118.718 129.912C118.718 129.903 118.727 129.903 118.738 129.892C118.838 130.042 118.956 130.169 119.075 130.299C119.788 131.061 120.789 131.527 121.958 131.517C122.225 131.517 122.394 131.388 122.493 131.23C122.552 131.22 122.602 131.209 122.661 131.189C125.059 130.417 123.88 133.082 125.99 134.182C127.604 135.024 129.765 134.965 131.232 134.093C131.558 136.828 132.519 139.235 134.719 140.89C134.382 141.147 134.045 141.385 133.679 141.603C131.023 143.169 127.347 143.04 124.385 143.317C120.533 143.682 116.272 144.317 114.39 148.072ZM67.3275 109.619C65.2273 108.826 63.216 109.242 61.868 111.115C60.8777 109.153 59.2821 107.509 56.9237 107.895C55.2393 108.172 56.3787 109.5 54.9822 107.936C54.2489 107.113 52.9009 107.37 52.0102 107.568C51.2864 107.727 49.4741 108.876 49.4741 109.214C49.217 107.391 47.978 105.765 46.72 104.498C44.7974 102.566 42.9649 103.408 41.7259 105.023C41.3492 102.437 40.25 100.257 37.6345 100.961C37.9816 99.1971 37.3171 97.8503 35.7617 97.5032C37.1488 95.9668 37.4367 93.8275 36.3362 92.2225C37.5149 92.5091 38.902 92.4795 38.902 91.8363C39.0406 93.4509 40.1505 96.0675 42.1026 94.9576C42.1417 95.5321 42.3798 96.1173 42.5681 96.6326C42.8856 97.5044 43.8462 98.4852 44.7276 98.8026C46.7093 99.5062 48.1651 98.9507 49.2063 97.643C49.3651 98.4651 49.7915 99.1687 50.6728 99.7929C50.9997 100.041 51.6133 99.8924 51.971 99.7929C52.2091 99.7231 51.932 102.102 51.932 102.558C51.9119 103.479 53.1307 104.48 54.0121 104.242C54.8637 104.004 55.687 103.886 56.2212 103.113C56.3195 103.48 56.3504 103.499 56.7661 104.055C57.5195 105.076 58.986 104.888 60.0059 104.55C61.9769 103.896 60.6005 102.4 61.74 104.025C63.1769 106.086 65.5649 105.699 66.9414 104.263C67.2387 105.006 67.8333 105.61 68.7241 106.066C67.446 106.865 66.9804 108.143 67.3275 109.619ZM57.5384 60.3274C58.678 61.8933 60.6301 62.0118 61.6204 60.7538C62.2245 61.6552 63.1958 62.2996 64.4147 62.3292C66.9212 62.4086 68.011 60.8628 68.2894 58.881C69.5272 60.1497 71.4699 60.7431 73.0253 60.0893C73.1437 62.1208 75.6312 63.2295 77.8997 62.7841C77.6414 63.8739 77.8499 64.8843 78.4445 65.6081C76.6807 66.1921 75.6407 67.7284 75.9179 69.6604C74.2631 69.324 72.6876 70.839 71.7471 72.771C70.4393 70.8094 68.3095 70.1852 65.7627 71.1565C65.0887 71.4135 63.2657 73.0198 63.2657 73.1288C62.6522 72.1183 61.2342 70.8497 59.9762 70.6909C59.5107 70.6317 55.7154 70.8201 56.1028 71.9395C55.597 70.473 54.538 69.8191 53.1995 69.2944C53.4968 69.4128 53.1899 66.8874 53.0111 66.4207C52.6841 65.5879 51.9509 65.152 51.1383 64.9045C51.2769 64.8156 51.4262 64.7256 51.5541 64.6166C52.0492 64.2198 52.2482 63.7246 52.2672 63.2094C54.5166 64.3797 57.0729 62.9132 57.5384 60.3274ZM101.113 31.1093C102.56 30.8712 103.679 30.0491 104.125 28.8208C105.295 30.2778 107.118 31.0702 108.664 30.2576C107.99 35.5478 114.133 37.0747 117.631 32.5758C118.185 33.4381 118.948 34.4391 120.167 34.1216C121.465 33.784 122.762 32.9027 122.604 32.4668C123.318 34.5279 124.993 34.7553 126.399 33.9036C126.21 35.132 126.478 36.2621 127.27 37.2227C125.368 37.3021 124.011 38.3421 124.258 40.0858C122.415 39.1737 119.82 38.7484 119.631 41.2348C119.532 42.5923 120.106 42.1765 118.928 41.6115C118.412 41.3639 117.302 41.1353 116.718 41.3047C116.074 41.5025 114.172 42.9299 114.371 43.078C113.013 42.0877 111.151 41.1258 109.467 42.1067C109.596 42.0273 106.563 39.9271 105.979 39.7778C105.593 39.6783 105.316 37.4194 104.79 36.7466C104.007 35.7456 102.452 35.3595 101.035 35.1912C102.282 34.0031 102.262 32.3187 101.113 31.1093ZM110.258 86.5734C111.08 86.8802 111.724 86.8802 112.824 86.5331C114.201 86.0972 113.854 85.3734 114.687 86.6622C115.518 87.9605 117.352 87.2663 118.65 86.6231C117.947 89.575 121.474 88.9223 124.02 87.7828C123.723 88.952 124.07 90.1116 124.931 91.0427C122.167 91.4288 120.125 93.8868 119.68 96.7202C119.096 96.1954 118.442 95.8389 117.539 95.5712C117.113 95.4527 113.537 95.7797 113.576 95.9278C112.872 93.3715 111.406 91.3009 109.018 91.2014C110.07 89.883 110.376 88.3668 110.258 86.5734ZM134.404 64.5787C136.188 63.8857 137.059 62.1705 135.553 61.0215C136.088 60.8628 136.622 60.5655 137.148 60.1106C137.882 59.4863 137.178 58.2378 137.763 58.1383C139.745 57.7723 140.299 56.4835 140.349 54.5716C140.349 54.4532 140.349 54.3631 140.349 54.2648C140.537 54.5219 140.924 54.6119 141.686 54.0563C142.34 53.5802 142.935 53.2141 143.291 52.5307C143.351 52.5804 143.41 52.6302 143.48 52.6989C144.797 53.8277 146.095 53.6595 147.611 52.937C147.632 52.9275 147.651 52.9168 147.671 52.9073C147.611 53.0862 147.542 53.2935 147.492 53.5517C147.283 54.5325 147.353 55.4446 147.532 56.4053C147.532 56.4645 147.562 56.5048 147.572 56.5534C146.403 56.9301 145.601 57.9109 145.581 59.298C142.629 57.366 139.706 60.2587 141.568 63.2804C138.556 63.7069 138.853 68.3929 141.945 68.175C141.3 69.5716 141.776 70.672 143.054 71.2465C141.093 72.0793 138.873 73.5552 140.28 74.9921C138.745 73.4166 136.634 73.1489 134.841 73.862C135.336 72.386 135.129 70.8994 134.028 69.8298C136.761 69.2446 136.781 66.1932 134.404 64.5787ZM138.019 131.367C139.277 130.377 140.169 128.772 140.04 127.137C141.615 127.781 143.2 127.266 143.865 125.72C144.716 126.731 145.985 127.395 147.293 127.652C145.837 129.841 143.845 131.616 141.615 133.428C141.259 133.725 140.922 134.032 140.594 134.359C139.526 133.567 138.704 132.536 138.019 131.367Z" stroke="white" stroke-width="2" mask="url(#path-1-inside-1_1424_15008)"/>
</svg>
