<svg width="222" height="172" viewBox="0 0 222 172" fill="none" xmlns="http://www.w3.org/2000/svg">
<mask id="path-1-inside-1_1424_14995" fill="white">
<path d="M219.424 49.0504C223.626 46.9227 221.737 42.2255 217.327 40.6302C221.187 35.2486 222.78 28.18 218.065 22.627C213.007 16.6859 205.098 15.081 197.908 17.3887C200.571 9.89655 190.547 8.7163 185.184 12.2947C183.726 7.34528 178.155 9.05799 175.42 12.5017C173.35 6.62422 167.321 3.81962 162.471 9.20239C161.535 10.2479 160.356 12.1686 160.213 13.6194C160.104 14.6746 160.132 15.7018 160.123 16.757C160.123 18.722 157.91 18.4072 156.748 18.7586C155.722 19.083 154.57 21.4726 154.21 22.4006C153.508 24.1672 153.4 25.6816 153.706 27.404C151.223 26.656 149.144 27.7101 147.749 30.1989C147.669 30.1989 144.636 28.0895 144.203 27.972C142.601 27.5484 141.477 27.6293 140.181 28.2242C140.261 26.2949 139.65 24.8344 137.751 23.68C136.555 22.9503 134.935 22.9859 133.612 23.0668C132.873 23.112 132.874 21.201 132.577 20.7224C130.552 17.5039 127.385 17.9631 125.908 20.4066C123.857 15.8721 115.578 14.3663 114.147 19.1897C111.582 16.3765 108.658 15.7815 104.951 17.1968C104.303 13.5903 101.802 11.4271 97.8965 11.9768C97.4468 12.0393 96.2494 7.34313 95.7459 6.40541C94.9724 4.9363 93.3252 3.43917 91.6157 3.25917C89.7082 3.05222 86.6485 4.89963 85.6404 3.35831C84.6959 1.8892 83.1477 1.03233 81.5641 0.437354C77.9019 -0.932588 73.0153 1.08621 70.784 4.12465C69.6232 5.70262 68.2461 3.18693 66.3655 3.35831C64.3494 3.53831 62.9551 4.33164 61.5242 5.75655C60.2009 7.05536 60.4623 9.38026 58.4107 8.70445C57.0971 8.28085 55.8459 8.74972 54.8561 9.60553C51.6253 12.4187 54.1901 18.197 51.4639 21.0727C50.2579 22.3532 48.5849 23.2995 48.6118 25.3367C48.6473 28.0237 49.7458 29.9348 51.4639 31.7466C50.4203 31.8641 49.3402 32.1164 48.6473 32.8374C48.2697 33.2438 46.5322 35.3887 47.5672 35.8845C45.2369 34.7667 42.6721 35.2356 41.565 37.3094C39.3606 34.3259 36.1653 32.0894 32.3773 33.6404C30.3439 34.479 30.5322 34.7312 28.6247 33.3516C27.1217 32.2694 25.2497 31.8372 23.4326 31.918C20.3729 32.0441 18.3934 35.1548 18.1502 37.9496C18.0598 39.0221 15.3153 38.6976 14.6763 39.7701C13.9748 40.9417 14.0555 41.8892 14.4332 42.9799C-2.63736 41.0775 -4.7073 66.8618 8.97967 73.4065C5.49714 75.1105 6.49553 77.9323 9.01625 81.2047C12.247 85.3964 11.9135 89.4718 17.3035 90.4181C14.8194 94.7543 15.5843 101.543 20.0125 104.41C22.3966 105.961 24.728 105.988 27.2928 104.878C28.3095 104.445 29.2368 103.778 29.5876 102.976C30.5505 105.112 32.7463 106.771 35.2207 105.68C36.2471 105.23 37.2638 104.4 37.3262 103.165C37.4789 100.198 35.7694 100.956 39.2068 101.497C39.423 101.533 39.7199 101.443 39.7554 101.181C40.0169 99.3513 40.7818 100.469 42.1847 100.19C42.8238 100.064 43.1121 99.4505 43.2552 98.7833C44.0836 100.01 45.181 100.64 46.5215 100.37C53.3069 108.286 60.1008 115.84 71.2499 118.193C81.4543 120.339 100.271 115.904 106.857 126.388C106.758 126.478 106.713 126.622 106.812 126.785C111.59 134.376 110.717 145.672 110.313 154.263C110.007 160.673 109.323 167.002 108 173.285C107.577 175.287 104.724 181.273 106.146 183.418C107.271 185.122 109.907 184.536 111.627 184.436C115.837 184.203 120.004 185.211 124.233 184.959C126.096 184.851 128.904 183.85 128.625 181.443C128.427 179.749 127.833 178.297 127.149 176.746C125.782 173.645 125.043 170.58 124.431 167.253C123.18 160.528 122.947 153.613 123.541 146.815C124.126 140.081 126.897 135.266 131.405 130.399C134.653 126.891 137.875 123.556 139.945 119.184C142.141 114.523 143.04 109.447 145.83 105.048C149.366 99.4677 156.637 95.7707 162.226 92.5792C166.356 90.2177 170.676 88.1795 174.851 85.8987C179.189 90.2715 187.656 91.4162 190.113 85.6099C192.606 88.4317 197.833 90.2348 199.814 86.9258C204.61 96.3645 221.662 79.299 213.582 73.6738C218.054 71.9794 219.665 64.9022 215.309 64.8656C216.885 62.9718 217.415 60.6825 216.209 58.2217C220.873 56.2805 224.76 51.3581 219.424 49.0504ZM176.933 32.2457C176.555 31.8135 175.475 31.2993 174.881 31.3263C174.251 31.3532 171.048 32.5345 171.551 33.1478C170.417 31.7865 168.717 32.3729 167.493 33.3009C167.538 32.0474 167.223 30.9479 166.485 29.9197C168.519 30.6138 170.3 27.6573 170.535 27.792C171.516 28.3956 172.217 28.0087 172.902 27.2779C173.252 26.9082 174.413 28.3234 175.097 28.2878C176.978 28.1887 178.13 27.2326 179.353 25.8443C180.244 24.8344 180.308 24.2211 180.308 24.1403C180.308 24.2308 180.362 24.8075 181.1 25.9888C182.89 28.8375 186.292 29.9822 188.929 28.5401C188.415 30.6138 189.162 32.5335 191.655 33.3181C192.383 33.5434 191.933 35.1753 192.581 35.8155C193.301 36.528 194.057 36.9516 194.876 37.1682C193.58 37.9701 192.68 39.1514 192.374 40.6205C191.492 39.4209 190.259 38.5834 188.684 38.0509C188.064 37.844 186.759 37.8892 186.165 38.1954C186.291 38.1318 186.587 36.6002 186.66 35.7163C186.768 34.4455 186.228 32.5162 184.824 32.1098C184.374 31.9837 182.187 32.0021 182.044 31.5332C181.783 30.6408 180.991 30.0997 180.217 29.7213C179.308 29.2708 177.661 29.6491 177.193 30.6224C176.807 31.434 176.743 32.029 176.933 32.2457ZM150.594 89.1592C145.212 92.2785 140.767 96.8938 137.113 102.177C133.775 107.001 130.752 112.13 126.342 116.07C123.4 118.693 123.975 113.969 123.705 111.724C123.408 109.218 123.202 106.694 122.94 104.178C122.868 103.448 122.778 102.69 122.688 101.942C126.54 101.6 129.924 99.4181 130.445 94.9644C132.73 96.0196 135.728 90.6014 136.06 88.9867C136.555 86.5616 137.518 87.2471 139.291 85.543C140.668 84.227 140.821 82.0357 140.605 80.1333C144.042 82.0627 146.13 77.8257 147.506 74.3906C148.64 77.3568 151.16 77.5734 153.49 76.1032C151.512 79.7561 149.846 84.9319 150.594 89.1592ZM57.4844 106.073C54.5957 103.765 52.1664 100.916 49.8448 97.9857C51.1498 96.1286 51.5274 93.6495 51.1853 91.3957C51.8781 91.9907 52.7065 92.3518 53.507 91.8646C53.8308 91.6663 54.9292 90.7641 54.8475 90.6294C55.3606 91.441 56.4225 92.4056 57.3854 92.6934C57.5747 92.7473 57.7544 92.7743 57.9341 92.8109C58.1858 95.0377 58.1589 97.3271 57.7716 99.735C57.422 101.907 57.1788 104.026 57.4844 106.073ZM35.8792 58.8588C35.7888 58.8221 35.6898 58.7865 35.5736 58.7413C35.0421 58.4793 34.4752 58.3533 33.9082 58.2185C32.8549 57.948 31.7759 58.0471 30.7678 58.3813C29.7425 58.7154 29.409 59.5529 29.3724 60.4551C27.6629 58.904 25.3412 58.8685 23.0733 60.1123C21.211 61.1309 22.0835 60.7342 20.005 60.1662C18.9797 59.887 18.1244 59.7965 17.2788 59.8957C18.5203 58.6066 19.1594 57.0836 19.1508 55.0993C20.7796 56.2806 23.1551 56.9111 24.7753 55.3967C25.5036 54.7026 25.2971 54.9462 25.8372 54.0893C26.1879 53.5299 26.0889 53.1699 26.0889 53.1516C26.1072 53.1785 26.1427 53.2605 26.2234 53.3866C26.8893 54.4051 28.005 54.2973 28.9496 53.9276C29.8856 53.5665 30.7409 52.1158 31.0378 51.2589C31.1185 51.0423 31.1637 50.8622 31.1992 50.7178C31.2347 50.8439 31.2896 50.9797 31.3703 51.1231C31.7124 51.6997 32.0007 51.8528 32.5311 52.1783C34.5376 53.4038 37.5166 50.6369 37.9749 48.8607C37.3272 51.385 41.097 51.9347 43.1315 51.0961C44.2288 50.6456 44.9669 49.7079 45.5338 48.7076C45.7135 49.0957 45.9211 49.4739 46.3257 49.6723C47.451 50.2403 48.3687 50.2489 49.5919 50.042C50.6893 49.862 52.543 48.5276 52.543 48.3465C52.9475 50.6089 55.6382 50.97 57.3574 50.0959C57.3391 51.2944 57.6361 52.2419 58.3472 53.0891C56.4849 52.963 54.8378 53.5849 53.9653 55.2706C50.9776 50.5281 40.8453 52.5749 41.0249 57.1547C38.7581 55.7847 35.1863 55.4603 35.8792 58.8588ZM59.1487 96.3721C59.4994 100.555 59.7695 104.774 61.3445 108.615C60.2913 108.056 59.2929 107.417 58.3386 106.722C57.763 103.359 58.8249 99.8611 59.1487 96.3721ZM59.6888 92.9284C63.1713 92.577 64.6022 88.5739 63.3693 85.2024C66.6452 86.3837 67.3381 82.7234 66.8335 79.3788C68.6872 80.8393 70.9906 80.1182 72.9702 77.2781C73.0691 77.1336 73.2305 76.8458 73.4016 76.5117C76.911 83.2105 82.3828 88.2225 89.1219 87.5823C89.3736 89.5838 89.6351 91.6307 90.0213 93.7217C91.7674 103.08 97.9224 109.372 103.133 116.801C90.5883 110.679 75.6415 114.989 62.8184 109.327C60.2655 104.296 60.3547 98.5084 59.6888 92.9284ZM87.2338 76.7273C87.8459 78.7741 88.2419 80.8835 88.5474 83.065C84.3989 81.1357 81.1057 78.4853 78.5226 75.3121C79.0444 74.8971 79.4317 74.2397 79.7018 73.5628C81.5199 75.9976 84.5345 77.2867 87.2338 76.7273ZM93.4791 77.872C95.2607 78.8722 97.2768 78.9897 98.6174 77.4214C99.2919 82.3709 101.803 92.4768 105.915 88.8078C106.212 91.6027 108.047 94.7402 110.36 93.2075C110.531 97.3723 113.861 100.266 117.775 101.429C117.865 102.439 117.911 103.449 117.911 104.468C117.911 105.883 117.83 107.298 117.721 108.715C117.694 109.12 116.362 117.938 115.373 117.315C106.581 111.752 97.7534 103.702 95.5759 93.0815C94.7303 88.9706 94.5592 83.1373 93.4791 77.872ZM114.437 45.778C114.797 46.6888 115.309 47.3108 116.218 47.9413C117.955 49.1399 120.025 48.5179 121.474 47.2741C121.492 48.6893 121.996 49.8706 123.391 50.7997C123.391 50.7275 124.948 51.1241 124.939 51.1425C124.444 52.7743 124.102 54.2887 124.093 56.0014C124.075 60.3915 128.755 60.4464 131.22 58.2638C131.967 61.5814 138.22 58.516 137.627 54.8287C139.076 55.1984 140.659 54.7209 141.712 53.4135C142.242 54.8287 143.268 55.6587 144.645 56.1092C143.044 57.0653 142.423 58.9127 142.899 60.8248C140.668 59.8957 138.076 61.2484 137.149 63.7274C135.386 62.1053 132.839 62.8436 131.642 65.2687C131.813 64.9346 129.302 63.736 128.456 63.6368C126.728 63.4385 125.405 63.6552 124.11 64.5024C123.606 60.8151 120.889 57.8402 117.666 60.3106C116.794 57.3713 114.058 56.3441 111.205 57.4166C111.601 54.1712 108.722 52.9446 105.662 53.3682C106.517 51.8269 106.445 50.1584 105.617 48.6623C106.607 49.0859 107.704 48.9965 108.479 47.7968C109.522 46.1833 111.403 48.3023 113.553 46.8235C113.86 46.6069 114.147 46.3094 114.328 45.985C114.374 45.9042 114.401 45.8405 114.437 45.778ZM154.562 87.2212C154.31 83.4887 155.821 80.3877 158.017 77.5303C160.132 78.6566 162.939 78.3592 164.955 76.5926C165.477 79.6763 169.508 80.3338 172.362 78.855C172.11 80.379 172.335 81.8029 172.902 83.092C168.897 84.2281 164.658 84.7691 160.646 85.4718C158.503 85.8415 156.487 86.4463 154.562 87.2212ZM174.628 83.6514C175.996 83.2461 177.346 82.7589 178.678 82.1456C179.047 81.9828 179.407 81.8029 179.776 81.6143C178.201 82.5067 176.618 83.3809 175.034 84.2377C174.89 84.048 174.755 83.8583 174.628 83.6514Z"/>
</mask>
<path d="M219.424 49.0504C223.626 46.9227 221.737 42.2255 217.327 40.6302C221.187 35.2486 222.78 28.18 218.065 22.627C213.007 16.6859 205.098 15.081 197.908 17.3887C200.571 9.89655 190.547 8.7163 185.184 12.2947C183.726 7.34528 178.155 9.05799 175.42 12.5017C173.35 6.62422 167.321 3.81962 162.471 9.20239C161.535 10.2479 160.356 12.1686 160.213 13.6194C160.104 14.6746 160.132 15.7018 160.123 16.757C160.123 18.722 157.91 18.4072 156.748 18.7586C155.722 19.083 154.57 21.4726 154.21 22.4006C153.508 24.1672 153.4 25.6816 153.706 27.404C151.223 26.656 149.144 27.7101 147.749 30.1989C147.669 30.1989 144.636 28.0895 144.203 27.972C142.601 27.5484 141.477 27.6293 140.181 28.2242C140.261 26.2949 139.65 24.8344 137.751 23.68C136.555 22.9503 134.935 22.9859 133.612 23.0668C132.873 23.112 132.874 21.201 132.577 20.7224C130.552 17.5039 127.385 17.9631 125.908 20.4066C123.857 15.8721 115.578 14.3663 114.147 19.1897C111.582 16.3765 108.658 15.7815 104.951 17.1968C104.303 13.5903 101.802 11.4271 97.8965 11.9768C97.4468 12.0393 96.2494 7.34313 95.7459 6.40541C94.9724 4.9363 93.3252 3.43917 91.6157 3.25917C89.7082 3.05222 86.6485 4.89963 85.6404 3.35831C84.6959 1.8892 83.1477 1.03233 81.5641 0.437354C77.9019 -0.932588 73.0153 1.08621 70.784 4.12465C69.6232 5.70262 68.2461 3.18693 66.3655 3.35831C64.3494 3.53831 62.9551 4.33164 61.5242 5.75655C60.2009 7.05536 60.4623 9.38026 58.4107 8.70445C57.0971 8.28085 55.8459 8.74972 54.8561 9.60553C51.6253 12.4187 54.1901 18.197 51.4639 21.0727C50.2579 22.3532 48.5849 23.2995 48.6118 25.3367C48.6473 28.0237 49.7458 29.9348 51.4639 31.7466C50.4203 31.8641 49.3402 32.1164 48.6473 32.8374C48.2697 33.2438 46.5322 35.3887 47.5672 35.8845C45.2369 34.7667 42.6721 35.2356 41.565 37.3094C39.3606 34.3259 36.1653 32.0894 32.3773 33.6404C30.3439 34.479 30.5322 34.7312 28.6247 33.3516C27.1217 32.2694 25.2497 31.8372 23.4326 31.918C20.3729 32.0441 18.3934 35.1548 18.1502 37.9496C18.0598 39.0221 15.3153 38.6976 14.6763 39.7701C13.9748 40.9417 14.0555 41.8892 14.4332 42.9799C-2.63736 41.0775 -4.7073 66.8618 8.97967 73.4065C5.49714 75.1105 6.49553 77.9323 9.01625 81.2047C12.247 85.3964 11.9135 89.4718 17.3035 90.4181C14.8194 94.7543 15.5843 101.543 20.0125 104.41C22.3966 105.961 24.728 105.988 27.2928 104.878C28.3095 104.445 29.2368 103.778 29.5876 102.976C30.5505 105.112 32.7463 106.771 35.2207 105.68C36.2471 105.23 37.2638 104.4 37.3262 103.165C37.4789 100.198 35.7694 100.956 39.2068 101.497C39.423 101.533 39.7199 101.443 39.7554 101.181C40.0169 99.3513 40.7818 100.469 42.1847 100.19C42.8238 100.064 43.1121 99.4505 43.2552 98.7833C44.0836 100.01 45.181 100.64 46.5215 100.37C53.3069 108.286 60.1008 115.84 71.2499 118.193C81.4543 120.339 100.271 115.904 106.857 126.388C106.758 126.478 106.713 126.622 106.812 126.785C111.59 134.376 110.717 145.672 110.313 154.263C110.007 160.673 109.323 167.002 108 173.285C107.577 175.287 104.724 181.273 106.146 183.418C107.271 185.122 109.907 184.536 111.627 184.436C115.837 184.203 120.004 185.211 124.233 184.959C126.096 184.851 128.904 183.85 128.625 181.443C128.427 179.749 127.833 178.297 127.149 176.746C125.782 173.645 125.043 170.58 124.431 167.253C123.18 160.528 122.947 153.613 123.541 146.815C124.126 140.081 126.897 135.266 131.405 130.399C134.653 126.891 137.875 123.556 139.945 119.184C142.141 114.523 143.04 109.447 145.83 105.048C149.366 99.4677 156.637 95.7707 162.226 92.5792C166.356 90.2177 170.676 88.1795 174.851 85.8987C179.189 90.2715 187.656 91.4162 190.113 85.6099C192.606 88.4317 197.833 90.2348 199.814 86.9258C204.61 96.3645 221.662 79.299 213.582 73.6738C218.054 71.9794 219.665 64.9022 215.309 64.8656C216.885 62.9718 217.415 60.6825 216.209 58.2217C220.873 56.2805 224.76 51.3581 219.424 49.0504ZM176.933 32.2457C176.555 31.8135 175.475 31.2993 174.881 31.3263C174.251 31.3532 171.048 32.5345 171.551 33.1478C170.417 31.7865 168.717 32.3729 167.493 33.3009C167.538 32.0474 167.223 30.9479 166.485 29.9197C168.519 30.6138 170.3 27.6573 170.535 27.792C171.516 28.3956 172.217 28.0087 172.902 27.2779C173.252 26.9082 174.413 28.3234 175.097 28.2878C176.978 28.1887 178.13 27.2326 179.353 25.8443C180.244 24.8344 180.308 24.2211 180.308 24.1403C180.308 24.2308 180.362 24.8075 181.1 25.9888C182.89 28.8375 186.292 29.9822 188.929 28.5401C188.415 30.6138 189.162 32.5335 191.655 33.3181C192.383 33.5434 191.933 35.1753 192.581 35.8155C193.301 36.528 194.057 36.9516 194.876 37.1682C193.58 37.9701 192.68 39.1514 192.374 40.6205C191.492 39.4209 190.259 38.5834 188.684 38.0509C188.064 37.844 186.759 37.8892 186.165 38.1954C186.291 38.1318 186.587 36.6002 186.66 35.7163C186.768 34.4455 186.228 32.5162 184.824 32.1098C184.374 31.9837 182.187 32.0021 182.044 31.5332C181.783 30.6408 180.991 30.0997 180.217 29.7213C179.308 29.2708 177.661 29.6491 177.193 30.6224C176.807 31.434 176.743 32.029 176.933 32.2457ZM150.594 89.1592C145.212 92.2785 140.767 96.8938 137.113 102.177C133.775 107.001 130.752 112.13 126.342 116.07C123.4 118.693 123.975 113.969 123.705 111.724C123.408 109.218 123.202 106.694 122.94 104.178C122.868 103.448 122.778 102.69 122.688 101.942C126.54 101.6 129.924 99.4181 130.445 94.9644C132.73 96.0196 135.728 90.6014 136.06 88.9867C136.555 86.5616 137.518 87.2471 139.291 85.543C140.668 84.227 140.821 82.0357 140.605 80.1333C144.042 82.0627 146.13 77.8257 147.506 74.3906C148.64 77.3568 151.16 77.5734 153.49 76.1032C151.512 79.7561 149.846 84.9319 150.594 89.1592ZM57.4844 106.073C54.5957 103.765 52.1664 100.916 49.8448 97.9857C51.1498 96.1286 51.5274 93.6495 51.1853 91.3957C51.8781 91.9907 52.7065 92.3518 53.507 91.8646C53.8308 91.6663 54.9292 90.7641 54.8475 90.6294C55.3606 91.441 56.4225 92.4056 57.3854 92.6934C57.5747 92.7473 57.7544 92.7743 57.9341 92.8109C58.1858 95.0377 58.1589 97.3271 57.7716 99.735C57.422 101.907 57.1788 104.026 57.4844 106.073ZM35.8792 58.8588C35.7888 58.8221 35.6898 58.7865 35.5736 58.7413C35.0421 58.4793 34.4752 58.3533 33.9082 58.2185C32.8549 57.948 31.7759 58.0471 30.7678 58.3813C29.7425 58.7154 29.409 59.5529 29.3724 60.4551C27.6629 58.904 25.3412 58.8685 23.0733 60.1123C21.211 61.1309 22.0835 60.7342 20.005 60.1662C18.9797 59.887 18.1244 59.7965 17.2788 59.8957C18.5203 58.6066 19.1594 57.0836 19.1508 55.0993C20.7796 56.2806 23.1551 56.9111 24.7753 55.3967C25.5036 54.7026 25.2971 54.9462 25.8372 54.0893C26.1879 53.5299 26.0889 53.1699 26.0889 53.1516C26.1072 53.1785 26.1427 53.2605 26.2234 53.3866C26.8893 54.4051 28.005 54.2973 28.9496 53.9276C29.8856 53.5665 30.7409 52.1158 31.0378 51.2589C31.1185 51.0423 31.1637 50.8622 31.1992 50.7178C31.2347 50.8439 31.2896 50.9797 31.3703 51.1231C31.7124 51.6997 32.0007 51.8528 32.5311 52.1783C34.5376 53.4038 37.5166 50.6369 37.9749 48.8607C37.3272 51.385 41.097 51.9347 43.1315 51.0961C44.2288 50.6456 44.9669 49.7079 45.5338 48.7076C45.7135 49.0957 45.9211 49.4739 46.3257 49.6723C47.451 50.2403 48.3687 50.2489 49.5919 50.042C50.6893 49.862 52.543 48.5276 52.543 48.3465C52.9475 50.6089 55.6382 50.97 57.3574 50.0959C57.3391 51.2944 57.6361 52.2419 58.3472 53.0891C56.4849 52.963 54.8378 53.5849 53.9653 55.2706C50.9776 50.5281 40.8453 52.5749 41.0249 57.1547C38.7581 55.7847 35.1863 55.4603 35.8792 58.8588ZM59.1487 96.3721C59.4994 100.555 59.7695 104.774 61.3445 108.615C60.2913 108.056 59.2929 107.417 58.3386 106.722C57.763 103.359 58.8249 99.8611 59.1487 96.3721ZM59.6888 92.9284C63.1713 92.577 64.6022 88.5739 63.3693 85.2024C66.6452 86.3837 67.3381 82.7234 66.8335 79.3788C68.6872 80.8393 70.9906 80.1182 72.9702 77.2781C73.0691 77.1336 73.2305 76.8458 73.4016 76.5117C76.911 83.2105 82.3828 88.2225 89.1219 87.5823C89.3736 89.5838 89.6351 91.6307 90.0213 93.7217C91.7674 103.08 97.9224 109.372 103.133 116.801C90.5883 110.679 75.6415 114.989 62.8184 109.327C60.2655 104.296 60.3547 98.5084 59.6888 92.9284ZM87.2338 76.7273C87.8459 78.7741 88.2419 80.8835 88.5474 83.065C84.3989 81.1357 81.1057 78.4853 78.5226 75.3121C79.0444 74.8971 79.4317 74.2397 79.7018 73.5628C81.5199 75.9976 84.5345 77.2867 87.2338 76.7273ZM93.4791 77.872C95.2607 78.8722 97.2768 78.9897 98.6174 77.4214C99.2919 82.3709 101.803 92.4768 105.915 88.8078C106.212 91.6027 108.047 94.7402 110.36 93.2075C110.531 97.3723 113.861 100.266 117.775 101.429C117.865 102.439 117.911 103.449 117.911 104.468C117.911 105.883 117.83 107.298 117.721 108.715C117.694 109.12 116.362 117.938 115.373 117.315C106.581 111.752 97.7534 103.702 95.5759 93.0815C94.7303 88.9706 94.5592 83.1373 93.4791 77.872ZM114.437 45.778C114.797 46.6888 115.309 47.3108 116.218 47.9413C117.955 49.1399 120.025 48.5179 121.474 47.2741C121.492 48.6893 121.996 49.8706 123.391 50.7997C123.391 50.7275 124.948 51.1241 124.939 51.1425C124.444 52.7743 124.102 54.2887 124.093 56.0014C124.075 60.3915 128.755 60.4464 131.22 58.2638C131.967 61.5814 138.22 58.516 137.627 54.8287C139.076 55.1984 140.659 54.7209 141.712 53.4135C142.242 54.8287 143.268 55.6587 144.645 56.1092C143.044 57.0653 142.423 58.9127 142.899 60.8248C140.668 59.8957 138.076 61.2484 137.149 63.7274C135.386 62.1053 132.839 62.8436 131.642 65.2687C131.813 64.9346 129.302 63.736 128.456 63.6368C126.728 63.4385 125.405 63.6552 124.11 64.5024C123.606 60.8151 120.889 57.8402 117.666 60.3106C116.794 57.3713 114.058 56.3441 111.205 57.4166C111.601 54.1712 108.722 52.9446 105.662 53.3682C106.517 51.8269 106.445 50.1584 105.617 48.6623C106.607 49.0859 107.704 48.9965 108.479 47.7968C109.522 46.1833 111.403 48.3023 113.553 46.8235C113.86 46.6069 114.147 46.3094 114.328 45.985C114.374 45.9042 114.401 45.8405 114.437 45.778ZM154.562 87.2212C154.31 83.4887 155.821 80.3877 158.017 77.5303C160.132 78.6566 162.939 78.3592 164.955 76.5926C165.477 79.6763 169.508 80.3338 172.362 78.855C172.11 80.379 172.335 81.8029 172.902 83.092C168.897 84.2281 164.658 84.7691 160.646 85.4718C158.503 85.8415 156.487 86.4463 154.562 87.2212ZM174.628 83.6514C175.996 83.2461 177.346 82.7589 178.678 82.1456C179.047 81.9828 179.407 81.8029 179.776 81.6143C178.201 82.5067 176.618 83.3809 175.034 84.2377C174.89 84.048 174.755 83.8583 174.628 83.6514Z" stroke="#1F3C15" stroke-width="2" mask="url(#path-1-inside-1_1424_14995)"/>
</svg>
