<svg width="497" height="515" viewBox="0 0 497 515" fill="none" xmlns="http://www.w3.org/2000/svg">
<mask id="path-1-inside-1_1416_26893" fill="white">
<path d="M492.542 240.646C494.536 237.65 495.882 234.281 496.742 230.799C497.485 227.78 496.72 223.11 493.191 222.088C489.757 221.088 491.544 214.212 489.433 210.288C487.089 205.967 482.473 205.365 478.551 207.383C475.464 208.963 474.978 206.964 471.891 207.15C470.036 207.267 463.955 210.008 462.749 209.216C460.707 207.869 457.784 208.775 455.72 209.216C454.536 209.472 452.519 207.45 450.733 205.662C452.588 205.198 454.236 204.245 455.024 202.154C455.72 200.366 456.322 198.902 456.067 196.906C455.487 192.818 456.158 194.884 460.266 194.909C466.879 194.956 472.005 190.96 469.314 185.945C479.569 184.806 487.203 170.383 479.963 166.339C485.416 163.321 491.727 157.303 487.294 152.868C484.465 150.036 486.04 150.222 484.834 145.645C483.999 142.441 480.102 136.864 477.641 134.404C476.806 133.546 475.971 135.007 476.806 133.754C478.315 131.477 478.662 129.875 478.57 127.159C478.432 123.721 475.578 120.469 472.377 119.494C471.866 115.198 466.879 111.549 462.191 110.414C465.858 103.702 462.286 98.3809 454.929 95.8955C461.845 86.9536 451.335 79.2641 441.288 80.2638C442.078 74.2238 436.647 71.0414 431.103 72.9464C432.193 59.7779 416.881 61.3109 409.758 70.3444C406.277 61.658 396.719 66.2567 395.745 74.7348C393.31 72.5993 389.643 72.4577 386.001 73.2491C384.076 73.6657 383.843 71.6468 382.103 70.5998C380.689 69.764 379.249 69.5779 377.812 69.6946C382.661 61.3081 382.384 49.603 371.943 48.209C376.004 41.9385 376.281 33.7853 368.046 33.1354C370.295 27.2815 368.185 21.5915 361.921 21.2888C364.565 11.4416 354.357 5.58775 346.957 11.7416C344.474 1.49724 330.02 6.16538 323.501 13.1801C321.391 9.83656 318.675 8.1398 314.22 7.76769C312.295 7.62884 301.136 13.3411 302.179 14.5047C295.891 7.58161 291.739 19.3117 291.276 25.6765C287.794 24.7462 283.642 25.0738 281.601 27.2093C277.864 21.2166 268.747 20.1947 266.264 26.9317C263.526 24.1908 260.07 22.8662 255.824 23.9825C252.969 24.7712 253.943 26.7456 250.395 26.3985C246.8 26.0486 243.968 26.5373 241.092 27.9314C241.927 19.6615 240.024 4.4936 230.025 9.07008C226.011 10.9057 224.943 3.35505 219.282 3.93822C218.028 4.07707 214.086 5.58775 213.551 4.75188C212.691 3.35783 211.973 2.40529 211.068 1.75547C210.952 1.26672 210.627 0.825168 210.001 0.664102C204.456 -0.868797 200.278 0.244807 196.035 4.07983C193.064 6.7513 187.985 5.26562 185.966 9.53941C183.691 14.277 185.943 17.7621 180.26 18.8062C176.385 19.5255 175.342 22.5218 175.295 25.657C172.185 24.1713 169.309 24.2158 165.528 25.6348C163.487 26.4013 162.976 22.2192 160.935 21.175C157.665 19.5033 153.79 18.7812 150.425 20.8251C150.1 21.0334 146.666 17.0151 145.274 16.854C142.558 16.5291 138.431 19.4311 136.55 18.062C132.861 15.3211 129.66 14.9489 125.369 16.6679C120.382 18.6646 117.83 24.0547 119.128 28.7006C115.949 26.704 112.005 25.7737 108.943 28.9561C106.807 31.1611 105.881 32.9522 105.115 35.9235C105.021 36.2262 101.659 35.1349 99.9641 34.9711C98.3858 34.8322 95.5316 35.807 94.3721 36.8289C90.9382 39.8003 87.69 39.7781 83.632 41.4054C79.0607 43.216 77.1829 47.9563 76.5089 52.5994C69.039 45.4236 57.3696 51.7164 53.6805 61.8218C52.8456 64.0518 53.331 66.7926 50.8041 66.9315C47.9277 67.0953 44.6795 67.3508 42.4522 69.5086C38.089 73.7129 37.279 78.6365 39.2262 83.5851C36.9767 83.0964 35.049 83.9322 32.7772 87.1869C30.7357 90.1138 29.9923 92.1327 29.8092 95.6873C29.6456 98.5448 31.9201 99.4278 30.622 102.424C29.9729 103.957 28.8357 116.454 31.737 115.432C26.772 117.151 24.9856 122.282 24.9162 127.045C24.7997 132.666 28.5583 138.031 32.5248 141.608C33.8701 142.838 37.6064 143.235 36.422 145.209C35.4706 146.742 34.6134 150.227 35.0295 152.06C36.5384 158.542 31.6649 155.545 29.9035 160.98C28.6026 164.951 29.2295 168.783 30.7856 172.36C26.6332 170.619 22.1785 171.385 20.1842 177.331C19.1412 180.466 19.2549 180.163 18.8139 183.487C18.5365 185.717 15.2884 185.809 14.1734 186.995C11.7851 189.527 10.9502 191.779 11.2719 194.52C2.61768 191.502 -3.45971 205.925 4.31247 213.357C1.04216 214.937 -1.39602 217.722 0.90346 221.857C1.71618 223.296 5.98511 227.711 5.26393 228.269C3.33891 229.78 2.3625 233.704 3.05872 235.981C3.82429 238.536 4.8922 241.277 7.30263 242.809C11.2941 245.342 9.01959 243.854 8.90309 247.641C8.74221 253.309 14.4257 255.328 19.2965 255.981C21.3602 256.258 23.3574 256.422 25.4211 256.444C24.6333 256.444 24.2838 257.35 24.2145 257.955C23.9371 261.485 24.539 263.043 26.7885 265.642C27.6012 266.572 32.7523 268.755 32.7523 268.847C30.572 272.259 29.457 274.862 30.0145 278.835C30.131 279.694 32.4748 281.251 31.9173 282.065C29.8286 285.084 28.9715 287.569 28.9715 291.193C28.9715 296.58 33.4485 298.788 37.9032 298.741C32.1725 302.412 32.4277 308.102 37.3706 311.168C35.2819 312.654 33.4041 314.839 34.031 317.486C35.4456 323.431 38.1611 319.182 33.4041 323.873C29.2295 327.983 29.3682 334.953 34.3777 335.603C30.2947 342.478 32.522 351.979 40.8489 355.347C43.5866 356.463 45.581 356.811 48.4602 356.763C50.0607 356.741 48.8541 358.088 49.3423 359.504C50.5711 363.15 52.6819 364.778 56.4876 365.45C60.3154 366.125 63.7494 363.8 66.0239 361.012C65.6994 361.406 67.1612 365.053 70.1763 365.797C77.2745 367.563 82.0093 362.778 82.1701 356.622C85.0466 358.735 88.7135 359.99 91.798 357.041C93.0961 355.811 95.8811 361.059 97.0877 361.64C99.107 362.639 100.569 363.009 102.191 362.895C97.1348 371.79 112.26 371.023 118.293 368.91C115.789 378.155 131.286 380.384 136.229 372.092C139.754 375.669 144.581 375.322 144.744 370.235C149.476 372.115 154.489 370.187 153.421 365.891C157.967 367.541 162.05 366.588 164.951 364.264C168.061 365.983 171.098 367.655 173.908 369.399C190.542 379.757 206.25 391.626 222.094 403.1C260.977 431.206 254.667 491.597 235.178 529.689C234.876 530.292 234.876 530.989 235.2 531.547C235.015 531.919 235.015 532.361 235.386 532.708C236.546 533.799 237.311 533.613 238.984 533.311C247.893 531.614 257.613 531.128 266.686 530.872C277.451 530.595 289.656 538.095 300.21 535.424C302.113 534.96 301.577 532.264 299.769 532.15C299.491 532.128 299.236 532.103 298.981 532.08C281.742 524.369 282.485 491.525 280.721 475.777C279.074 461.028 278.818 446.138 278.702 431.342C278.633 419.612 278.655 407.882 282.042 396.547C289.234 372.623 313.688 355.319 330.508 338.269C336.866 331.834 343.431 324.52 348.441 316.436C351.411 317.947 355.911 317.738 359.02 315.02C360.365 321.732 366.701 326.402 373.474 321.779C374.659 320.965 375.771 320.013 375.169 318.76C376.539 321.665 378.905 324.217 381.063 326.519C384.334 330.074 388.65 332.698 393.545 332.487C395.703 332.395 400.25 327.216 400.691 327.494C405.145 330.257 408.995 330.582 413.683 328.191C413.847 328.096 416.585 324.731 417.558 325.381C418.881 326.241 421.455 326.425 422.939 326.03C426.304 325.1 427.255 322.731 427.23 319.968C431.777 320.804 433.122 315.928 436.07 316.833C443.424 319.085 451.429 317.763 458.366 314.603C468.413 310.027 483.028 298.413 474.909 287.405C477.625 287.08 480.107 285.781 480.917 282.643C481.056 282.179 482.285 275.975 481.45 275.975C482.959 275.811 484.72 274.745 485.719 273.654C489.175 269.844 491.216 263.27 487.319 261.435C492.911 256.533 498.941 245.873 489.871 244.362C489.94 244.267 490.01 244.198 490.079 244.106C491.011 243.037 491.754 241.829 492.542 240.646ZM392.849 138.422C390.089 133.59 385.099 136.656 382.153 141.372C380.9 138.769 378.511 137.098 375.494 136.842C376.933 134.149 376.514 131.013 374.867 128.2C377.441 128.642 380.273 127.087 381.779 124.276C385.213 127.736 388.508 125.207 390.874 121.302C392.427 126.04 396.744 129.083 401.22 126.806C401.592 130.708 404.932 132.891 408.668 132.405C406.28 137.284 406.627 142.788 410.152 146.04C408.249 145.762 406.255 145.945 404.144 146.784C403.104 139.955 396.957 132.893 392.849 138.422ZM125.857 117.053C128.595 110.827 122.701 108.459 117.808 111.061C117.972 109.575 117.877 108.112 117.483 106.531C120.779 107.601 123.167 105.346 124.282 101.98C126.462 103.977 129.153 104.118 131.938 102.816C132.284 107.228 135.233 109.994 139.316 111.852C137.111 116.381 138.828 120.702 143.122 122.21C141.521 123.696 140.384 125.37 139.943 127.437C137.274 125.276 133.771 124.51 130.315 125.207C130.775 121.419 129.499 118.05 125.857 117.053ZM97.6923 321.732C95.0461 319.385 91.9395 319.341 88.9688 321.173C88.6664 317.991 87.1602 315.692 83.84 315.342C84.7692 312.276 83.8622 309.768 81.5905 308.28C82.0786 308.116 82.564 307.933 82.9607 307.747C85.9536 306.33 87.2767 303.473 87.0437 300.546C90.0145 301.521 92.9824 300.476 95.0932 298.199C96.7409 304.075 102.169 308.233 107.994 303.356C107.994 303.356 107.994 303.334 108.016 303.334C110.638 307.491 115.325 308.327 119.708 306.958C119.5 308.374 119.777 309.721 120.729 310.907C117.874 312.068 116.252 314.253 115.786 317.294C109.129 312.326 101.845 314.392 97.6923 321.732ZM192.537 274.603C194.786 278.366 197.918 280.341 201.074 280.224C200.936 282.895 200.611 285.567 200.076 288.26C197.918 298.991 191.932 290.213 187.247 285.983C185.785 284.637 184.346 283.29 182.956 281.918C183.189 279.735 183.05 277.436 182.562 275.228C184.093 276.272 185.788 276.783 188.107 276.925C190.124 277.041 192.559 274.628 192.537 274.603ZM203.904 268.588C204.716 270.446 205.296 272.446 205.712 274.534C205.249 274.395 204.808 274.278 204.367 274.139C204.275 272.304 204.137 270.446 203.904 268.588ZM224.482 348.141C217.545 329.954 209.03 313.812 209.216 294.067C209.263 290.746 209.401 287.216 209.354 283.64C213.16 290.49 218.635 296.764 224.643 292.187C225.059 300.293 227.869 311.534 235.059 308.052C235.569 312.906 235.661 317.855 235.916 322.592C236.266 328.957 236.241 335.275 235.661 341.593C235.242 346.216 234.083 350.629 231.994 354.764C228.055 362.612 225.689 351.323 224.482 348.141ZM252.742 350.487C251.072 340.94 249.632 331.396 249.122 321.709C249.006 319.41 248.936 317.133 248.914 314.859C250.748 314.464 252.301 313.14 253.161 310.607C254.043 316.391 261.676 318.713 264.947 314.717C265.643 315.761 266.711 316.458 268.311 316.18C269.263 316.017 270.145 315.647 270.955 315.158C270.353 318.249 269.701 321.337 269.077 324.403C266.594 336.202 264.739 348.305 259.241 359.174C253.646 370.301 253.693 355.853 252.742 350.487ZM290.443 249.727C290.396 249.658 290.327 249.588 290.305 249.519C292.787 249.913 294.712 249.172 295.966 247.708C298.426 252.076 306.429 251.285 308.703 245.85C310.398 248.708 315.688 248.5 319.352 245.617C320.65 248.522 324.478 250.194 328.422 250.216C327.82 252.026 327.959 254.187 328.63 256.3C326.68 255.975 324.686 256.647 322.947 258.413C320.417 254.603 316.52 254.556 314.734 258.622C310.418 253.581 303.505 256.669 302.529 262.848C299.838 260.782 296.474 261.129 293.226 263.012C293.134 260.527 292.11 258.691 290.025 257.716C292.23 255.859 292.416 253.095 290.443 249.727ZM273.507 376.733C270.863 377.707 273.995 350.16 274.134 349.115C275.387 339.871 277.545 330.812 279.773 321.754C280.006 320.848 280.236 319.988 280.469 319.105C282.882 320.01 285.642 320.149 288.033 318.874C288.149 322.359 289.586 325.564 293.902 325.564C299.564 325.564 300.468 319.549 300.562 314.695C304.995 317.669 309.888 309.702 312.534 305.358C310.029 309.468 319.1 311.582 321.443 311.676C325.085 311.815 328.078 309.446 330.328 306.705C332.045 312.373 338.053 314.067 341.093 311.096C341.187 311.235 341.301 311.376 341.395 311.49C335.293 320.038 327.659 327.724 320.794 335.228C307.425 349.768 292.576 369.79 273.507 376.733ZM164.186 345.494C166.505 345.633 167.966 344.17 169.315 341.454C171.936 336.136 166.183 336.738 171.309 335.414C178.454 333.556 174.21 326.122 170.08 321.709C178.895 320.99 172.446 308.283 166.322 302.618C171.264 300.899 173.7 296.902 171.681 292.515C174.141 292.909 176.227 292.493 177.874 291.446C184.185 296.997 191.122 302.176 195.668 309.03C211.213 332.326 210.356 362.615 223.392 387.283C209.657 378.874 196.04 369.979 181.098 363.914C177.641 362.52 173.187 361.104 168.524 359.479C170.38 354.969 169.498 349.349 164.186 345.494ZM348.21 309.33C348.141 309.307 348.047 309.307 347.977 309.282C347.955 309.282 347.93 309.282 347.93 309.26C348.163 308.727 347.814 308.238 347.373 308.147C349.043 305.358 350.574 302.479 351.827 299.507C351.02 302.87 349.744 306.147 348.21 309.33Z"/>
</mask>
<path d="M492.542 240.646C494.536 237.65 495.882 234.281 496.742 230.799C497.485 227.78 496.72 223.11 493.191 222.088C489.757 221.088 491.544 214.212 489.433 210.288C487.089 205.967 482.473 205.365 478.551 207.383C475.464 208.963 474.978 206.964 471.891 207.15C470.036 207.267 463.955 210.008 462.749 209.216C460.707 207.869 457.784 208.775 455.72 209.216C454.536 209.472 452.519 207.45 450.733 205.662C452.588 205.198 454.236 204.245 455.024 202.154C455.72 200.366 456.322 198.902 456.067 196.906C455.487 192.818 456.158 194.884 460.266 194.909C466.879 194.956 472.005 190.96 469.314 185.945C479.569 184.806 487.203 170.383 479.963 166.339C485.416 163.321 491.727 157.303 487.294 152.868C484.465 150.036 486.04 150.222 484.834 145.645C483.999 142.441 480.102 136.864 477.641 134.404C476.806 133.546 475.971 135.007 476.806 133.754C478.315 131.477 478.662 129.875 478.57 127.159C478.432 123.721 475.578 120.469 472.377 119.494C471.866 115.198 466.879 111.549 462.191 110.414C465.858 103.702 462.286 98.3809 454.929 95.8955C461.845 86.9536 451.335 79.2641 441.288 80.2638C442.078 74.2238 436.647 71.0414 431.103 72.9464C432.193 59.7779 416.881 61.3109 409.758 70.3444C406.277 61.658 396.719 66.2567 395.745 74.7348C393.31 72.5993 389.643 72.4577 386.001 73.2491C384.076 73.6657 383.843 71.6468 382.103 70.5998C380.689 69.764 379.249 69.5779 377.812 69.6946C382.661 61.3081 382.384 49.603 371.943 48.209C376.004 41.9385 376.281 33.7853 368.046 33.1354C370.295 27.2815 368.185 21.5915 361.921 21.2888C364.565 11.4416 354.357 5.58775 346.957 11.7416C344.474 1.49724 330.02 6.16538 323.501 13.1801C321.391 9.83656 318.675 8.1398 314.22 7.76769C312.295 7.62884 301.136 13.3411 302.179 14.5047C295.891 7.58161 291.739 19.3117 291.276 25.6765C287.794 24.7462 283.642 25.0738 281.601 27.2093C277.864 21.2166 268.747 20.1947 266.264 26.9317C263.526 24.1908 260.07 22.8662 255.824 23.9825C252.969 24.7712 253.943 26.7456 250.395 26.3985C246.8 26.0486 243.968 26.5373 241.092 27.9314C241.927 19.6615 240.024 4.4936 230.025 9.07008C226.011 10.9057 224.943 3.35505 219.282 3.93822C218.028 4.07707 214.086 5.58775 213.551 4.75188C212.691 3.35783 211.973 2.40529 211.068 1.75547C210.952 1.26672 210.627 0.825168 210.001 0.664102C204.456 -0.868797 200.278 0.244807 196.035 4.07983C193.064 6.7513 187.985 5.26562 185.966 9.53941C183.691 14.277 185.943 17.7621 180.26 18.8062C176.385 19.5255 175.342 22.5218 175.295 25.657C172.185 24.1713 169.309 24.2158 165.528 25.6348C163.487 26.4013 162.976 22.2192 160.935 21.175C157.665 19.5033 153.79 18.7812 150.425 20.8251C150.1 21.0334 146.666 17.0151 145.274 16.854C142.558 16.5291 138.431 19.4311 136.55 18.062C132.861 15.3211 129.66 14.9489 125.369 16.6679C120.382 18.6646 117.83 24.0547 119.128 28.7006C115.949 26.704 112.005 25.7737 108.943 28.9561C106.807 31.1611 105.881 32.9522 105.115 35.9235C105.021 36.2262 101.659 35.1349 99.9641 34.9711C98.3858 34.8322 95.5316 35.807 94.3721 36.8289C90.9382 39.8003 87.69 39.7781 83.632 41.4054C79.0607 43.216 77.1829 47.9563 76.5089 52.5994C69.039 45.4236 57.3696 51.7164 53.6805 61.8218C52.8456 64.0518 53.331 66.7926 50.8041 66.9315C47.9277 67.0953 44.6795 67.3508 42.4522 69.5086C38.089 73.7129 37.279 78.6365 39.2262 83.5851C36.9767 83.0964 35.049 83.9322 32.7772 87.1869C30.7357 90.1138 29.9923 92.1327 29.8092 95.6873C29.6456 98.5448 31.9201 99.4278 30.622 102.424C29.9729 103.957 28.8357 116.454 31.737 115.432C26.772 117.151 24.9856 122.282 24.9162 127.045C24.7997 132.666 28.5583 138.031 32.5248 141.608C33.8701 142.838 37.6064 143.235 36.422 145.209C35.4706 146.742 34.6134 150.227 35.0295 152.06C36.5384 158.542 31.6649 155.545 29.9035 160.98C28.6026 164.951 29.2295 168.783 30.7856 172.36C26.6332 170.619 22.1785 171.385 20.1842 177.331C19.1412 180.466 19.2549 180.163 18.8139 183.487C18.5365 185.717 15.2884 185.809 14.1734 186.995C11.7851 189.527 10.9502 191.779 11.2719 194.52C2.61768 191.502 -3.45971 205.925 4.31247 213.357C1.04216 214.937 -1.39602 217.722 0.90346 221.857C1.71618 223.296 5.98511 227.711 5.26393 228.269C3.33891 229.78 2.3625 233.704 3.05872 235.981C3.82429 238.536 4.8922 241.277 7.30263 242.809C11.2941 245.342 9.01959 243.854 8.90309 247.641C8.74221 253.309 14.4257 255.328 19.2965 255.981C21.3602 256.258 23.3574 256.422 25.4211 256.444C24.6333 256.444 24.2838 257.35 24.2145 257.955C23.9371 261.485 24.539 263.043 26.7885 265.642C27.6012 266.572 32.7523 268.755 32.7523 268.847C30.572 272.259 29.457 274.862 30.0145 278.835C30.131 279.694 32.4748 281.251 31.9173 282.065C29.8286 285.084 28.9715 287.569 28.9715 291.193C28.9715 296.58 33.4485 298.788 37.9032 298.741C32.1725 302.412 32.4277 308.102 37.3706 311.168C35.2819 312.654 33.4041 314.839 34.031 317.486C35.4456 323.431 38.1611 319.182 33.4041 323.873C29.2295 327.983 29.3682 334.953 34.3777 335.603C30.2947 342.478 32.522 351.979 40.8489 355.347C43.5866 356.463 45.581 356.811 48.4602 356.763C50.0607 356.741 48.8541 358.088 49.3423 359.504C50.5711 363.15 52.6819 364.778 56.4876 365.45C60.3154 366.125 63.7494 363.8 66.0239 361.012C65.6994 361.406 67.1612 365.053 70.1763 365.797C77.2745 367.563 82.0093 362.778 82.1701 356.622C85.0466 358.735 88.7135 359.99 91.798 357.041C93.0961 355.811 95.8811 361.059 97.0877 361.64C99.107 362.639 100.569 363.009 102.191 362.895C97.1348 371.79 112.26 371.023 118.293 368.91C115.789 378.155 131.286 380.384 136.229 372.092C139.754 375.669 144.581 375.322 144.744 370.235C149.476 372.115 154.489 370.187 153.421 365.891C157.967 367.541 162.05 366.588 164.951 364.264C168.061 365.983 171.098 367.655 173.908 369.399C190.542 379.757 206.25 391.626 222.094 403.1C260.977 431.206 254.667 491.597 235.178 529.689C234.876 530.292 234.876 530.989 235.2 531.547C235.015 531.919 235.015 532.361 235.386 532.708C236.546 533.799 237.311 533.613 238.984 533.311C247.893 531.614 257.613 531.128 266.686 530.872C277.451 530.595 289.656 538.095 300.21 535.424C302.113 534.96 301.577 532.264 299.769 532.15C299.491 532.128 299.236 532.103 298.981 532.08C281.742 524.369 282.485 491.525 280.721 475.777C279.074 461.028 278.818 446.138 278.702 431.342C278.633 419.612 278.655 407.882 282.042 396.547C289.234 372.623 313.688 355.319 330.508 338.269C336.866 331.834 343.431 324.52 348.441 316.436C351.411 317.947 355.911 317.738 359.02 315.02C360.365 321.732 366.701 326.402 373.474 321.779C374.659 320.965 375.771 320.013 375.169 318.76C376.539 321.665 378.905 324.217 381.063 326.519C384.334 330.074 388.65 332.698 393.545 332.487C395.703 332.395 400.25 327.216 400.691 327.494C405.145 330.257 408.995 330.582 413.683 328.191C413.847 328.096 416.585 324.731 417.558 325.381C418.881 326.241 421.455 326.425 422.939 326.03C426.304 325.1 427.255 322.731 427.23 319.968C431.777 320.804 433.122 315.928 436.07 316.833C443.424 319.085 451.429 317.763 458.366 314.603C468.413 310.027 483.028 298.413 474.909 287.405C477.625 287.08 480.107 285.781 480.917 282.643C481.056 282.179 482.285 275.975 481.45 275.975C482.959 275.811 484.72 274.745 485.719 273.654C489.175 269.844 491.216 263.27 487.319 261.435C492.911 256.533 498.941 245.873 489.871 244.362C489.94 244.267 490.01 244.198 490.079 244.106C491.011 243.037 491.754 241.829 492.542 240.646ZM392.849 138.422C390.089 133.59 385.099 136.656 382.153 141.372C380.9 138.769 378.511 137.098 375.494 136.842C376.933 134.149 376.514 131.013 374.867 128.2C377.441 128.642 380.273 127.087 381.779 124.276C385.213 127.736 388.508 125.207 390.874 121.302C392.427 126.04 396.744 129.083 401.22 126.806C401.592 130.708 404.932 132.891 408.668 132.405C406.28 137.284 406.627 142.788 410.152 146.04C408.249 145.762 406.255 145.945 404.144 146.784C403.104 139.955 396.957 132.893 392.849 138.422ZM125.857 117.053C128.595 110.827 122.701 108.459 117.808 111.061C117.972 109.575 117.877 108.112 117.483 106.531C120.779 107.601 123.167 105.346 124.282 101.98C126.462 103.977 129.153 104.118 131.938 102.816C132.284 107.228 135.233 109.994 139.316 111.852C137.111 116.381 138.828 120.702 143.122 122.21C141.521 123.696 140.384 125.37 139.943 127.437C137.274 125.276 133.771 124.51 130.315 125.207C130.775 121.419 129.499 118.05 125.857 117.053ZM97.6923 321.732C95.0461 319.385 91.9395 319.341 88.9688 321.173C88.6664 317.991 87.1602 315.692 83.84 315.342C84.7692 312.276 83.8622 309.768 81.5905 308.28C82.0786 308.116 82.564 307.933 82.9607 307.747C85.9536 306.33 87.2767 303.473 87.0437 300.546C90.0145 301.521 92.9824 300.476 95.0932 298.199C96.7409 304.075 102.169 308.233 107.994 303.356C107.994 303.356 107.994 303.334 108.016 303.334C110.638 307.491 115.325 308.327 119.708 306.958C119.5 308.374 119.777 309.721 120.729 310.907C117.874 312.068 116.252 314.253 115.786 317.294C109.129 312.326 101.845 314.392 97.6923 321.732ZM192.537 274.603C194.786 278.366 197.918 280.341 201.074 280.224C200.936 282.895 200.611 285.567 200.076 288.26C197.918 298.991 191.932 290.213 187.247 285.983C185.785 284.637 184.346 283.29 182.956 281.918C183.189 279.735 183.05 277.436 182.562 275.228C184.093 276.272 185.788 276.783 188.107 276.925C190.124 277.041 192.559 274.628 192.537 274.603ZM203.904 268.588C204.716 270.446 205.296 272.446 205.712 274.534C205.249 274.395 204.808 274.278 204.367 274.139C204.275 272.304 204.137 270.446 203.904 268.588ZM224.482 348.141C217.545 329.954 209.03 313.812 209.216 294.067C209.263 290.746 209.401 287.216 209.354 283.64C213.16 290.49 218.635 296.764 224.643 292.187C225.059 300.293 227.869 311.534 235.059 308.052C235.569 312.906 235.661 317.855 235.916 322.592C236.266 328.957 236.241 335.275 235.661 341.593C235.242 346.216 234.083 350.629 231.994 354.764C228.055 362.612 225.689 351.323 224.482 348.141ZM252.742 350.487C251.072 340.94 249.632 331.396 249.122 321.709C249.006 319.41 248.936 317.133 248.914 314.859C250.748 314.464 252.301 313.14 253.161 310.607C254.043 316.391 261.676 318.713 264.947 314.717C265.643 315.761 266.711 316.458 268.311 316.18C269.263 316.017 270.145 315.647 270.955 315.158C270.353 318.249 269.701 321.337 269.077 324.403C266.594 336.202 264.739 348.305 259.241 359.174C253.646 370.301 253.693 355.853 252.742 350.487ZM290.443 249.727C290.396 249.658 290.327 249.588 290.305 249.519C292.787 249.913 294.712 249.172 295.966 247.708C298.426 252.076 306.429 251.285 308.703 245.85C310.398 248.708 315.688 248.5 319.352 245.617C320.65 248.522 324.478 250.194 328.422 250.216C327.82 252.026 327.959 254.187 328.63 256.3C326.68 255.975 324.686 256.647 322.947 258.413C320.417 254.603 316.52 254.556 314.734 258.622C310.418 253.581 303.505 256.669 302.529 262.848C299.838 260.782 296.474 261.129 293.226 263.012C293.134 260.527 292.11 258.691 290.025 257.716C292.23 255.859 292.416 253.095 290.443 249.727ZM273.507 376.733C270.863 377.707 273.995 350.16 274.134 349.115C275.387 339.871 277.545 330.812 279.773 321.754C280.006 320.848 280.236 319.988 280.469 319.105C282.882 320.01 285.642 320.149 288.033 318.874C288.149 322.359 289.586 325.564 293.902 325.564C299.564 325.564 300.468 319.549 300.562 314.695C304.995 317.669 309.888 309.702 312.534 305.358C310.029 309.468 319.1 311.582 321.443 311.676C325.085 311.815 328.078 309.446 330.328 306.705C332.045 312.373 338.053 314.067 341.093 311.096C341.187 311.235 341.301 311.376 341.395 311.49C335.293 320.038 327.659 327.724 320.794 335.228C307.425 349.768 292.576 369.79 273.507 376.733ZM164.186 345.494C166.505 345.633 167.966 344.17 169.315 341.454C171.936 336.136 166.183 336.738 171.309 335.414C178.454 333.556 174.21 326.122 170.08 321.709C178.895 320.99 172.446 308.283 166.322 302.618C171.264 300.899 173.7 296.902 171.681 292.515C174.141 292.909 176.227 292.493 177.874 291.446C184.185 296.997 191.122 302.176 195.668 309.03C211.213 332.326 210.356 362.615 223.392 387.283C209.657 378.874 196.04 369.979 181.098 363.914C177.641 362.52 173.187 361.104 168.524 359.479C170.38 354.969 169.498 349.349 164.186 345.494ZM348.21 309.33C348.141 309.307 348.047 309.307 347.977 309.282C347.955 309.282 347.93 309.282 347.93 309.26C348.163 308.727 347.814 308.238 347.373 308.147C349.043 305.358 350.574 302.479 351.827 299.507C351.02 302.87 349.744 306.147 348.21 309.33Z" stroke="#DD5D36" stroke-width="2" mask="url(#path-1-inside-1_1416_26893)"/>
</svg>
