<svg width="913" height="729" viewBox="0 0 913 729" fill="none" xmlns="http://www.w3.org/2000/svg">
<path d="M-252.411 357.186C-257.591 350.468 -260.289 343.379 -259.998 336.394C-259.488 323.683 -248.887 313.522 -230.931 308.503L-36.4127 254.157C-9.77273 246.714 27.7384 252.354 54.8098 267.87C70.1644 276.673 80.2678 287.719 83.2375 299.011L120.074 438.902C122.589 448.458 119.886 457.103 112.355 464.013C94.6584 480.087 54.4058 482.339 18.8056 469.187L-212.549 383.642C-230.474 377.022 -244.417 367.552 -252.411 357.186ZM72.6556 288.775C67.0462 281.946 60.1677 276.269 52.4 272.055C26.3725 257.138 -9.63309 251.682 -35.1111 258.81L-229.629 313.156C-245.657 317.632 -254.72 325.965 -255.165 336.6C-255.801 352.217 -238.419 368.905 -210.862 379.092L20.4923 464.636C59.209 478.916 95.0647 473.174 109.13 460.481C115.368 454.808 117.542 447.976 115.426 440.159L78.5896 300.268C77.3972 296.08 75.3796 292.172 72.6556 288.775Z" fill="#DD5D36" fill-opacity="0.04"/>
<path d="M-273.402 367.457C-278.036 361.857 -280.756 354.92 -281.163 347.663C-281.519 334.195 -271.679 323.176 -253.495 316.657L-52.3292 244.526C-5.84143 227.856 67.4543 250.217 80.5871 285.068L136.894 434.781C138.862 439.468 139.389 444.634 138.408 449.622C137.427 454.609 134.981 459.191 131.384 462.783C114.217 481.157 71.7128 486.108 32.5303 474.294L-224.885 396.788C-246.999 390.068 -264.118 379.497 -273.402 367.457ZM70.7669 277.615C50.103 250.818 -11.4935 235.043 -50.7487 249.125L-251.876 321.306C-267.947 327.079 -276.65 336.398 -276.356 347.627C-275.905 364.914 -254.693 382.822 -223.567 392.201L33.9158 469.795C76.6972 482.686 114.189 474.097 127.824 459.57C130.806 456.64 132.833 452.878 133.64 448.776C134.447 444.674 133.996 440.424 132.346 436.583L75.9563 286.894C74.7018 283.558 72.9524 280.43 70.7669 277.615Z" fill="#DD5D36" fill-opacity="0.04"/>
<path d="M-294.632 379.676C-298.941 374.41 -301.663 368.028 -302.483 361.274C-303.805 347.228 -294.571 335.112 -276.57 327.028L-70.5561 235.169C-23.017 213.957 57.7975 233.269 76.0103 270.181L154.401 429.306C159.888 440.402 158.857 451.187 151.46 460.483C134.708 481.425 91.1719 489.278 47.8222 479.033L-236.566 411.815C-262.932 405.565 -283.854 393.653 -294.632 379.676ZM67.418 265.673C44.3288 235.731 -26.949 220.982 -68.6572 239.583L-274.671 331.442C-290.645 338.564 -298.847 349.001 -297.723 360.813C-296.22 376.888 -276.4 397.414 -235.507 407.127L48.9343 474.283C95.5677 485.327 134.625 473.825 147.685 457.435C153.788 449.74 154.662 440.7 150.076 431.397L71.6774 272.419C70.4908 270.031 69.0637 267.771 67.418 265.673Z" fill="#DD5D36" fill-opacity="0.04"/>
<path d="M-315.791 394.664C-319.805 389.679 -322.518 383.774 -323.686 377.48C-326.087 362.842 -317.677 349.475 -299.973 339.835L-91.1905 226.201C-43.0636 200.002 45.4247 215.502 69.2907 254.334L172.439 422.072C179.777 434.008 179.801 446.006 172.51 456.765C156.708 480.084 111.356 491.123 64.6922 483.032L-247.207 428.944C-278.436 423.516 -303.47 410.641 -315.791 394.664ZM62.5117 253.062C36.6964 219.585 -45.1701 206.662 -88.9091 230.46L-297.67 344.098C-313.424 352.675 -320.968 364.251 -318.907 376.705C-316.012 394.534 -292.446 416.223 -246.41 424.177L65.5215 478.28C115.842 487.002 156.137 472.319 168.521 454.063C174.653 445.001 174.586 434.821 168.327 424.622L65.1781 256.884C64.3638 255.566 63.4813 254.291 62.534 253.065L62.5117 253.062Z" fill="#DD5D36" fill-opacity="0.04"/>
<path d="M-336.593 412.334C-340.262 407.707 -342.906 402.354 -344.351 396.629C-348.05 381.426 -340.547 366.753 -323.326 355.42L-114.231 217.892C-66.0762 186.214 30.2406 196.882 60.3256 237.638L190.894 413.201C200.381 425.947 201.669 439.298 194.524 451.729C179.79 477.395 132.984 491.962 83.2407 486.406L-256.471 448.309C-292.938 444.231 -322.575 430.513 -336.593 412.334ZM55.9305 239.744C27.0011 202.228 -66.3626 192.112 -111.57 221.837L-320.765 359.443C-336.153 369.563 -342.892 382.364 -339.752 395.49C-334.145 418.891 -299.692 438.646 -255.991 443.545L83.7473 481.522C138.023 487.595 178.437 469.891 190.29 449.256C196.337 438.575 195.281 427.111 186.963 416.012L56.3915 240.471L55.9305 239.744Z" fill="#DD5D36" fill-opacity="0.04"/>
<path d="M-356.765 432.823C-360.072 428.611 -362.62 423.855 -364.294 418.768C-369.365 402.877 -363.042 386.908 -346.488 373.801L-139.943 210.254C-92.4237 172.627 11.5466 177.974 48.5975 219.959L209.432 402.174C221.287 415.622 224.083 430.799 217.298 444.919C203.561 473.387 156.709 491.38 103.349 488.653L-264.084 470.047C-306.061 467.851 -340.816 453.505 -356.765 432.823ZM208.032 408.189C207.324 407.271 206.587 406.315 205.752 405.414L44.9767 223.173C10.0199 183.565 -91.9867 178.448 -136.944 214.039L-343.488 377.587C-358.568 389.536 -364.171 403.265 -359.687 417.301C-351.436 443.038 -311.973 462.76 -263.781 465.159L103.662 483.778C161.041 486.696 202.106 465.361 212.988 442.765C218.463 431.341 216.775 419.422 208.083 408.15L208.032 408.189Z" fill="#DD5D36" fill-opacity="0.04"/>
<path d="M-376.185 455.821C-378.921 452.321 -381.166 448.464 -382.859 444.357C-389.611 427.797 -384.658 410.416 -368.933 395.4L-168.291 203.724C-122.157 159.643 -10.5939 158.473 34.0224 201.606L227.978 389.075C242.729 403.339 247.308 420.151 240.836 436.395C228.543 467.281 180.97 489.282 125.153 489.873L-269.445 494.081C-316.743 494.584 -358.073 479.309 -376.185 455.821ZM226.273 390.791L224.599 392.523L30.6431 205.055C-11.5779 164.247 -121.266 165.456 -164.968 207.201L-365.561 398.94C-379.956 412.688 -384.365 427.784 -378.348 442.584C-366.921 470.645 -322.145 489.842 -269.449 489.289L125.116 484.987C179.017 484.408 224.773 463.668 236.363 434.549C242.155 420.051 238.043 405.508 224.637 392.494L226.273 390.791Z" fill="#DD5D36" fill-opacity="0.04"/>
<path d="M-394.012 482.388C-396.142 479.641 -398.003 476.696 -399.57 473.593C-408.272 456.351 -404.957 437.444 -390.257 420.371L-199.333 198.533C-155.456 147.545 -36.5809 138.79 16.2561 182.646L246.194 373.563C264.279 388.587 270.952 407.153 264.968 425.851C254.293 459.2 206.418 485.465 148.554 489.723L-272.318 520.631C-325.517 524.54 -373.426 509.084 -394.012 482.388ZM243.075 377.272L13.1754 186.325C-36.9525 144.734 -154.035 153.29 -195.672 201.668L-386.586 423.518C-400.116 439.248 -403.104 455.795 -395.233 471.413C-379.893 501.712 -329.559 519.974 -272.707 515.835L148.184 484.872C204.128 480.752 250.213 455.886 260.337 424.346C265.754 407.41 259.781 391.132 243.075 377.272Z" fill="#DD5D36" fill-opacity="0.04"/>
<path d="M-410.05 512.17C-411.386 510.44 -412.631 508.641 -413.783 506.783C-424.792 488.812 -423.428 468.26 -410.004 448.96L-233.155 194.924C-215.073 168.943 -179.128 149.711 -134.433 142.007C-84.8588 133.45 -35.2776 141.578 -5.04208 163.201L263.751 355.492C285.648 371.166 294.787 391.603 289.486 413.085C280.51 449.497 233.907 479.596 173.507 487.955L-272.147 549.71C-331.313 557.9 -386.611 542.565 -410.05 512.17ZM276.09 373.782C271.752 368.279 266.629 363.442 260.887 359.426L-7.81337 167.204C-37.0319 146.302 -85.2169 138.501 -133.561 146.832C-176.347 154.227 -212.075 173.272 -229.136 197.743L-406.061 451.758C-418.522 469.653 -419.769 487.807 -409.688 504.288C-389.833 536.643 -333.569 553.36 -272.846 544.953L172.846 483.169C230.375 475.198 276.411 445.897 284.786 411.934C288.095 398.429 285.015 385.356 276.09 373.782Z" fill="#DD5D36" fill-opacity="0.04"/>
<path d="M-423.874 545.26L-424.728 544.153C-438.524 525.482 -439.563 503.192 -427.605 481.393L-269.697 193.273C-254.21 165.02 -219.802 142.077 -175.304 130.293C-121.969 116.207 -66.2999 121.226 -30.1231 143.503L280.358 334.702C306.545 350.84 318.597 373.284 314.268 397.927C307.406 436.923 261.468 471.685 199.949 484.418L-268.428 581.329C-333.449 594.856 -397.108 579.97 -423.874 545.26ZM277.821 338.826L-32.6985 147.656C-67.7732 126.054 -121.969 121.203 -174.1 135.002C-217.394 146.5 -250.582 168.502 -265.481 195.619L-423.39 483.659C-434.547 503.999 -433.664 523.901 -420.859 541.21C-395.592 575.25 -333.437 589.772 -269.452 576.542L198.976 479.671C258.563 467.345 302.984 434.154 309.494 397.095C313.463 374.535 302.216 353.837 277.821 338.826Z" fill="#DD5D36" fill-opacity="0.04"/>
<path d="M-434.768 581.965C-449.135 563.333 -451.878 540.733 -442.437 517.804L-308.891 193.903C-296.233 163.177 -263.674 136.405 -219.579 120.457C-163.221 100.068 -101.799 101.333 -59.2778 123.773L295.564 310.997C326.603 327.365 342.041 351.912 339.019 380.122C334.507 422.401 290.844 461.126 227.76 478.778L-260.643 615.486C-328.852 634.582 -399.116 622.422 -431.521 585.941C-432.641 584.619 -433.739 583.299 -434.768 581.965ZM322.43 338.708C315.533 329.763 305.751 321.839 293.302 315.269L-61.5402 128.045C-102.884 106.222 -162.814 105.071 -217.936 125.008C-260.76 140.497 -292.273 166.283 -304.437 195.725L-437.963 519.65C-447.485 542.762 -444 564.529 -427.897 582.706C-396.658 617.858 -328.422 629.416 -261.929 610.801L226.484 474.105C286.69 457.248 330.007 419.271 334.189 379.634C335.841 364.974 331.612 350.256 322.43 338.708Z" fill="#DD5D36" fill-opacity="0.04"/>
<path d="M-442.207 622.268C-456.341 603.938 -460.478 581.69 -453.831 558.388L-350.693 197.189C-341.163 163.76 -310.666 132.961 -267.071 112.644C-209.581 85.8651 -141.183 82.5723 -92.8086 104.25L308.939 284.192C344.82 300.258 364.711 327.691 363.486 359.429C361.772 404.425 319.876 448.148 256.78 470.804L-248.119 652.071C-317.819 677.091 -393.879 668.939 -433.119 632.232C-436.41 629.16 -439.45 625.828 -442.207 622.268ZM307.914 286.427L306.927 288.633L-94.8239 108.713C-141.967 87.5907 -208.853 90.9205 -265.074 117.082C-307.399 136.781 -336.938 166.481 -346.079 198.567L-449.19 559.724C-456.693 585.973 -449.99 609.833 -429.82 628.705C-391.864 664.215 -317.833 671.946 -249.772 647.508L255.124 466.263C316.392 444.254 356.999 402.268 358.651 359.246C359.798 329.151 341.439 304.068 306.952 288.614L307.914 286.427Z" fill="#DD5D36" fill-opacity="0.04"/>
<path d="M-445.684 666.098C-459.489 648.196 -464.904 626.553 -461.059 603.286L-394.859 203.525C-388.839 167.105 -360.664 131.917 -317.573 106.993C-259.121 73.2138 -185.852 64.6603 -130.902 85.2399L319.98 254.155C361.682 269.784 386.184 299.398 387.343 335.579C388.818 383.331 349.33 432.259 286.812 460.166L-230.298 691.053C-300.437 722.37 -381.879 719.13 -428.355 683.289C-434.845 678.327 -440.67 672.549 -445.684 666.098ZM318.332 258.756L-132.649 89.8168C-186.277 69.7025 -258.004 78.1496 -315.196 111.219C-357.02 135.446 -384.351 169.362 -390.139 204.339L-456.279 604.073C-461.15 633.528 -450.21 660.28 -425.439 679.396C-380.266 714.275 -300.84 717.244 -232.276 686.64L284.796 455.783C345.561 428.645 383.909 381.519 382.511 335.714C381.464 301.654 358.054 273.585 318.283 258.693L318.332 258.756Z" fill="#DD5D36" fill-opacity="0.04"/>
<path d="M-444.571 713.407C-458.001 696.096 -464.678 674.493 -463.357 652.623L-441.39 213.426C-439.397 173.631 -413.809 133.657 -371.194 103.745C-312.83 62.7502 -235.418 48.4342 -174.016 67.2083L328.122 220.772C376.081 235.488 406.047 267.349 410.167 308.307C415.387 359.692 379.875 412.735 317.503 446.71L-206.542 732.316C-276.984 770.708 -361.213 773.349 -416.136 738.886C-427.043 732.136 -436.669 723.51 -444.571 713.407ZM387.853 264.828C374.272 247.215 353.415 233.567 326.709 225.393L-175.458 71.7907C-235.485 53.4208 -311.197 67.4694 -368.472 107.664C-409.869 136.738 -434.665 175.319 -436.615 213.635L-458.467 652.824C-460.141 686.374 -444.241 715.5 -413.545 734.701C-360.083 768.284 -277.819 765.594 -208.862 728.007L315.192 442.413C375.814 409.368 410.365 358.149 405.324 308.712C403.751 292.73 397.695 277.518 387.853 264.828Z" fill="#DD5D36" fill-opacity="0.04"/>
<path d="M-438.216 764.075C-451.07 747.427 -458.569 727.27 -459.721 706.27L-489.766 227.175C-492.472 183.602 -469.856 138.317 -427.659 102.868C-370.47 54.7551 -289.707 34.1439 -222.146 50.3951L332.773 183.901C387.48 197.064 423.471 231.04 431.517 277.116C441.024 331.434 409.289 389.971 348.688 429.861L-176.135 775.49C-244.562 820.553 -332.508 829.872 -394.94 798.732C-411.805 790.608 -426.603 778.757 -438.216 764.075ZM332.135 186.299L331.608 188.711L-223.275 55.0972C-289.398 39.2017 -368.409 59.405 -424.546 106.566C-465.562 141.024 -487.511 184.832 -484.936 226.882L-454.86 705.992C-452.441 744.249 -430.419 775.616 -392.733 794.362C-331.782 824.778 -245.786 815.559 -178.745 771.404L346.089 425.787C405.044 386.965 436.021 330.357 426.815 277.913C419.101 233.828 384.435 201.258 331.682 188.574L332.135 186.299Z" fill="#DD5D36" fill-opacity="0.04"/>
<path d="M-425.964 818.001C-437.993 802.311 -445.984 783.908 -449.237 764.408L-539.781 245.361C-548.098 197.608 -528.916 146.283 -487.129 104.631C-431.858 49.5311 -348.819 22.3499 -275.594 35.3572L333.234 143.502C394.954 154.467 437.817 190.305 450.823 241.825C465.289 299.14 438.127 363.399 379.911 409.555L-138.458 820.503C-204.65 872.991 -293.021 889.538 -363.632 862.619C-389.909 852.529 -411.092 837.287 -425.964 818.001ZM332.824 145.884L332.373 148.238L-276.436 40.119C-348.141 27.3646 -429.519 54.047 -483.721 108.062C-524.366 148.593 -543.071 198.325 -534.982 244.509L-444.538 763.633C-436.981 807.097 -407.616 840.625 -361.878 858.077C-292.829 884.375 -206.298 868.123 -141.419 816.688L376.962 405.731C433.614 360.8 460.136 298.44 446.092 243.026C433.585 193.429 392.128 158.893 332.367 148.283L332.824 145.884Z" fill="#DD5D36" fill-opacity="0.04"/>
<path d="M-407.299 874.207C-418.163 860.122 -426.245 844.097 -431.112 826.989L-590.984 268.457C-605.996 215.977 -590.92 157.948 -549.608 109.28C-496.377 46.565 -413.95 13.3354 -334.494 22.5605L328.858 99.533C396.697 107.404 448.485 145.71 467.35 201.939C487.926 263.249 466.801 331.8 410.851 385.317L-92.6411 866.885C-154.367 925.92 -243.95 950.624 -320.864 929.789C-357.253 919.933 -387.023 900.5 -407.299 874.207ZM328.293 104.342L-335.059 27.3694C-412.92 18.3391 -493.723 50.9178 -545.912 112.408C-586.157 159.833 -600.896 216.217 -586.338 267.121L-426.465 825.652C-412.558 874.23 -373.588 910.482 -319.642 925.156C-244.336 945.545 -156.57 921.319 -96.0461 863.432L407.497 381.825C462.102 329.686 482.73 262.963 462.766 203.488C444.494 149.068 394.175 111.938 328.293 104.342Z" fill="#DD5D36" fill-opacity="0.04"/>
<path d="M-381.608 933.279C-390.889 921.198 -398.451 907.889 -404.079 893.732L-642.862 296.947C-665.918 239.315 -655.805 173.759 -615.084 117.04C-565.507 47.9745 -482.675 7.93294 -398.905 12.5277L318.838 51.9909C393.653 56.1081 454.016 95.3631 480.291 157.013C507.796 221.506 493.077 296.231 440.925 356.911L-38.063 914.274C-95.1617 980.713 -182.357 1013.33 -265.672 999.514C-314.423 991.448 -354.842 967.988 -381.608 933.279ZM318.695 54.4078L318.563 56.8373L-399.208 17.4157C-481.347 12.9072 -562.572 52.1709 -611.194 119.898C-650.832 175.161 -660.802 239.082 -638.371 295.149L-399.626 891.963C-377.723 946.693 -328.563 984.116 -264.954 994.748C-183.263 1008.33 -97.8258 976.348 -41.7718 911.155L437.217 353.792C488.103 294.49 502.562 221.691 475.818 158.938C450.258 99.0233 391.476 60.8561 318.537 56.8567L318.695 54.4078Z" fill="#DD5D36" fill-opacity="0.04"/>
<path d="M-348.301 994.159C-355.451 984.871 -361.752 974.958 -367.128 964.541L-694.802 331.362C-727.492 268.159 -723.474 194.203 -683.748 128.441C-638.524 53.4437 -556.184 6.59907 -468.972 6.03173L302.36 1.04051C383.834 0.524544 453.447 39.9894 488.576 106.668C524.249 174.392 517.193 255.646 469.584 324.116L25.8976 962.249C-24.6351 1034.94 -110.223 1076.59 -197.477 1070.91C-260.143 1066.83 -313.454 1039.35 -348.301 994.159ZM466.74 81.578C429.429 33.1931 370.102 5.37637 302.293 5.76653L-469.027 10.748C-554.486 11.4285 -635.201 57.4411 -679.559 130.907C-718.392 195.199 -722.369 267.438 -690.454 329.092L-362.802 962.269C-331.15 1023.42 -270.761 1061.25 -197.119 1066.04C-111.538 1071.6 -27.5953 1030.76 21.9771 959.454L465.555 321.285C512.069 254.361 519.058 174.945 484.286 108.833C479.229 99.2618 473.359 90.1433 466.74 81.578Z" fill="#DD5D36" fill-opacity="0.04"/>
<path d="M-307.743 1055.11C-311.727 1049.94 -315.507 1044.57 -319.084 1039L-746.105 372.228C-789.676 304.175 -793.187 218.792 -755.478 143.832C-735.694 104.037 -705.8 70.1398 -668.792 45.5343C-631.784 20.9289 -588.961 6.4794 -544.611 3.63308L278.457 -53.2901C366.033 -59.3946 445.342 -20.6252 490.769 50.3297C536.196 121.285 538.169 209.539 496.067 286.502L100.087 1010.12C78.9421 1049.23 47.8899 1082.1 10.0422 1105.42C-27.8055 1128.75 -71.1194 1141.72 -115.559 1143.03C-192.542 1145.7 -262.988 1113.12 -307.743 1055.11ZM475.479 36.823C429.882 -22.3056 357.707 -54.0368 278.822 -48.5762L-544.258 8.3567C-587.773 11.1363 -629.794 25.3019 -666.111 49.4343C-702.428 73.5667 -731.766 106.819 -751.187 145.859C-788.119 219.277 -784.705 302.869 -742.014 369.495L-314.993 1036.26C-272.341 1102.84 -197.849 1140.93 -115.714 1138.1C-72.1128 1136.8 -29.6168 1124.08 7.51482 1101.18C44.6463 1078.29 75.1091 1046.05 95.85 1007.67L491.802 284.093C533.055 208.708 531.132 122.261 486.684 52.8375C483.166 47.2857 479.43 41.9475 475.479 36.823Z" fill="#DD5D36" fill-opacity="0.04"/>
<path d="M-258.679 1116.75L-795.92 420.068C-852.993 346.057 -865.839 250.258 -830.273 163.831C-794.707 77.4029 -718.189 18.377 -625.486 5.9122L246.413 -110.975C339.052 -123.392 428.438 -86.616 485.511 -12.6046C542.584 61.4069 555.431 157.205 519.874 243.646L185.196 1057.19C149.577 1143.68 73.0995 1202.66 -19.5398 1215.07C-112.179 1227.49 -201.606 1190.77 -258.679 1116.75ZM246.737 -108.577L247.062 -106.179L-624.91 10.744C-715.811 22.9431 -790.904 80.8505 -825.809 165.665C-860.714 250.479 -848.101 344.492 -792.095 417.119L-254.855 1113.81C-198.849 1186.43 -111.14 1222.52 -20.2391 1210.32C70.6618 1198.12 145.778 1140.21 180.66 1055.4L515.375 241.818C550.27 156.992 537.655 63.0013 481.649 -9.62627C425.643 -82.2539 337.947 -118.347 247.036 -106.16L246.737 -108.577Z" fill="#DD5D36" fill-opacity="0.04"/>
</svg>
