<svg width="216" height="194" viewBox="0 0 216 194" fill="none" xmlns="http://www.w3.org/2000/svg">
<path d="M112.763 151.795C108.787 151.133 105.208 149.277 102.028 146.229C98.9792 143.048 97.455 138.343 97.455 132.113V94.9367H111.57V129.728C111.57 133.174 112.1 135.626 113.161 137.084C114.221 138.409 115.48 139.072 116.938 139.072H117.733C119.191 139.072 120.384 138.409 121.312 137.084C122.372 135.626 122.902 133.174 122.902 129.728V113.028C122.902 106.534 121.577 100.967 118.926 96.3284C116.275 91.6896 113.359 87.2496 110.179 83.0084C106.998 78.6346 104.082 74.1284 101.431 69.4895C98.7804 64.7182 97.455 59.0191 97.455 52.3922V30.9212C97.455 24.6919 98.9792 20.0531 102.028 17.0048C105.208 13.8239 108.787 11.9021 112.763 11.2394V0.702679H122.902V11.4382C126.746 12.2334 130.059 14.2215 132.842 17.4024C135.626 20.4507 137.017 24.957 137.017 30.9212V67.8991H122.902V33.108C122.902 29.6621 122.505 27.2764 121.709 25.951C120.914 24.6257 119.788 23.963 118.33 23.963H117.534C116.076 23.963 114.95 24.6919 114.155 26.1498C113.359 27.4752 112.962 29.8609 112.962 33.3069V50.0066C112.962 56.5009 114.287 62.0675 116.938 66.7063C119.589 71.3451 122.505 75.8513 125.685 80.2251C128.866 84.4663 131.782 88.9725 134.433 93.7439C137.084 98.3827 138.409 104.016 138.409 110.642V132.113C138.409 138.475 136.885 143.247 133.836 146.427C130.788 149.476 127.143 151.331 122.902 151.994V162.332H112.763V151.795ZM154.18 151V35.4937C152.457 35.7588 150.336 36.0901 147.818 36.4878C145.432 36.8854 143.312 37.0842 141.456 37.0842V24.957C143.179 24.957 144.902 24.6257 146.625 23.963C148.481 23.3003 150.138 22.3725 151.595 21.1797C153.053 19.9869 154.246 18.6615 155.174 17.2036C156.102 15.6131 156.698 13.8901 156.963 12.0346H169.687V151H154.18ZM214.98 25.1558H201.66V151H186.154V25.1558H172.635V12.0346H214.98V25.1558Z" fill="#1F3C15" fill-opacity="0.2"/>
<g clip-path="url(#clip0_2001_626)">
<g clip-path="url(#clip1_2001_626)">
<g clip-path="url(#clip2_2001_626)">
<path d="M2.51904 107.037H5.87764V142.302H2.51904V107.037Z" fill="#30C67C" fill-opacity="0.1"/>
<path d="M2.51904 117.323H5.87764V142.303H2.51904V117.323Z" fill="#30C67C" fill-opacity="0.5"/>
<path d="M2.51904 129.078H5.87764V142.303H2.51904V129.078Z" fill="#1F3C15"/>
</g>
<g clip-path="url(#clip3_2001_626)">
<path d="M13.1196 112.075H16.4782V142.303H13.1196V112.075Z" fill="#30C67C" fill-opacity="0.1"/>
<path d="M13.1196 120.892H16.4782V142.303H13.1196V120.892Z" fill="#30C67C" fill-opacity="0.5"/>
<path d="M13.1196 130.968H16.4782V142.303H13.1196V130.968Z" fill="#1F3C15"/>
</g>
<g clip-path="url(#clip4_2001_626)">
<path d="M23.7202 110.396H27.0788V142.303H23.7202V110.396Z" fill="#30C67C" fill-opacity="0.1"/>
<path d="M23.7202 119.702H27.0788V142.303H23.7202V119.702Z" fill="#30C67C" fill-opacity="0.5"/>
<path d="M23.7202 130.338H27.0788V142.303H23.7202V130.338Z" fill="#1F3C15"/>
</g>
<g clip-path="url(#clip5_2001_626)">
<path d="M34.3208 112.075H37.6794V142.303H34.3208V112.075Z" fill="#30C67C" fill-opacity="0.1"/>
<path d="M34.3208 120.892H37.6794V142.303H34.3208V120.892Z" fill="#30C67C" fill-opacity="0.5"/>
<path d="M34.3208 130.968H37.6794V142.303H34.3208V130.968Z" fill="#1F3C15"/>
</g>
<g clip-path="url(#clip6_2001_626)">
<path d="M44.9214 108.717H48.28V142.303H44.9214V108.717Z" fill="#30C67C" fill-opacity="0.1"/>
<path d="M44.9214 118.513H48.28V142.303H44.9214V118.513Z" fill="#30C67C" fill-opacity="0.5"/>
<path d="M44.9214 129.708H48.28V142.303H44.9214V129.708Z" fill="#1F3C15"/>
</g>
<g clip-path="url(#clip7_2001_626)">
<path d="M55.522 105.358H58.8806V142.303H55.522V105.358Z" fill="#30C67C" fill-opacity="0.1"/>
<path d="M55.522 116.134H58.8806V142.303H55.522V116.134Z" fill="#30C67C" fill-opacity="0.5"/>
<path d="M55.522 128.448H58.8806V142.302H55.522V128.448Z" fill="#1F3C15"/>
</g>
<g clip-path="url(#clip8_2001_626)">
<path d="M66.1226 113.755H69.4812V142.303H66.1226V113.755Z" fill="#30C67C" fill-opacity="0.1"/>
<path d="M66.1226 122.081H69.4812V142.303H66.1226V122.081Z" fill="#30C67C" fill-opacity="0.5"/>
<path d="M66.1226 131.598H69.4812V142.303H66.1226V131.598Z" fill="#1F3C15"/>
</g>
</g>
</g>
<defs>
<clipPath id="clip0_2001_626">
<rect width="72" height="40.3032" fill="white" transform="translate(0 102)"/>
</clipPath>
<clipPath id="clip1_2001_626">
<rect width="72" height="40.3032" fill="white" transform="translate(0 102)"/>
</clipPath>
<clipPath id="clip2_2001_626">
<path d="M2.51904 107.877C2.51904 107.413 2.89497 107.037 3.35869 107.037H5.03799C5.50172 107.037 5.87764 107.413 5.87764 107.877V142.302H2.51904V107.877Z" fill="white"/>
</clipPath>
<clipPath id="clip3_2001_626">
<path d="M13.1196 112.915C13.1196 112.451 13.4956 112.075 13.9593 112.075H15.6386C16.1023 112.075 16.4782 112.451 16.4782 112.915V142.303H13.1196V112.915Z" fill="white"/>
</clipPath>
<clipPath id="clip4_2001_626">
<path d="M23.7202 111.236C23.7202 110.772 24.0961 110.396 24.5599 110.396H26.2392C26.7029 110.396 27.0788 110.772 27.0788 111.236V142.303H23.7202V111.236Z" fill="white"/>
</clipPath>
<clipPath id="clip5_2001_626">
<path d="M34.3208 112.915C34.3208 112.451 34.6967 112.075 35.1605 112.075H36.8398C37.3035 112.075 37.6794 112.451 37.6794 112.915V142.303H34.3208V112.915Z" fill="white"/>
</clipPath>
<clipPath id="clip6_2001_626">
<path d="M44.9214 109.556C44.9214 109.093 45.2973 108.717 45.761 108.717H47.4403C47.9041 108.717 48.28 109.093 48.28 109.556V142.303H44.9214V109.556Z" fill="white"/>
</clipPath>
<clipPath id="clip7_2001_626">
<path d="M55.522 106.198C55.522 105.734 55.8979 105.358 56.3616 105.358H58.0409C58.5046 105.358 58.8806 105.734 58.8806 106.198V142.303H55.522V106.198Z" fill="white"/>
</clipPath>
<clipPath id="clip8_2001_626">
<path d="M66.1226 114.595C66.1226 114.131 66.4985 113.755 66.9622 113.755H68.6415C69.1052 113.755 69.4812 114.131 69.4812 114.595V142.303H66.1226V114.595Z" fill="white"/>
</clipPath>
</defs>
</svg>
