<svg width="254" height="162" viewBox="0 0 254 162" fill="none" xmlns="http://www.w3.org/2000/svg">
<path d="M97.7043 64.8633C99.8249 64.8633 101.349 63.9355 102.277 62.08C103.205 60.2245 103.668 57.5737 103.668 54.1278V24.3069C103.668 20.8609 103.271 18.4752 102.476 17.1498C101.68 15.6919 100.554 14.963 99.0959 14.963H98.3007C96.8428 14.963 95.7162 15.6257 94.921 16.951C94.1258 18.2764 93.7282 20.6621 93.7282 24.108V59.2967H78.2213V21.9212C78.2213 18.3427 78.7515 15.2943 79.8118 12.7761C80.8721 10.2579 82.2637 8.20358 83.9867 6.61312C85.8422 5.02268 87.8965 3.82984 90.1497 3.03462C92.4028 2.23939 94.6559 1.84178 96.9091 1.84178H100.488C102.741 1.84178 104.994 2.23939 107.247 3.03462C109.5 3.82984 111.488 5.02268 113.211 6.61312C115.067 8.20358 116.525 10.2579 117.585 12.7761C118.645 15.2943 119.175 18.3427 119.175 21.9212V52.3385C119.175 58.0376 117.85 62.2788 115.199 65.0621C112.548 67.8454 109.5 69.6346 106.054 70.4298C109.5 71.0925 112.548 72.683 115.199 75.2012C117.85 77.7194 119.175 81.7618 119.175 87.3284V123.312C119.175 126.891 118.645 129.939 117.585 132.457C116.525 134.976 115.067 137.03 113.211 138.62C111.488 140.211 109.5 141.337 107.247 142C104.994 142.795 102.741 143.193 100.488 143.193H96.9091C94.6559 143.193 92.4028 142.795 90.1497 142C87.8965 141.337 85.8422 140.211 83.9867 138.62C82.2637 137.03 80.8721 134.976 79.8118 132.457C78.7515 129.939 78.2213 126.891 78.2213 123.312V85.9367H93.7282V120.927C93.7282 124.373 94.1258 126.824 94.921 128.282C95.7162 129.608 96.8428 130.27 98.3007 130.27H99.0959C100.554 130.27 101.68 129.608 102.476 128.282C103.271 126.824 103.668 124.373 103.668 120.927V86.9307C103.668 83.4848 103.205 80.834 102.277 78.9785C101.349 77.123 99.8249 76.1952 97.7043 76.1952H92.7342V64.8633H97.7043ZM141.904 143.193C139.651 143.193 137.398 142.795 135.145 142C132.892 141.205 130.838 140.012 128.982 138.421C127.259 136.831 125.867 134.777 124.807 132.259C123.747 129.74 123.217 126.692 123.217 123.113V21.9212C123.217 18.3427 123.747 15.2943 124.807 12.7761C125.867 10.2579 127.259 8.20358 128.982 6.61312C130.838 5.02268 132.892 3.82984 135.145 3.03462C137.398 2.23939 139.651 1.84178 141.904 1.84178H145.483C147.736 1.84178 149.989 2.23939 152.242 3.03462C154.496 3.82984 156.484 5.02268 158.207 6.61312C160.062 8.20358 161.52 10.2579 162.58 12.7761C163.641 15.2943 164.171 18.3427 164.171 21.9212V123.113C164.171 126.692 163.641 129.74 162.58 132.259C161.52 134.777 160.062 136.831 158.207 138.421C156.484 140.012 154.496 141.205 152.242 142C149.989 142.795 147.736 143.193 145.483 143.193H141.904ZM143.296 14.963C140.248 14.963 138.724 18.0776 138.724 24.3069V120.728C138.724 124.174 139.121 126.626 139.916 128.084C140.712 129.409 141.838 130.072 143.296 130.072H144.091C145.549 130.072 146.676 129.409 147.471 128.084C148.266 126.626 148.664 124.174 148.664 120.728V24.3069C148.664 18.0776 147.14 14.963 144.091 14.963H143.296ZM226.86 3.03462L180.14 142H191.274L238.192 3.03462H226.86ZM182.526 81.7618C178.55 81.7618 175.17 80.3701 172.387 77.5869C169.736 74.671 168.411 70.6949 168.411 65.6585V18.1439C168.411 12.9749 169.736 8.9988 172.387 6.21552C175.17 3.29969 178.55 1.84178 182.526 1.84178H185.508C189.617 1.84178 193.063 3.29969 195.846 6.21552C198.629 8.9988 200.021 12.9749 200.021 18.1439V65.6585C200.021 70.6949 198.629 74.671 195.846 77.5869C193.063 80.3701 189.617 81.7618 185.508 81.7618H182.526ZM183.918 11.5833C181.4 11.5833 180.14 13.9027 180.14 18.5415V65.2609C180.14 69.7672 181.4 72.0203 183.918 72.0203H184.713C187.099 72.0203 188.291 69.7672 188.291 65.2609V18.5415C188.291 13.9027 187.099 11.5833 184.713 11.5833H183.918ZM233.023 143.193C229.047 143.193 225.667 141.801 222.884 139.018C220.233 136.102 218.908 132.06 218.908 126.891V78.7797C218.908 73.7433 220.233 69.8334 222.884 67.0501C225.667 64.1343 229.047 62.6764 233.023 62.6764H236.005C240.114 62.6764 243.56 64.1343 246.343 67.0501C249.126 69.8334 250.518 73.7433 250.518 78.7797V126.891C250.518 132.06 249.126 136.102 246.343 139.018C243.56 141.801 240.114 143.193 236.005 143.193H233.023ZM234.216 72.4179C231.697 72.4179 230.438 74.7373 230.438 79.3761V126.692C230.438 131.198 231.697 133.451 234.216 133.451H235.21C236.27 133.451 237.131 132.921 237.794 131.861C238.457 130.801 238.788 129.078 238.788 126.692V79.3761C238.788 76.9904 238.457 75.2675 237.794 74.2072C237.131 73.0143 236.27 72.4179 235.21 72.4179H234.216Z" fill="#1F3C15" fill-opacity="0.2"/>
<path d="M52 116C52 130.359 40.3594 142 26 142C11.6406 142 0 130.359 0 116C0 101.641 11.6406 90 26 90C40.3594 90 52 101.641 52 116ZM13 116C13 123.18 18.8203 129 26 129C33.1797 129 39 123.18 39 116C39 108.82 33.1797 103 26 103C18.8203 103 13 108.82 13 116Z" fill="#D4FFE5"/>
<path d="M26 90C31.4907 90 36.8404 91.7382 41.2824 94.9656C45.7245 98.1929 49.0308 102.744 50.7275 107.966L38.3637 111.983C37.5154 109.372 35.8622 107.096 33.6412 105.483C31.4202 103.869 28.7453 103 26 103L26 90Z" fill="#1F3C15"/>
</svg>
