<svg width="270" height="151" viewBox="0 0 270 151" fill="none" xmlns="http://www.w3.org/2000/svg">
<path d="M106.49 151.795C102.514 151.133 98.9356 149.277 95.7547 146.229C92.7063 143.048 91.1822 138.343 91.1822 132.113V94.9367H105.297V129.728C105.297 133.174 105.828 135.626 106.888 137.084C107.948 138.409 109.207 139.072 110.665 139.072H111.46C112.918 139.072 114.111 138.409 115.039 137.084C116.099 135.626 116.629 133.174 116.629 129.728V113.028C116.629 106.534 115.304 100.967 112.653 96.3284C110.002 91.6896 107.087 87.2496 103.906 83.0084C100.725 78.6346 97.809 74.1284 95.1583 69.4895C92.5075 64.7182 91.1822 59.0191 91.1822 52.3922V30.9212C91.1822 24.6919 92.7063 20.0531 95.7547 17.0048C98.9356 13.8239 102.514 11.9021 106.49 11.2394V0.702679H116.629V11.4382C120.473 12.2334 123.786 14.2215 126.57 17.4024C129.353 20.4507 130.745 24.957 130.745 30.9212V67.8991H116.629V33.108C116.629 29.6621 116.232 27.2764 115.437 25.951C114.641 24.6257 113.515 23.963 112.057 23.963H111.262C109.804 23.963 108.677 24.6919 107.882 26.1498C107.087 27.4752 106.689 29.8609 106.689 33.3069V50.0066C106.689 56.5009 108.014 62.0675 110.665 66.7063C113.316 71.3451 116.232 75.8513 119.413 80.2251C122.594 84.4663 125.509 88.9725 128.16 93.7439C130.811 98.3827 132.136 104.016 132.136 110.642V132.113C132.136 138.475 130.612 143.247 127.564 146.427C124.515 149.476 120.871 151.331 116.629 151.994V162.332H106.49V151.795ZM182.698 118.396V131.318H175.541V151H162.221V131.318H135.184V118.396L157.251 12.0346H175.541V118.396H182.698ZM162.221 55.7719H161.824L150.094 117.998V118.396H162.221V55.7719ZM205.491 152.193C203.238 152.193 200.985 151.795 198.732 151C196.478 150.205 194.424 149.012 192.569 147.421C190.846 145.831 189.454 143.777 188.394 141.259C187.333 138.74 186.803 135.692 186.803 132.113V93.5451H202.31V129.728C202.31 133.174 202.708 135.626 203.503 137.084C204.298 138.409 205.425 139.072 206.883 139.072H207.678C209.136 139.072 210.262 138.409 211.058 137.084C211.853 135.626 212.25 133.174 212.25 129.728V85.5928C212.25 82.1469 211.853 79.7612 211.058 78.4358C210.262 76.9779 209.136 76.249 207.678 76.249H206.883C205.557 76.249 204.497 76.8454 203.702 78.0382C202.906 79.0985 202.443 81.0866 202.31 84.0024V86.7857H186.803V12.0346H227.558L226.167 25.1558H202.31V70.086C203.768 67.7003 205.425 65.9773 207.28 64.917C209.268 63.7242 211.256 63.1278 213.244 63.1278H214.636C217.817 63.1278 220.799 64.7182 223.582 67.8991C226.366 71.08 227.757 76.1827 227.757 83.2072V132.113C227.757 135.692 227.227 138.74 226.167 141.259C225.106 143.777 223.649 145.831 221.793 147.421C220.07 149.012 218.082 150.205 215.829 151C213.576 151.795 211.323 152.193 209.069 152.193H205.491ZM273.15 66.1098C273.15 70.351 272.488 73.5319 271.162 75.6525C269.837 77.6406 268.18 78.966 266.192 79.6287C268.18 80.1588 269.837 81.4842 271.162 83.6048C272.488 85.5928 273.15 88.7075 273.15 92.9487V131.716C273.15 135.162 272.62 138.078 271.56 140.463C270.499 142.849 269.042 144.837 267.186 146.427C265.463 148.018 263.475 149.211 261.222 150.006C258.969 150.669 256.649 151 254.264 151H231.997V12.0346H254.264C256.649 12.0346 258.969 12.4322 261.222 13.2275C263.475 14.0227 265.463 15.2155 267.186 16.806C269.042 18.3964 270.499 20.4507 271.56 22.9689C272.62 25.4872 273.15 28.5355 273.15 32.114V66.1098ZM257.445 94.1415C257.445 88.3098 256.119 85.394 253.468 85.394H247.504V137.879H252.872C255.92 137.879 257.445 135.029 257.445 129.33V94.1415ZM253.667 73.8633C256.185 73.8633 257.445 70.9475 257.445 65.1158V34.4997C257.445 28.2704 255.987 25.1558 253.071 25.1558H247.504V73.8633H253.667Z" fill="#1F3C15" fill-opacity="0.2"/>
<path d="M-10 104C2.21837 99.9272 6.20587 84.2681 18.6667 82.5C30.155 80.8699 35.9295 95.8973 47.3333 93.25C61.1625 90.0397 62.0278 62.1644 76 61" stroke="#12B76A" stroke-width="2" stroke-linecap="round" stroke-linejoin="round"/>
</svg>
