<svg width="1440" height="679" viewBox="0 0 1440 679" fill="none" xmlns="http://www.w3.org/2000/svg">
<path d="M598.589 381.186C593.408 374.468 590.711 367.379 591.002 360.394C591.512 347.683 602.113 337.522 620.069 332.503L814.587 278.157C841.227 270.714 878.738 276.354 905.809 291.87C921.164 300.673 931.267 311.719 934.237 323.011L971.074 462.902C973.588 472.458 970.885 481.103 963.355 488.013C945.658 504.087 905.405 506.339 869.805 493.187L638.45 407.642C620.526 401.022 606.583 391.552 598.589 381.186ZM923.655 312.775C918.046 305.946 911.167 300.269 903.4 296.055C877.372 281.138 841.366 275.682 815.888 282.81L621.37 337.156C605.342 341.632 596.28 349.965 595.834 360.6C595.198 376.217 612.581 392.905 640.137 403.092L871.492 488.636C910.209 502.916 946.064 497.174 960.13 484.481C966.368 478.808 968.542 471.976 966.426 464.159L929.589 324.268C928.397 320.08 926.379 316.172 923.655 312.775Z" fill="#DD5D36" fill-opacity="0.05"/>
<path d="M577.597 391.457C572.963 385.857 570.244 378.92 569.836 371.663C569.481 358.195 579.321 347.176 597.505 340.657L798.67 268.526C845.158 251.856 918.454 274.217 931.587 309.068L987.894 458.781C989.862 463.468 990.389 468.634 989.407 473.622C988.426 478.609 985.981 483.191 982.384 486.783C965.217 505.157 922.712 510.108 883.53 498.294L626.115 420.788C604.001 414.068 586.881 403.497 577.597 391.457ZM921.766 301.615C901.103 274.818 839.506 259.043 800.251 273.125L599.124 345.306C583.053 351.079 574.35 360.398 574.643 371.627C575.094 388.914 596.306 406.822 627.433 416.201L884.915 493.795C927.697 506.686 965.189 498.097 978.823 483.57C981.805 480.64 983.832 476.878 984.639 472.776C985.446 468.674 984.995 464.424 983.345 460.583L926.956 310.894C925.701 307.558 923.952 304.43 921.766 301.615Z" fill="#DD5D36" fill-opacity="0.05"/>
<path d="M556.367 403.676C552.058 398.41 549.336 392.028 548.516 385.274C547.194 371.228 556.428 359.112 574.429 351.028L780.443 259.169C827.982 237.957 908.797 257.269 927.009 294.181L1005.4 453.306C1010.89 464.402 1009.86 475.187 1002.46 484.483C985.707 505.425 942.171 513.278 898.821 503.033L614.433 435.815C588.067 429.565 567.145 417.653 556.367 403.676ZM918.417 289.673C895.328 259.731 824.05 244.982 782.342 263.583L576.328 355.442C560.354 362.564 552.152 373.001 553.276 384.813C554.779 400.888 574.599 421.414 615.492 431.127L899.933 498.283C946.567 509.327 985.624 497.825 998.684 481.435C1004.79 473.74 1005.66 464.7 1001.07 455.397L922.676 296.419C921.49 294.031 920.063 291.771 918.417 289.673Z" fill="#DD5D36" fill-opacity="0.05"/>
<path d="M535.208 418.664C531.194 413.679 528.481 407.774 527.314 401.48C524.912 386.842 533.323 373.475 551.026 363.835L759.809 250.201C807.936 224.002 896.424 239.502 920.29 278.334L1023.44 446.072C1030.78 458.008 1030.8 470.006 1023.51 480.765C1007.71 504.084 962.355 515.123 915.692 507.032L603.792 452.944C572.563 447.516 547.529 434.641 535.208 418.664ZM913.511 277.062C887.696 243.585 805.829 230.662 762.09 254.46L553.33 368.098C537.576 376.675 530.031 388.251 532.092 400.705C534.987 418.534 558.554 440.223 604.59 448.177L916.521 502.28C966.841 511.002 1007.14 496.319 1019.52 478.063C1025.65 469.001 1025.59 458.821 1019.33 448.622L916.178 280.884C915.363 279.566 914.481 278.291 913.534 277.065L913.511 277.062Z" fill="#DD5D36" fill-opacity="0.05"/>
<path d="M514.406 436.334C510.737 431.707 508.093 426.354 506.648 420.629C502.949 405.426 510.452 390.753 527.673 379.42L736.768 241.892C784.923 210.214 881.24 220.882 911.325 261.638L1041.89 437.201C1051.38 449.947 1052.67 463.298 1045.52 475.729C1030.79 501.395 983.983 515.962 934.24 510.406L594.528 472.309C558.061 468.231 528.424 454.513 514.406 436.334ZM906.93 263.744C878 226.228 784.636 216.112 739.429 245.837L530.234 383.443C514.846 393.563 508.107 406.364 511.247 419.49C516.854 442.891 551.307 462.646 595.008 467.545L934.746 505.522C989.022 511.595 1029.44 493.891 1041.29 473.256C1047.34 462.575 1046.28 451.111 1037.96 440.012L907.391 264.471L906.93 263.744Z" fill="#DD5D36" fill-opacity="0.05"/>
<path d="M494.234 456.823C490.927 452.611 488.379 447.855 486.706 442.768C481.635 426.877 487.957 410.908 504.512 397.801L711.056 234.254C758.576 196.627 862.546 201.974 899.597 243.959L1060.43 426.174C1072.29 439.622 1075.08 454.799 1068.3 468.919C1054.56 497.387 1007.71 515.38 954.349 512.653L586.916 494.047C544.939 491.851 510.183 477.505 494.234 456.823ZM1059.03 432.189C1058.32 431.271 1057.59 430.315 1056.75 429.414L895.976 247.173C861.019 207.565 759.013 202.448 714.056 238.039L507.511 401.587C492.431 413.536 486.829 427.265 491.313 441.301C499.563 467.038 539.027 486.76 587.219 489.159L954.661 507.778C1012.04 510.696 1053.11 489.361 1063.99 466.765C1069.46 455.341 1067.77 443.422 1059.08 432.15L1059.03 432.189Z" fill="#DD5D36" fill-opacity="0.05"/>
<path d="M474.815 479.821C472.079 476.321 469.834 472.464 468.141 468.357C461.389 451.797 466.342 434.416 482.067 419.4L682.709 227.724C728.843 183.643 840.406 182.473 885.022 225.606L1078.98 413.075C1093.73 427.339 1098.31 444.151 1091.84 460.395C1079.54 491.281 1031.97 513.282 976.153 513.873L581.555 518.081C534.257 518.584 492.927 503.309 474.815 479.821ZM1077.27 414.791L1075.6 416.523L881.643 229.055C839.422 188.247 729.734 189.456 686.032 231.201L485.439 422.94C471.044 436.688 466.635 451.784 472.652 466.584C484.079 494.645 528.855 513.842 581.551 513.289L976.116 508.987C1030.02 508.408 1075.77 487.668 1087.36 458.549C1093.16 444.051 1089.04 429.508 1075.64 416.494L1077.27 414.791Z" fill="#DD5D36" fill-opacity="0.05"/>
<path d="M456.987 506.388C454.857 503.641 452.996 500.696 451.429 497.593C442.727 480.351 446.042 461.444 460.742 444.371L651.666 222.533C695.543 171.545 814.418 162.79 867.255 206.646L1097.19 397.563C1115.28 412.587 1121.95 431.153 1115.97 449.851C1105.29 483.2 1057.42 509.465 999.553 513.723L578.681 544.631C525.483 548.54 477.573 533.084 456.987 506.388ZM1094.07 401.272L864.174 210.325C814.047 168.734 696.964 177.29 655.327 225.668L464.413 447.518C450.883 463.248 447.895 479.795 455.766 495.413C471.106 525.712 521.44 543.974 578.292 539.835L999.183 508.872C1055.13 504.752 1101.21 479.886 1111.34 448.346C1116.75 431.41 1110.78 415.132 1094.07 401.272Z" fill="#DD5D36" fill-opacity="0.05"/>
<path d="M440.95 536.17C439.614 534.44 438.368 532.641 437.217 530.783C426.207 512.812 427.572 492.26 440.996 472.96L617.845 218.924C635.927 192.943 671.872 173.711 716.567 166.007C766.141 157.45 815.722 165.578 845.957 187.201L1114.75 379.492C1136.65 395.166 1145.79 415.603 1140.49 437.085C1131.51 473.497 1084.91 503.596 1024.51 511.955L578.853 573.71C519.687 581.9 464.388 566.565 440.95 536.17ZM1127.09 397.782C1122.75 392.279 1117.63 387.442 1111.89 383.426L843.186 191.204C813.968 170.302 765.783 162.501 717.439 170.832C674.652 178.227 638.924 197.272 621.864 221.743L444.939 475.758C432.477 493.653 431.23 511.807 441.311 528.288C461.166 560.643 517.431 577.36 578.154 568.953L1023.85 507.169C1081.37 499.198 1127.41 469.897 1135.79 435.934C1139.09 422.429 1136.01 409.356 1127.09 397.782Z" fill="#DD5D36" fill-opacity="0.05"/>
<path d="M427.126 569.26L426.272 568.153C412.476 549.482 411.437 527.192 423.395 505.393L581.303 217.273C596.79 189.02 631.198 166.077 675.696 154.293C729.031 140.207 784.7 145.226 820.877 167.503L1131.36 358.702C1157.55 374.84 1169.6 397.284 1165.27 421.927C1158.41 460.923 1112.47 495.685 1050.95 508.418L582.572 605.329C517.551 618.856 453.892 603.97 427.126 569.26ZM1128.82 362.826L818.301 171.656C783.227 150.054 729.031 145.203 676.9 159.002C633.606 170.5 600.418 192.502 585.519 219.619L427.61 507.659C416.453 527.999 417.336 547.901 430.141 565.21C455.408 599.25 517.563 613.772 581.548 600.542L1049.98 503.671C1109.56 491.345 1153.98 458.154 1160.49 421.095C1164.46 398.535 1153.22 377.837 1128.82 362.826Z" fill="#DD5D36" fill-opacity="0.05"/>
<path d="M416.232 605.965C401.864 587.333 399.121 564.733 408.563 541.804L542.109 217.903C554.767 187.177 587.325 160.405 631.42 144.457C687.779 124.068 749.2 125.333 791.722 147.773L1146.56 334.997C1177.6 351.365 1193.04 375.912 1190.02 404.122C1185.51 446.401 1141.84 485.126 1078.76 502.778L590.357 639.486C522.148 658.582 451.883 646.422 419.479 609.941C418.358 608.619 417.26 607.299 416.232 605.965ZM1173.43 362.708C1166.53 353.763 1156.75 345.839 1144.3 339.269L789.459 152.045C748.115 130.222 688.186 129.071 633.064 149.008C590.24 164.497 558.726 190.283 546.563 219.725L413.036 543.65C403.514 566.762 406.999 588.529 423.102 606.706C454.342 641.858 522.577 653.416 589.071 634.801L1077.48 498.105C1137.69 481.248 1181.01 443.271 1185.19 403.634C1186.84 388.974 1182.61 374.256 1173.43 362.708Z" fill="#DD5D36" fill-opacity="0.05"/>
<path d="M408.793 646.268C394.658 627.938 390.522 605.69 397.168 582.388L500.307 221.189C509.837 187.76 540.333 156.961 583.928 136.644C641.418 109.865 709.817 106.572 758.191 128.25L1159.94 308.192C1195.82 324.258 1215.71 351.691 1214.49 383.429C1212.77 428.425 1170.88 472.148 1107.78 494.804L602.881 676.071C533.181 701.091 457.12 692.939 417.881 656.232C414.589 653.16 411.55 649.828 408.793 646.268ZM1158.91 310.427L1157.93 312.633L756.176 132.713C709.032 111.591 642.147 114.921 585.926 141.082C543.6 160.781 514.061 190.481 504.92 222.567L401.81 583.724C394.306 609.973 401.01 633.833 421.18 652.705C459.135 688.215 533.166 695.946 601.228 671.508L1106.12 490.263C1167.39 468.254 1208 426.268 1209.65 383.246C1210.8 353.151 1192.44 328.068 1157.95 312.614L1158.91 310.427Z" fill="#DD5D36" fill-opacity="0.05"/>
<path d="M405.315 690.098C391.51 672.196 386.095 650.553 389.94 627.286L456.14 227.525C462.16 191.105 490.335 155.917 533.426 130.993C591.878 97.2138 665.147 88.6603 720.097 109.24L1170.98 278.155C1212.68 293.784 1237.18 323.398 1238.34 359.579C1239.82 407.331 1200.33 456.259 1137.81 484.166L620.701 715.053C550.562 746.37 469.12 743.13 422.644 707.289C416.154 702.327 410.329 696.549 405.315 690.098ZM1169.33 282.756L718.35 113.817C664.722 93.7025 592.996 102.15 535.803 135.219C493.979 159.446 466.648 193.362 460.86 228.339L394.72 628.073C389.849 657.528 400.789 684.28 425.56 703.396C470.733 738.275 550.159 741.244 618.723 710.64L1135.8 479.783C1196.56 452.645 1234.91 405.519 1233.51 359.714C1232.46 325.654 1209.05 297.585 1169.28 282.693L1169.33 282.756Z" fill="#DD5D36" fill-opacity="0.05"/>
<path d="M406.429 737.407C392.999 720.096 386.322 698.493 387.642 676.623L409.609 237.426C411.603 197.631 437.191 157.657 479.805 127.745C538.17 86.7502 615.582 72.4342 676.983 91.2083L1179.12 244.772C1227.08 259.488 1257.05 291.349 1261.17 332.307C1266.39 383.692 1230.87 436.735 1168.5 470.71L644.457 756.316C574.015 794.708 489.786 797.349 434.864 762.886C423.957 756.136 414.33 747.51 406.429 737.407ZM1238.85 288.828C1225.27 271.215 1204.41 257.567 1177.71 249.393L675.542 95.7907C615.515 77.4208 539.802 91.4694 482.527 131.664C441.131 160.738 416.334 199.319 414.385 237.635L392.532 676.824C390.859 710.374 406.759 739.5 437.454 758.701C490.916 792.284 573.181 789.594 642.137 752.007L1166.19 466.413C1226.81 433.368 1261.36 382.149 1256.32 332.712C1254.75 316.73 1248.69 301.518 1238.85 288.828Z" fill="#DD5D36" fill-opacity="0.05"/>
<path d="M412.784 788.075C399.93 771.427 392.431 751.27 391.279 730.27L361.234 251.175C358.528 207.602 381.143 162.317 423.341 126.868C480.529 78.7551 561.292 58.1439 628.853 74.3951L1183.77 207.901C1238.48 221.064 1274.47 255.04 1282.52 301.116C1292.02 355.434 1260.29 413.971 1199.69 453.861L674.864 799.49C606.437 844.553 518.491 853.872 456.06 822.732C439.194 814.608 424.396 802.757 412.784 788.075ZM1183.13 210.299L1182.61 212.711L627.724 79.0972C561.601 63.2017 482.59 83.405 426.454 130.566C385.438 165.024 363.489 208.832 366.063 250.882L396.14 729.992C398.559 768.249 420.58 799.616 458.267 818.362C519.217 848.778 605.214 839.559 672.255 795.404L1197.09 449.787C1256.04 410.965 1287.02 354.357 1277.81 301.913C1270.1 257.828 1235.43 225.258 1182.68 212.574L1183.13 210.299Z" fill="#DD5D36" fill-opacity="0.05"/>
<path d="M425.035 842.001C413.007 826.311 405.016 807.908 401.763 788.408L311.218 269.361C302.901 221.608 322.084 170.283 363.871 128.631C419.142 73.5311 502.181 46.3499 575.405 59.3572L1184.23 167.502C1245.95 178.467 1288.82 214.305 1301.82 265.825C1316.29 323.14 1289.13 387.399 1230.91 433.555L712.542 844.503C646.349 896.991 557.979 913.538 487.368 886.619C461.09 876.529 439.907 861.287 425.035 842.001ZM1183.82 169.884L1183.37 172.238L574.563 64.119C502.858 51.3646 421.481 78.047 367.279 132.062C326.633 172.593 307.928 222.325 316.018 268.509L406.462 787.633C414.019 831.097 443.384 864.625 489.121 882.077C558.17 908.375 644.702 892.123 709.58 840.688L1227.96 429.731C1284.61 384.8 1311.14 322.44 1297.09 267.026C1284.58 217.429 1243.13 182.893 1183.37 172.283L1183.82 169.884Z" fill="#DD5D36" fill-opacity="0.05"/>
<path d="M443.7 898.207C432.837 884.122 424.755 868.097 419.887 850.989L260.015 292.457C245.004 239.977 260.08 181.948 301.392 133.28C354.622 70.565 437.049 37.3354 516.505 46.5605L1179.86 123.533C1247.7 131.404 1299.48 169.71 1318.35 225.939C1338.93 287.249 1317.8 355.8 1261.85 409.317L758.358 890.885C696.632 949.92 607.049 974.624 530.136 953.789C493.747 943.933 463.976 924.5 443.7 898.207ZM1179.29 128.342L515.941 51.3694C438.079 42.3391 357.276 74.9178 305.088 136.408C264.843 183.833 250.104 240.217 264.662 291.121L424.534 849.652C438.442 898.23 477.411 934.482 531.357 949.156C606.664 969.545 694.429 945.319 754.953 887.432L1258.5 405.825C1313.1 353.686 1333.73 286.963 1313.77 227.488C1295.49 173.068 1245.17 135.938 1179.29 128.342Z" fill="#DD5D36" fill-opacity="0.05"/>
<path d="M469.391 957.279C460.11 945.198 452.548 931.889 446.92 917.732L208.138 320.947C185.081 263.315 195.195 197.759 235.916 141.04C285.493 71.9745 368.325 31.9329 452.094 36.5277L1169.84 75.9909C1244.65 80.1081 1305.02 119.363 1331.29 181.013C1358.8 245.506 1344.08 320.231 1291.92 380.911L812.936 938.274C755.838 1004.71 668.642 1037.33 585.327 1023.51C536.576 1015.45 496.157 991.988 469.391 957.279ZM1169.69 78.4078L1169.56 80.8373L451.791 41.4157C369.653 36.9072 288.428 76.1709 239.805 143.898C200.167 199.161 190.197 263.082 212.629 319.149L451.374 915.963C473.276 970.693 522.436 1008.12 586.045 1018.75C667.736 1032.33 753.174 1000.35 809.228 935.155L1288.22 377.792C1339.1 318.49 1353.56 245.691 1326.82 182.938C1301.26 123.023 1242.48 84.8561 1169.54 80.8567L1169.69 78.4078Z" fill="#DD5D36" fill-opacity="0.05"/>
<path d="M502.699 1018.16C495.548 1008.87 489.247 998.958 483.872 988.541L156.197 355.362C123.508 292.159 127.525 218.203 167.251 152.441C212.475 77.4437 294.816 30.5991 382.027 30.0317L1153.36 25.0405C1234.83 24.5245 1304.45 63.9894 1339.58 130.668C1375.25 198.392 1368.19 279.646 1320.58 348.116L876.897 986.249C826.364 1058.94 740.777 1100.59 653.523 1094.91C590.856 1090.83 537.546 1063.35 502.699 1018.16ZM1317.74 105.578C1280.43 57.1931 1221.1 29.3764 1153.29 29.7665L381.973 34.748C296.514 35.4285 215.798 81.4411 171.441 154.907C132.607 219.199 128.63 291.438 160.546 353.092L488.198 986.269C519.849 1047.42 580.238 1085.25 653.88 1090.04C739.461 1095.6 823.404 1054.76 872.977 983.454L1316.55 345.285C1363.07 278.361 1370.06 198.945 1335.29 132.833C1330.23 123.262 1324.36 114.143 1317.74 105.578Z" fill="#DD5D36" fill-opacity="0.05"/>
<path d="M543.256 1079.11C539.272 1073.94 535.492 1068.57 531.916 1063L104.894 396.228C61.3233 328.175 57.8125 242.792 95.5215 167.832C115.306 128.037 145.199 94.1398 182.207 69.5343C219.215 44.9289 262.039 30.4794 306.389 27.6331L1129.46 -29.2901C1217.03 -35.3946 1296.34 3.37481 1341.77 74.3297C1387.2 145.285 1389.17 233.539 1347.07 310.502L951.086 1034.12C929.942 1073.23 898.889 1106.1 861.042 1129.42C823.194 1152.75 779.88 1165.72 735.441 1167.03C658.457 1169.7 588.012 1137.12 543.256 1079.11ZM1326.48 60.823C1280.88 1.69437 1208.71 -30.0368 1129.82 -24.5762L306.741 32.3567C263.226 35.1363 221.205 49.3019 184.888 73.4343C148.571 97.5667 119.233 130.819 99.813 169.859C62.8808 243.277 66.2946 326.869 108.985 393.495L536.007 1060.26C578.659 1126.84 653.15 1164.93 735.285 1162.1C778.887 1160.8 821.383 1148.08 858.514 1125.18C895.646 1102.29 926.109 1070.05 946.849 1031.67L1342.8 308.093C1384.05 232.708 1382.13 146.261 1337.68 76.8375C1334.17 71.2857 1330.43 65.9475 1326.48 60.823Z" fill="#DD5D36" fill-opacity="0.05"/>
<path d="M592.32 1140.75L55.0795 444.068C-1.99349 370.057 -14.8398 274.258 20.7265 187.831C56.2929 101.403 132.811 42.377 225.513 29.9122L1097.41 -86.9752C1190.05 -99.3916 1279.44 -62.616 1336.51 11.3954C1393.58 85.4069 1406.43 181.205 1370.87 267.646L1036.2 1081.19C1000.58 1167.68 924.099 1226.66 831.46 1239.07C738.82 1251.49 649.393 1214.77 592.32 1140.75ZM1097.74 -84.5773L1098.06 -82.1793L226.089 34.744C135.188 46.9431 60.0951 104.85 25.1903 189.665C-9.71446 274.479 2.89819 368.492 58.904 441.119L596.145 1137.81C652.151 1210.43 739.86 1246.52 830.76 1234.32C921.661 1222.12 996.777 1164.21 1031.66 1079.4L1366.37 265.818C1401.27 180.992 1388.65 87.0013 1332.65 14.3737C1276.64 -58.2539 1188.95 -94.3466 1098.04 -82.1599L1097.74 -84.5773Z" fill="#DD5D36" fill-opacity="0.05"/>
</svg>
