<svg width="1440" height="1377" viewBox="0 0 1440 1377" fill="none" xmlns="http://www.w3.org/2000/svg">
<path d="M606.952 505.155C599.952 500.363 595.199 494.452 593.321 487.718C589.885 475.47 596.835 462.534 612.367 452.22L780.634 340.52C803.678 325.222 841.1 319.015 871.637 325.424C888.959 329.061 901.977 336.452 908.285 346.277L986.479 467.982C991.819 476.296 991.914 485.353 986.883 494.25C975.008 514.999 937.413 529.558 899.492 528.029L653.031 518.025C633.938 517.257 617.754 512.55 606.952 505.155ZM895.062 339.804C887.619 335.039 879.325 331.76 870.636 330.148C841.277 323.988 805.344 329.904 783.307 344.545L615.04 456.245C601.174 465.447 595.125 476.169 597.982 486.423C602.194 501.474 623.877 511.986 653.232 513.176L899.692 523.18C940.926 524.82 973.261 508.297 982.726 491.885C986.91 484.564 986.87 477.394 982.446 470.611L904.252 348.906C901.825 345.29 898.701 342.195 895.062 339.804Z" fill="#30C67C" fill-opacity="0.06"/>
<path d="M590.152 521.4C584.016 517.502 579.289 511.743 576.663 504.965C572.17 492.263 578.131 478.747 593.417 466.936L762.521 336.267C801.6 306.069 878.219 304.73 901.462 333.83L1001.21 458.872C1004.52 462.723 1006.62 467.475 1007.22 472.522C1007.83 477.569 1006.92 482.682 1004.6 487.208C993.941 509.981 955.037 527.803 914.121 528.652L645.351 534.334C622.243 534.763 602.697 529.988 590.152 521.4ZM889.821 329.769C861.899 310.654 798.44 314.65 765.443 340.154L596.392 470.859C582.885 481.308 577.482 492.857 581.225 503.448C586.986 519.752 612.688 530.243 645.19 529.564L914.051 523.945C958.723 523.01 991.737 503.274 1000.23 485.25C1002.16 481.543 1002.93 477.339 1002.43 473.188C1001.93 469.038 1000.19 465.134 997.436 461.989L897.62 336.995C895.398 334.209 892.769 331.773 889.821 329.769Z" fill="#30C67C" fill-opacity="0.06"/>
<path d="M573.726 539.571C568.003 535.891 563.445 530.661 560.582 524.489C554.991 511.535 560.037 497.162 574.666 483.92L742.297 332.989C780.974 298.147 863.804 291.587 892.516 321.081L1016.17 448.263C1024.81 457.125 1027.16 467.703 1022.99 478.826C1013.52 503.915 974.525 524.816 930.129 528.442L638.874 552.231C611.866 554.419 588.29 549.542 573.726 539.571ZM882.952 319.443C851.752 298.084 779.401 306.041 745.465 336.602L577.834 487.532C564.836 499.235 560.255 511.693 564.968 522.582C571.355 537.409 596.541 550.82 638.435 547.444L929.722 523.581C977.487 519.701 1011.09 496.711 1018.46 477.092C1021.89 467.889 1019.93 459.021 1012.7 451.587L889.084 324.546C887.219 322.64 885.164 320.931 882.952 319.443Z" fill="#30C67C" fill-opacity="0.06"/>
<path d="M558.224 560.359C552.868 556.855 548.466 552.075 545.414 546.448C538.614 533.264 542.49 517.955 556.357 503.324L719.904 330.826C757.602 291.059 846.556 278.507 881.237 308.082L1031.1 435.821C1041.76 444.91 1045.49 456.316 1041.87 468.799C1034.03 495.856 994.295 520.347 947.411 527.045L634.038 571.81C602.657 576.28 574.873 571.756 558.224 560.359ZM874.396 308.963C839.513 285.083 757.652 298.044 723.388 334.174L559.863 506.668C547.523 519.687 543.918 533.025 549.72 544.236C557.974 560.303 587.082 573.665 633.326 567.029L946.734 522.269C997.291 515.043 1031.09 488.646 1037.24 467.46C1040.28 456.948 1037.07 447.285 1027.97 439.515L878.111 311.776C876.93 310.774 875.697 309.833 874.418 308.959L874.396 308.963Z" fill="#30C67C" fill-opacity="0.06"/>
<path d="M543.886 583.582C538.968 580.313 534.802 576.037 531.662 571.036C523.454 557.716 526.064 541.444 538.949 525.351L695.422 330.028C731.456 285.041 826.367 265.476 867.557 294.965L1045.92 421.688C1058.87 430.885 1064.22 443.188 1061.25 457.217C1055.15 486.176 1015.13 514.471 966.095 524.531L631.198 593.086C595.252 600.457 562.828 596.55 543.886 583.582ZM864.026 298.323C824.935 271.562 733.004 290.74 699.171 332.961L542.626 528.388C531.111 542.762 528.649 557.017 535.685 568.534C548.238 589.064 587.104 597.228 630.185 588.407L965.07 519.729C1018.57 508.763 1051.55 479.456 1056.46 456.171C1058.92 444.145 1054.38 433.566 1043.04 425.574L864.689 298.873L864.026 298.323Z" fill="#30C67C" fill-opacity="0.06"/>
<path d="M531.019 609.294C526.574 606.308 522.683 602.569 519.522 598.246C509.796 584.696 510.884 567.555 522.588 549.98L668.609 330.694C702.204 280.243 802.753 253.257 850.949 281.765L1060.15 405.479C1075.57 414.614 1082.92 428.189 1080.82 443.713C1076.53 475.03 1037.52 506.599 985.917 520.466L630.664 616.112C590.056 626.972 552.571 624.048 531.019 609.294ZM1060.67 411.633C1059.72 410.978 1058.72 410.296 1057.65 409.696L848.496 285.939C803.025 259.046 704.415 285.646 672.63 333.37L526.609 552.656C515.951 568.674 514.857 583.463 523.452 595.431C539.24 617.367 582.862 623.954 629.444 611.369L984.71 515.731C1040.19 500.806 1072.67 467.844 1076.05 442.994C1077.74 430.438 1072.45 419.621 1060.71 411.58L1060.67 411.633Z" fill="#30C67C" fill-opacity="0.06"/>
<path d="M519.642 637.162C515.96 634.676 512.635 631.7 509.757 628.316C498.226 614.646 497.576 596.584 507.902 577.451L639.631 333.228C669.916 277.066 775.678 241.538 831.424 268.804L1073.75 387.298C1092.18 396.316 1101.72 410.896 1100.58 428.345C1098.41 461.517 1059.95 497.119 1007.03 514.9L632.979 640.628C588.142 655.697 544.117 653.917 519.642 637.162ZM1072.66 389.457L1071.6 391.621L829.273 273.127C776.523 247.334 672.557 282.32 643.864 335.51L512.201 579.777C502.749 597.296 503.212 613.015 513.501 625.237C533.027 648.405 581.541 652.853 631.497 636.071L1005.49 510.263C1056.59 493.086 1093.71 459.242 1095.75 427.968C1096.79 412.391 1088.39 399.826 1071.63 391.582L1072.66 389.457Z" fill="#30C67C" fill-opacity="0.06"/>
<path d="M510.879 667.933C508.005 665.978 505.326 663.75 502.879 661.282C489.282 647.565 486.603 628.558 495.319 607.782L608.5 337.867C634.508 275.83 744.885 230.832 808.674 256.25L1086.29 366.925C1108.13 375.637 1120.21 391.239 1120.28 410.871C1120.41 445.887 1082.98 485.64 1029.25 507.54L638.435 666.771C589.037 686.9 538.696 686.977 510.879 667.933ZM1084.47 371.415L806.879 260.7C746.366 236.601 637.632 280.857 612.95 339.719L499.782 609.644C491.765 628.78 494.027 645.442 506.332 657.87C530.271 681.96 583.783 683.804 636.586 662.329L1027.4 503.04C1079.34 481.863 1115.51 443.993 1115.41 410.869C1115.34 393.087 1104.64 379.445 1084.47 371.415Z" fill="#30C67C" fill-opacity="0.06"/>
<path d="M504.81 701.209C503.006 699.975 501.266 698.649 499.598 697.236C483.582 683.538 478.539 663.567 485.356 641.068L575.214 344.866C584.4 314.575 612.659 285.192 652.798 264.076C697.315 240.644 746.985 233.081 782.416 244.322L1097.42 344.318C1123.08 352.473 1138.08 369.094 1139.66 391.163C1142.36 428.568 1107.31 471.576 1052.44 498.159L647.568 694.378C593.815 720.42 536.482 722.891 504.81 701.209ZM1114.8 357.91C1108.97 354.013 1102.61 350.992 1095.91 348.944L781.015 248.984C746.774 238.115 698.532 245.559 655.116 268.397C616.698 288.63 588.587 317.768 579.907 346.308L489.969 642.512C483.636 663.379 488.05 681.032 502.723 693.6C531.591 718.252 590.268 716.798 645.436 690.068L1050.33 493.811C1102.6 468.482 1137.35 426.409 1134.84 391.518C1133.82 377.652 1126.86 366.166 1114.8 357.91Z" fill="#30C67C" fill-opacity="0.06"/>
<path d="M501.868 736.949L500.715 736.159C481.831 722.654 473.967 701.772 478.617 677.347L539.945 354.567C545.961 322.914 571.614 290.476 610.306 265.54C656.695 235.689 711.198 223.29 752.482 233.32L1106.8 319.417C1136.69 326.69 1155.08 344.322 1158.56 369.099C1164.06 408.309 1131.09 455.547 1076.5 486.637L660.86 723.307C603.183 756.232 538.036 761.709 501.868 736.949ZM1105.66 324.123L751.313 238.065C711.285 228.336 658.236 240.44 612.904 269.648C575.269 293.941 550.486 325.107 544.679 355.498L483.326 678.202C478.987 700.992 485.966 719.651 503.487 732.166C538.022 756.752 601.626 751.392 658.409 719.068L1074.11 482.421C1126.99 452.315 1159 407.04 1153.76 369.78C1150.58 347.096 1133.5 330.877 1105.66 324.123Z" fill="#30C67C" fill-opacity="0.06"/>
<path d="M502.829 775.227C483.414 761.936 473.833 741.283 475.741 716.56L502.857 367.259C505.42 334.128 528.132 298.617 565.157 269.845C612.477 233.064 671.293 215.321 718.663 223.549L1113.95 292.18C1148.53 298.176 1170.79 316.763 1176.61 344.53C1185.36 386.138 1155.78 436.444 1101.21 472.695L678.802 753.399C619.81 792.605 549.221 802.713 507.144 778.007C505.67 777.095 504.218 776.178 502.829 775.227ZM1148.06 310.253C1138.74 303.872 1126.99 299.352 1113.12 296.942L717.829 228.311C671.769 220.306 614.407 237.697 568.124 273.666C532.166 301.611 510.144 335.86 507.656 367.618L480.566 716.937C478.638 741.858 488.668 761.489 509.593 773.812C550.152 797.612 618.625 787.558 676.134 749.339L1098.56 468.643C1150.63 434.037 1180.12 384.549 1171.87 345.555C1168.92 331.1 1160.36 318.405 1148.06 310.253Z" fill="#30C67C" fill-opacity="0.06"/>
<path d="M508.186 815.858C489.086 802.782 478.288 782.895 477.423 758.679L464.108 383.28C462.861 348.541 482.369 309.836 517.571 277.062C563.996 233.855 628.044 209.623 680.746 215.321L1118.41 262.557C1157.5 266.77 1184.88 286.729 1193.51 317.297C1205.76 360.628 1179.39 415.142 1126.36 456.157L702.002 784.335C643.419 829.636 568.553 845.345 519.904 822.533C515.825 820.626 511.906 818.394 508.186 815.858ZM1118.12 264.999L1117.86 267.401L680.206 220.188C628.846 214.639 566.249 238.439 520.84 280.667C486.655 312.463 467.719 349.826 468.921 383.167L482.25 758.519C483.209 785.802 496.946 806.431 521.954 818.16C569.013 840.23 641.818 824.747 699.021 780.505L1123.38 452.349C1174.87 412.513 1200.55 360.048 1188.85 318.615C1180.66 289.634 1155.46 271.438 1117.88 267.375L1118.12 264.999Z" fill="#30C67C" fill-opacity="0.06"/>
<path d="M518.397 858.622C499.743 845.852 487.915 826.935 484.395 803.616L424.049 402.93C418.54 366.429 434.486 324.266 467.788 287.264C512.968 237.102 580.026 206.363 638.644 208.988L1119.64 230.578C1164.13 232.579 1196.58 253.191 1208.84 287.25C1224.97 332.219 1202.5 390.941 1151.64 436.773L730.977 815.918C673.919 867.344 595.45 889.385 540.184 869.629C532.48 866.911 525.157 863.212 518.397 858.622ZM1119.5 235.462L638.394 213.881C581.177 211.291 515.554 241.452 471.352 290.552C439.042 326.499 423.506 367.191 428.79 402.248L489.185 802.891C493.638 832.412 512.297 854.484 541.757 865.026C595.487 884.27 671.955 862.592 727.734 812.331L1148.37 433.225C1197.8 388.667 1219.75 332.009 1204.28 288.869C1192.78 256.793 1161.85 237.315 1119.43 235.418L1119.5 235.462Z" fill="#30C67C" fill-opacity="0.06"/>
<path d="M534.051 903.28C515.935 890.957 502.92 872.466 497.429 851.256L382.842 426.702C372.462 388.233 384.471 342.315 415.78 300.715C458.652 243.716 527.872 206.218 592.071 205.136L1117.09 196.311C1167.25 195.514 1205.58 216.577 1222.14 254.267C1242.95 301.536 1225.54 362.947 1176.69 414.506L766.304 847.841C711.14 906.09 631.833 934.585 568.958 918.745C556.501 915.689 544.683 910.453 534.051 903.28ZM1187.5 219.792C1169.15 207.228 1145.1 200.679 1117.17 201.142L592.113 209.939C529.347 210.982 461.661 247.701 419.578 303.604C389.169 344.03 377.484 388.379 387.449 425.428L502.143 849.939C510.901 882.368 535.01 905.169 570.132 913.965C631.346 929.419 708.769 901.482 762.767 844.457L1173.16 411.131C1220.64 360.996 1237.7 301.617 1217.66 256.146C1211.23 241.429 1200.78 228.827 1187.5 219.792Z" fill="#30C67C" fill-opacity="0.06"/>
<path d="M555.726 949.519C538.363 937.649 525.012 920.788 517.438 901.167L341.067 454.706C325.051 414.092 332.595 364.039 361.799 317.302C401.356 253.894 471.822 209.375 541.102 203.992L1110.14 159.805C1166.24 155.45 1210.96 176.667 1232.83 218.013C1258.62 266.75 1246.49 332.222 1201.16 388.86L808.547 879.531C757.358 943.505 676.575 979.499 607.582 969.136C589.034 966.611 571.301 959.903 555.726 949.519ZM1110.27 162.283L1110.52 164.74L541.478 208.813C473.677 214.09 404.751 257.682 365.901 319.86C337.514 365.289 330.15 413.732 345.57 452.937L521.976 899.403C536.079 935.049 566.702 958.093 608.334 964.298C675.695 974.429 754.653 939.131 804.804 876.449L1197.43 385.787C1241.53 330.671 1253.53 267.269 1228.6 220.222C1207.66 180.667 1164.64 160.379 1110.55 164.587L1110.27 162.283Z" fill="#30C67C" fill-opacity="0.06"/>
<path d="M584.016 997.036C567.734 985.822 554.455 970.781 545.346 953.235L299.101 487.433C276.459 444.575 278.874 389.836 305.774 337.324C341.352 267.862 411.956 216.39 485.622 206.175L1098.12 121.234C1160.21 112.625 1212.04 133.493 1240.3 178.488C1271.75 228.545 1265.73 298.05 1224.59 359.913L858.273 910.726C811.5 981.073 732.543 1024.07 657.072 1020.25C628.963 1018.76 604.112 1010.79 584.016 997.036ZM1098.46 123.626L1098.76 126.005L486.29 210.964C414.147 220.951 344.97 271.436 310.074 339.536C283.914 390.629 281.462 443.706 303.404 485.142L549.576 951.049C570.173 990.062 608.449 1012.9 657.339 1015.39C731.133 1019.1 808.431 976.95 854.278 908.011L1220.61 357.185C1260.64 296.969 1266.63 229.469 1236.17 181.09C1208.98 137.77 1158.89 117.707 1098.77 126.049L1098.46 123.626Z" fill="#30C67C" fill-opacity="0.06"/>
<path d="M619.108 1044.74C604.429 1034.69 591.798 1021.94 581.89 1007.17L257.519 525.196C227.051 479.906 223.491 420.057 247.775 361.018C279.063 284.941 347.22 227.905 425.646 212.17L1080.39 80.7573C1147.35 67.3176 1208.43 87.7796 1243.72 135.447C1282.21 187.42 1283.26 259.144 1246.55 327.31L916.162 940.711C875.657 1015.91 798.064 1067.04 718.474 1070.95C680.819 1072.8 646.506 1063.5 619.108 1044.74ZM1081.34 85.506L426.593 216.918C349.743 232.347 282.931 288.263 252.255 362.853C228.603 420.38 231.976 478.561 261.527 522.492L585.898 1004.47C614.113 1046.38 662.365 1068.85 718.207 1066.16C796.13 1062.33 872.142 1012.21 911.858 938.476L1242.28 325.024C1278.14 258.583 1277.17 188.75 1239.84 138.334C1205.67 92.205 1146.35 72.408 1081.34 85.506Z" fill="#30C67C" fill-opacity="0.06"/>
<path d="M661.768 1093.01C649.213 1084.38 637.914 1074.05 628.194 1062.32L216.96 568.3C177.25 520.591 166.647 455.112 187.886 388.597C213.74 307.607 280.18 243.966 361.281 222.495L1056.19 38.6246C1128.63 19.4621 1198.16 38.1818 1242.17 88.7196C1288.23 141.583 1297.28 217.204 1266.39 291.012L982.696 968.951C948.878 1049.76 875.995 1107.69 792.483 1120.25C743.621 1127.61 697.936 1117.77 661.768 1093.01ZM1056.8 40.9676L1057.43 43.3195L362.501 227.239C282.978 248.288 217.826 310.693 192.467 390.117C171.81 454.911 182.044 518.791 220.678 565.204L631.885 1059.26C669.602 1104.57 727.908 1125 791.695 1115.49C873.591 1103.21 944.997 1046.43 978.207 967.129L1261.9 289.19C1292.01 217.082 1283.31 143.373 1238.51 91.931C1195.71 42.8226 1128.02 24.6499 1057.41 43.3457L1056.8 40.9676Z" fill="#30C67C" fill-opacity="0.06"/>
<path d="M712.232 1140.64C702.565 1134.01 693.513 1126.53 685.187 1118.28L178.169 617.06C127.577 567.022 108.585 495.434 126.087 420.624C145.97 335.334 209.844 265.374 292.628 237.931L1024.8 -4.75743C1102.14 -30.3812 1180.54 -14.3153 1234.52 38.2754C1289.35 91.6916 1307.7 171.16 1283.53 250.977L1058.34 994.857C1032.69 1079.59 964.126 1145.61 879.375 1167.12C818.507 1182.57 759.319 1172.88 712.232 1140.64ZM1206.01 21.1445C1155.59 -13.3709 1090.58 -21.5299 1026.2 -0.241228L294.031 242.434C212.949 269.444 150.365 338.112 130.833 421.678C113.726 494.814 132.227 564.757 181.605 613.559L688.601 1114.78C737.574 1163.19 806.688 1180.55 878.213 1162.38C961.337 1141.27 1028.59 1076.53 1053.75 993.408L1278.83 249.527C1302.43 171.518 1284.58 93.8185 1231.11 41.6572C1223.35 34.1131 1214.95 27.2502 1206.01 21.1445Z" fill="#30C67C" fill-opacity="0.06"/>
<path d="M769.613 1186.11C764.229 1182.42 758.977 1178.48 753.855 1174.28L141.975 671.757C79.5357 620.464 49.8571 540.327 62.6035 457.391C69.1472 413.434 87.1259 371.968 114.739 337.146C142.352 302.325 178.629 275.37 219.939 258.981L985.306 -49.0662C1066.73 -81.8884 1154.13 -69.4748 1219.23 -15.9938C1284.33 37.4872 1313.43 120.829 1297.12 207.026L1143.68 1017.51C1135.63 1061.23 1116.23 1102.07 1087.42 1135.94C1058.62 1169.8 1021.41 1195.5 979.548 1210.46C907.142 1236.75 830.081 1227.48 769.613 1186.11ZM1200.52 -24.125C1138.9 -66.3044 1060.46 -74.2234 987.108 -44.6948L221.731 263.365C181.195 279.433 145.594 305.87 118.492 340.029C91.3906 374.188 73.7409 414.868 67.3111 457.995C54.828 539.225 83.8618 617.688 145.023 667.895L756.904 1170.42C818.013 1220.59 900.621 1233.84 977.877 1205.81C1018.95 1191.13 1055.45 1165.91 1083.71 1132.69C1111.97 1099.46 1131 1059.38 1138.89 1016.48L1292.32 206.051C1308.31 121.616 1279.81 39.9785 1216.12 -12.3483C1211.06 -16.5439 1205.86 -20.4694 1200.52 -24.125Z" fill="#30C67C" fill-opacity="0.06"/>
<path d="M835.301 1229.61L109.347 732.633C32.2264 679.837 -9.54536 592.673 -2.37481 499.489C4.79573 406.304 59.3736 326.553 143.71 286.099L937.029 -94.0512C1021.32 -134.439 1117.69 -127.031 1194.81 -74.2352C1271.93 -21.4391 1313.71 65.7245 1306.55 158.918L1239.16 1036.03C1231.95 1129.29 1177.4 1208.98 1093.11 1249.37C1008.82 1289.76 912.422 1282.41 835.301 1229.61ZM938.078 -91.8703L939.126 -89.6894L145.748 290.518C63.0439 330.163 9.47596 408.411 2.43699 499.856C-4.60199 591.302 36.3966 676.839 112.075 728.647L838.029 1225.63C913.708 1277.44 1008.27 1284.7 1090.97 1245.06C1173.68 1205.41 1227.27 1127.16 1234.29 1035.72L1301.7 158.567C1308.73 67.113 1267.74 -18.4018 1192.06 -70.2107C1116.38 -122.02 1021.83 -129.3 939.108 -89.6632L938.078 -91.8703Z" fill="#30C67C" fill-opacity="0.06"/>
</svg>
