<svg width="1440" height="678" viewBox="0 0 1440 678" fill="none" xmlns="http://www.w3.org/2000/svg">
<path d="M540.457 303.45C536.876 295.76 535.8 288.253 537.615 281.501C540.901 269.212 553.472 261.623 572.092 260.665L773.794 250.307C801.418 248.888 836.778 262.619 859.787 283.695C872.837 295.651 880.271 308.645 880.692 320.313L885.949 464.877C886.306 474.752 881.773 482.593 872.91 487.684C852.118 499.485 812.352 492.853 780.503 472.213L573.545 338.006C557.509 327.615 545.983 315.318 540.457 303.45ZM872.613 308.005C868.638 300.112 863.172 293.064 856.518 287.25C834.396 266.987 800.464 253.766 774.043 255.133L572.342 265.49C555.722 266.342 545.053 272.483 542.285 282.762C538.239 297.859 551.538 317.953 576.189 333.936L783.147 468.143C817.789 490.567 854.031 492.829 870.538 483.531C877.868 479.364 881.488 473.175 881.138 465.084L875.882 320.52C875.637 316.172 874.526 311.917 872.613 308.005Z" fill="white" fill-opacity="0.2"/>
<path d="M517.725 308.867C514.432 302.386 513.3 295.022 514.494 287.852C517.102 274.634 529.118 266.042 548.29 263.67L760.378 237.418C809.39 231.351 875.996 269.244 881.165 306.127L903.263 464.545C904.156 469.549 903.536 474.705 901.485 479.356C899.434 484.007 896.043 487.941 891.746 490.656C870.966 504.817 828.411 500.325 792.774 480.205L558.627 348.125C538.526 336.718 524.142 322.649 517.725 308.867ZM873.219 296.701C858.936 266.025 802.299 237.124 760.911 242.252L548.85 268.561C531.903 270.668 521.369 277.852 519.192 288.871C515.84 305.836 532.608 327.96 560.919 343.939L795.113 476.119C834.025 498.079 872.488 497.923 888.976 486.741C892.528 484.536 895.331 481.31 897.018 477.485C898.705 473.66 899.198 469.415 898.43 465.305L876.247 306.893C875.754 303.363 874.734 299.927 873.219 296.701Z" fill="white" fill-opacity="0.2"/>
<path d="M494.331 316.133C491.282 310.051 490.026 303.227 490.707 296.458C492.498 282.464 504.165 272.668 523.5 268.73L744.646 224.294C795.68 214.026 870.291 250.593 879.964 290.601L921.544 463.045C924.464 475.074 921.092 485.371 911.836 492.817C890.899 509.575 846.7 507.689 806.653 488.184L543.933 360.226C519.581 348.345 501.781 332.134 494.331 316.133ZM872.57 284.318C856.61 250.041 790.303 220.017 745.531 229.017L524.385 273.452C507.238 276.897 496.947 285.281 495.453 297.052C493.393 313.065 508.229 337.438 545.995 355.884L808.78 483.794C851.856 504.797 892.485 502.143 908.822 489.016C916.464 482.847 919.299 474.219 916.865 464.137L875.246 291.834C874.612 289.244 873.715 286.726 872.57 284.318Z" fill="white" fill-opacity="0.2"/>
<path d="M470.399 326.117C467.576 320.373 466.224 314.017 466.466 307.62C467.334 292.811 478.471 281.615 497.858 276.093L726.481 211.02C779.182 196.015 862.116 230.547 876.883 273.668L940.729 459.946C945.27 473.2 942.662 484.911 933.188 493.809C912.657 513.094 865.987 513.917 822.235 495.788L529.794 374.606C500.516 362.459 478.915 344.408 470.399 326.117ZM870.549 270.939C852.705 232.615 775.666 202.05 727.773 215.675L499.171 280.757C481.919 285.67 472.019 295.309 471.298 307.912C470.212 325.941 488.447 352.272 531.618 370.129L824.086 491.333C871.268 510.88 913.803 505.393 929.889 490.298C937.859 482.801 940.028 472.854 936.157 461.531L872.312 275.253C871.806 273.788 871.225 272.351 870.57 270.947L870.549 270.939Z" fill="white" fill-opacity="0.2"/>
<path d="M446.228 338.792C443.664 333.473 442.258 327.671 442.105 321.768C441.83 306.124 452.369 293.454 471.656 286.174L705.824 197.857C759.755 177.513 851.386 209.047 871.799 255.41L960.68 455.336C967.141 469.852 965.469 483.16 955.771 493.722C935.766 515.531 886.906 519.477 839.592 503.146L516.509 391.465C481.824 379.487 455.918 359.603 446.228 338.792ZM867.049 256.5C847.053 213.553 758.182 183.205 707.555 202.291L473.272 290.661C456.039 297.16 446.656 308.17 446.841 321.666C447.179 345.727 476.46 372.557 518.022 386.922L841.158 498.492C892.779 516.322 936.093 507.914 952.183 490.381C960.425 481.285 961.909 469.87 956.228 457.216L867.339 257.311L867.049 256.5Z" fill="white" fill-opacity="0.2"/>
<path d="M422.055 354.354C419.752 349.519 418.31 344.32 417.793 338.99C416.33 322.374 426.001 308.18 445.028 299.024L682.415 184.762C737.03 158.474 837.296 186.496 864.235 235.585L981.187 448.64C989.804 464.361 989.203 479.782 979.485 492.07C959.839 516.831 910.182 524.11 858.719 509.746L504.315 411C463.841 399.651 433.079 378.031 422.055 354.354ZM978.502 454.202C978.012 453.15 977.503 452.056 976.886 450.994L859.998 237.926C834.58 191.616 736.18 164.25 684.511 189.113L447.124 303.375C429.79 311.726 421.313 323.892 422.609 338.57C425.014 365.489 459.19 393.387 505.683 406.298L860.094 505.058C915.436 520.49 960.18 508.681 975.754 489.023C983.601 479.078 984.568 467.079 978.56 454.175L978.502 454.202Z" fill="white" fill-opacity="0.2"/>
<path d="M398.063 372.541C396.162 368.526 394.817 364.27 394.066 359.892C391.111 342.254 399.756 326.382 418.391 315.182L656.189 172.182C710.868 139.293 819.971 162.621 854.04 214.49L1002.15 439.936C1013.42 457.087 1014.2 474.494 1004.32 488.924C985.551 516.361 934.311 527.391 879.724 515.726L493.812 433.28C447.555 423.397 410.582 399.43 398.063 372.541ZM1000.11 441.236L998.101 442.559L849.987 217.113C817.745 168.039 710.463 145.159 658.669 176.302L420.904 319.374C403.844 329.631 396.232 343.392 398.856 359.151C403.85 389.035 443.325 417.586 494.86 428.605L880.76 510.95C933.475 522.208 982.666 512.009 1000.36 486.141C1009.19 473.267 1008.37 458.176 998.144 442.539L1000.11 441.236Z" fill="white" fill-opacity="0.2"/>
<path d="M374.842 394.549C373.366 391.402 372.196 388.121 371.348 384.75C366.64 366.018 374.021 348.299 392.108 334.866L627.04 160.307C681.033 120.184 798.933 137.717 840.864 192.094L1023.33 428.796C1037.68 447.42 1040.12 466.998 1030.18 483.928C1012.45 514.124 959.976 529.249 902.586 520.711L485.184 458.553C432.424 450.699 389.071 425.11 374.842 394.549ZM1019.47 431.731L837.051 195.008C797.267 143.435 681.159 126.101 629.925 164.168L394.999 338.742C378.349 351.121 371.804 366.61 376.058 383.574C384.379 416.5 429.481 445.357 485.857 453.788L903.289 515.897C958.775 524.148 1009.19 509.996 1025.99 481.445C1034.99 466.109 1032.73 448.917 1019.47 431.731Z" fill="white" fill-opacity="0.2"/>
<path d="M352.663 420.085C351.739 418.103 350.918 416.076 350.203 414.01C343.403 394.062 349.242 374.309 366.573 358.424L594.835 149.364C618.175 127.982 657.463 117.102 702.76 119.389C753.003 121.914 799.594 140.719 824.351 168.447L1044.42 415.012C1062.35 435.108 1066.78 457.051 1056.9 476.847C1040.15 510.404 988.083 529.548 927.321 524.456L478.974 486.958C419.453 481.971 368.864 454.88 352.663 420.085ZM1052.45 435.563C1049.42 429.243 1045.49 423.4 1040.76 418.222L820.769 171.744C796.847 144.943 751.546 126.763 702.552 124.287C659.186 122.118 620.15 132.863 598.138 152.996L369.806 362.018C353.723 376.744 348.524 394.183 354.745 412.474C367.019 448.396 418.247 477.047 479.335 482.163L927.726 519.641C985.602 524.483 1036.94 505.993 1052.57 474.694C1058.75 462.243 1058.62 448.813 1052.45 435.563Z" fill="white" fill-opacity="0.2"/>
<path d="M331.918 449.338L331.328 448.071C321.963 426.828 325.838 404.853 342.286 386.207L559.545 139.739C580.852 115.571 619.455 100.734 665.453 98.9967C720.579 96.9525 773.792 114.059 804.202 143.729L1065.19 398.372C1087.19 419.861 1094.03 444.402 1084.4 467.496C1069.15 504.036 1016.71 527.876 953.895 526.806L475.667 518.624C409.263 517.56 350.419 489.074 331.918 449.338ZM1061.8 401.839L800.778 147.215C771.296 118.446 719.484 101.826 665.595 103.855C620.833 105.577 583.628 119.764 563.144 142.952L345.902 389.343C330.555 406.741 327.051 426.352 335.748 446.048C352.933 484.801 410.39 512.602 475.719 513.728L953.988 521.961C1014.83 523.005 1065.45 500.365 1079.93 465.637C1088.75 444.496 1082.31 421.836 1061.8 401.839Z" fill="white" fill-opacity="0.2"/>
<path d="M313.238 482.763C303.307 461.433 305.588 438.781 319.829 418.482L521.166 131.76C540.255 104.559 577.893 85.5801 624.412 79.6922C683.871 72.161 743.519 86.8674 780.083 118.087L1085.22 378.582C1111.91 401.36 1121.59 428.696 1112.45 455.556C1098.78 495.815 1047.69 524.021 982.266 527.406L475.77 553.66C405.033 557.33 339.147 530.054 315.533 487.354C314.73 485.818 313.949 484.289 313.238 482.763ZM1105.35 411.512C1100.58 401.272 1092.78 391.395 1082.07 382.255L776.939 121.759C741.388 91.3994 683.171 77.131 625.018 84.4925C579.839 90.2117 543.437 108.457 525.112 134.514L323.788 421.265C309.429 441.724 308.055 463.726 319.779 484.992C342.547 526.14 406.586 552.384 475.543 548.806L982.045 522.566C1044.48 519.326 1095.07 491.774 1107.85 454.02C1112.68 440.079 1111.78 424.792 1105.35 411.512Z" fill="white" fill-opacity="0.2"/>
<path d="M297.141 520.452C287.371 499.468 288.215 476.854 299.811 455.578L479.662 125.796C496.293 95.2716 532.802 71.9114 579.791 61.6513C641.755 48.1344 709.21 59.9242 751.652 91.6848L1104.15 355.363C1135.63 378.908 1149.02 410.035 1140.86 440.732C1129.32 484.257 1078.86 517.725 1012.33 525.99L479.965 592.1C406.475 601.222 334.055 576.586 303.822 532.166C301.284 528.447 299.05 524.53 297.141 520.452ZM1102.66 357.319L1101.21 359.255L748.706 95.597C707.344 64.6484 641.357 53.2265 580.767 66.4193C535.151 76.3552 499.817 98.8526 483.861 128.152L304.046 457.899C290.968 481.863 292.274 506.613 307.814 529.449C337.057 572.419 407.589 596.2 479.353 587.285L1011.71 521.197C1076.31 513.162 1125.14 481.105 1136.19 439.493C1143.91 410.383 1131.5 381.884 1101.24 359.241L1102.66 357.319Z" fill="white" fill-opacity="0.2"/>
<path d="M284.134 562.451C274.592 541.957 274.056 519.653 282.91 497.796L435.181 122.29C449.043 88.0773 484.25 59.9259 531.759 45.0604C596.196 24.9244 669.557 32.6499 718.655 64.7809L1121.51 328.479C1158.77 352.873 1176.18 387.141 1169.37 422.695C1160.34 469.608 1111.08 508.683 1043.96 522.198L488.802 634.041C413.501 649.211 334.754 628.186 297.271 583.024C292.027 576.759 287.611 569.845 284.134 562.451ZM1118.89 332.606L715.947 68.8633C668.036 37.4762 596.204 29.9852 533.15 49.7049C487.031 64.1685 452.927 91.2632 439.608 124.119L287.401 499.613C276.188 527.282 280.994 555.782 300.969 579.865C337.392 623.804 414.233 644.121 487.84 629.302L1042.96 517.479C1108.19 504.331 1155.94 466.763 1164.63 421.766C1171.08 388.306 1154.39 355.786 1118.86 332.534L1118.89 332.606Z" fill="white" fill-opacity="0.2"/>
<path d="M274.845 608.851C265.539 589.016 263.763 566.474 269.848 545.426L387.613 121.742C398.286 83.3541 432.019 49.9659 480.157 30.1285C546.091 2.93386 624.758 5.9459 680.547 37.7305L1136.77 297.693C1180.34 322.569 1202.59 360.227 1197.62 401.092C1191.44 452.371 1145.16 496.333 1076.86 515.8L502.93 679.508C425.782 701.515 343.025 685.616 296.999 639.946C287.838 630.968 280.338 620.441 274.845 608.851ZM1185.39 353.777C1176 333.614 1158.65 315.724 1134.38 301.891L678.135 41.8851C623.6 10.7965 546.649 7.89625 481.953 34.5498C435.187 53.8355 402.532 86.0384 392.226 122.994L274.575 546.695C265.584 579.061 274.708 610.965 300.444 636.431C345.238 680.923 426.09 696.342 501.611 674.795L1075.55 511.101C1141.94 492.156 1186.88 449.763 1192.81 400.425C1194.78 384.487 1192.21 368.317 1185.39 353.777Z" fill="white" fill-opacity="0.2"/>
<path d="M269.93 659.68C261.041 640.618 258.146 619.308 261.628 598.565L337.398 124.548C344.315 81.4417 376.313 42.2196 425.258 16.8893C491.607 -17.5079 574.924 -19.9029 637.275 10.7713L1149.4 262.741C1199.89 287.583 1227.55 328.626 1225.29 375.344C1222.65 430.425 1178.85 480.576 1110.98 506.203L523.125 728.302C446.48 757.259 358.632 747.061 304.551 702.985C289.878 691.36 278.04 676.552 269.93 659.68ZM1148.25 264.941L1147.21 267.179L635.143 15.1113C574.116 -14.9004 492.598 -12.5192 427.484 21.1804C379.909 45.8026 348.886 83.7299 342.174 125.321L266.432 599.36C260.4 637.217 275.006 672.65 307.663 699.205C360.458 742.25 446.382 752.117 521.476 723.742L1109.34 501.658C1175.37 476.712 1218.01 428.277 1220.53 375.091C1222.67 330.387 1196 291.007 1147.31 267.061L1148.25 264.941Z" fill="white" fill-opacity="0.2"/>
<path d="M270.056 714.981C261.762 697.035 258.001 677.327 259.105 657.588L284.612 131.321C286.972 82.9068 316.944 37.0396 366.85 5.56677C432.86 -36.0682 519.839 -44.374 588.428 -15.6225L1158.71 223.428C1216.52 247.664 1250.48 292.031 1251.87 345.148C1253.41 404.241 1212.82 460.977 1145.89 493.241L550.012 780.483C473.919 817.175 384.071 813.936 321.084 772.185C297.659 756.577 280.335 737.06 270.056 714.981ZM1157.79 225.662L1156.83 227.86L586.562 -11.1613C519.4 -39.3328 434.152 -31.1494 369.422 9.66137C320.876 40.2908 291.719 84.7095 289.481 131.542L263.859 657.863C261.699 701.926 282.995 741.079 323.791 768.138C385.391 808.941 473.38 812.063 547.959 776.112L1143.86 488.862C1208.98 457.452 1248.54 402.427 1246.99 345.282C1245.67 294.15 1212.79 251.362 1156.82 227.902L1157.79 225.662Z" fill="white" fill-opacity="0.2"/>
<path d="M275.939 773.91C268.429 757.785 264.059 740.378 263.062 722.618L229.59 142.622C226.455 88.1263 253.892 34.8179 304.873 -3.60451C370.563 -53.1165 458.272 -67.4574 533.769 -41.0293L1164.08 179.567C1228.55 202.127 1270.67 250.858 1276.74 309.856C1283.37 374.187 1247.72 436.435 1181.4 476.376L584.54 835.783C511.369 879.841 418.549 884.295 348.078 847.097C314.737 829.5 289.954 804.01 275.939 773.91ZM1162.48 184.135L532.164 -36.4613C458.179 -62.3497 372.198 -48.2875 307.793 0.258197C258.126 37.7009 231.379 89.4791 234.417 142.337L267.889 722.333C270.803 772.778 300.872 816.696 350.286 842.844C419.286 879.255 510.229 874.869 581.976 831.667L1178.89 472.234C1243.6 433.342 1278.36 372.767 1271.93 310.362C1266.04 253.259 1225.09 205.996 1162.48 184.135Z" fill="white" fill-opacity="0.2"/>
<path d="M288.047 837.177C281.642 823.355 277.183 808.711 274.797 793.665L172.727 159.038C162.873 97.7525 187.119 36.0108 239.289 -10.3956C302.808 -66.9051 392.405 -87.8034 473.127 -64.9467L1164.74 130.984C1236.83 151.411 1287.11 202.95 1299.22 268.862C1311.91 337.817 1281.16 407.494 1216.97 455.257L627.395 893.987C557.114 946.285 464.888 958.979 386.632 927.229C340.838 908.666 306.548 876.912 288.047 837.177ZM1164.07 133.311L1163.41 135.652L471.759 -60.2442C392.61 -82.659 304.751 -62.167 242.457 -6.75352C191.663 38.4689 167.916 98.6465 177.503 158.269L279.531 792.915C288.895 851.117 328.65 898.411 388.378 922.736C465.101 953.903 555.472 941.442 624.461 890.131L1214.04 451.401C1276.69 404.704 1306.77 336.849 1294.44 269.759C1282.64 205.697 1233.66 155.566 1163.38 135.665L1164.07 133.311Z" fill="white" fill-opacity="0.2"/>
<path d="M307.19 903.882C302.251 893.251 298.278 882.198 295.318 870.856L114.503 181.224C96.4724 112.389 116.613 41.1157 169.796 -14.3317C230.368 -77.5831 320.979 -105.227 406.191 -86.6512L1159.84 77.6616C1239.44 95.0285 1298.7 148.801 1318.35 221.562C1338.3 295.46 1313.59 373.188 1252.12 429.549L679.275 954.825C614.029 1014.66 521.392 1036.52 437.508 1011.84C377.262 994.119 331.277 955.614 307.19 903.882ZM1302.55 192.293C1276.76 136.902 1224.98 96.7502 1158.73 82.2579L405.104 -82.0617C321.576 -100.142 232.734 -72.9541 173.343 -11.0059C121.353 43.2025 101.628 112.81 119.243 179.963L300.037 869.587C317.504 936.196 368.125 986.351 438.925 1007.17C521.201 1031.37 612.057 1009.94 676.063 951.238L1248.81 425.903C1308.88 370.811 1333.11 294.861 1313.69 222.732C1310.85 212.285 1307.13 202.101 1302.55 192.293Z" fill="white" fill-opacity="0.2"/>
<path d="M333.392 972.24C330.639 966.325 328.128 960.257 325.862 954.034L55.4861 209.84C27.9028 133.888 43.2053 49.8135 96.4377 -15.05C124.469 -49.536 161.069 -76.0514 202.573 -91.9404C244.077 -107.829 289.027 -112.534 332.921 -105.584L1148.43 19.4094C1235.21 32.6624 1304.09 87.883 1332.85 167.074C1361.6 246.265 1344.17 332.803 1286.21 398.657L741.158 1017.8C711.95 1051.32 674.446 1076.57 632.403 1091.03C590.361 1105.49 545.257 1108.64 501.612 1100.18C425.917 1085.9 364.334 1038.66 333.392 972.24ZM1320.89 150.542C1289.37 82.8526 1225.92 36.0633 1147.75 24.0886L332.229 -100.898C289.164 -107.73 245.059 -103.126 204.333 -87.5474C163.607 -71.9683 127.69 -45.9611 100.18 -12.1309C48.0439 51.3984 33.0395 133.704 60.0771 208.071L330.453 952.264C357.464 1026.57 421.786 1080.07 502.543 1095.33C545.366 1103.63 589.619 1100.53 630.867 1086.34C672.115 1072.15 708.909 1047.37 737.562 1014.48L1282.58 395.372C1339.36 330.87 1356.45 246.107 1328.31 168.625C1326.1 162.436 1323.62 156.409 1320.89 150.542Z" fill="white" fill-opacity="0.2"/>
<path d="M367.739 1043.15L-3.60946 245.591C-43.0591 160.864 -34.5804 64.5802 19.0768 -11.9419C72.7339 -88.464 160.335 -129.269 253.514 -121.097L1129.82 -43.8979C1222.93 -35.6925 1302.07 19.7933 1341.52 104.521C1380.97 189.248 1372.49 285.532 1318.84 362.068L813.87 1082.4C760.147 1158.97 672.597 1199.73 579.49 1191.53C486.383 1183.32 407.189 1127.88 367.739 1043.15ZM1129.61 -41.4872L1129.4 -39.0764L253.017 -116.257C161.653 -124.293 75.6873 -84.2664 23.0295 -9.1734C-29.6282 65.9195 -37.9432 160.409 0.768814 243.553L372.117 1041.11C410.829 1124.25 488.488 1178.7 579.851 1186.73C671.214 1194.77 757.202 1154.75 809.838 1079.65L1314.85 359.299C1367.5 284.191 1375.81 189.723 1337.1 106.579C1298.39 23.4362 1220.74 -31.0127 1129.37 -39.063L1129.61 -41.4872Z" fill="white" fill-opacity="0.2"/>
</svg>
