<svg width="1440" height="714" viewBox="0 0 1440 714" fill="none" xmlns="http://www.w3.org/2000/svg">
<path d="M606.952 433.155C599.952 428.363 595.2 422.452 593.322 415.718C589.885 403.47 596.835 390.534 612.367 380.22L780.634 268.52C803.679 253.222 841.1 247.015 871.638 253.424C888.959 257.061 901.977 264.452 908.286 274.277L986.48 395.982C991.819 404.296 991.915 413.353 986.883 422.249C975.008 442.999 937.413 457.558 899.492 456.029L653.031 446.025C633.939 445.257 617.754 440.55 606.952 433.155ZM895.062 267.804C887.62 263.039 879.325 259.76 870.637 258.148C841.277 251.988 805.344 257.904 783.308 272.545L615.041 384.245C601.175 393.447 595.125 404.169 597.982 414.423C602.194 429.474 623.877 439.986 653.232 441.176L899.693 451.18C940.926 452.82 973.262 436.297 982.726 419.885C986.91 412.564 986.87 405.394 982.446 398.611L904.252 276.906C901.826 273.29 898.701 270.195 895.062 267.804Z" fill="white" fill-opacity="0.02"/>
<path d="M590.152 449.399C584.017 445.501 579.29 439.742 576.663 432.964C572.171 420.262 578.132 406.746 593.418 394.935L762.522 264.266C801.6 234.068 878.219 232.729 901.462 261.829L1001.21 386.871C1004.52 390.722 1006.62 395.474 1007.22 400.521C1007.83 405.568 1006.92 410.681 1004.6 415.207C993.942 437.98 955.038 455.802 914.122 456.651L645.352 462.333C622.243 462.762 602.698 457.987 590.152 449.399ZM889.822 257.768C861.9 238.653 798.441 242.649 765.444 268.153L596.392 398.858C582.886 409.307 577.482 420.856 581.225 431.447C586.986 447.751 612.688 458.242 645.19 457.563L914.052 451.944C958.723 451.009 991.737 431.273 1000.23 413.249C1002.16 409.542 1002.93 405.338 1002.43 401.187C1001.93 397.037 1000.19 393.133 997.436 389.988L897.621 264.994C895.398 262.208 892.769 259.772 889.822 257.768Z" fill="white" fill-opacity="0.02"/>
<path d="M573.726 467.571C568.004 463.891 563.445 458.661 560.582 452.489C554.991 439.535 560.037 425.162 574.667 411.92L742.297 260.989C780.974 226.147 863.805 219.587 892.516 249.081L1016.17 376.263C1024.81 385.125 1027.16 395.703 1022.99 406.826C1013.52 431.915 974.525 452.816 930.129 456.442L638.875 480.231C611.867 482.419 588.29 477.542 573.726 467.571ZM882.952 247.443C851.753 226.084 779.401 234.041 745.465 264.602L577.835 415.532C564.837 427.235 560.255 439.693 564.968 450.582C571.356 465.409 596.541 478.82 638.436 475.444L929.722 451.581C977.488 447.701 1011.09 424.711 1018.46 405.092C1021.89 395.889 1019.93 387.021 1012.7 379.587L889.085 252.546C887.22 250.64 885.165 248.931 882.952 247.443Z" fill="white" fill-opacity="0.02"/>
<path d="M558.225 488.36C552.868 484.856 548.466 480.076 545.414 474.449C538.614 461.265 542.491 445.956 556.357 431.325L719.904 258.827C757.602 219.06 846.556 206.508 881.237 236.083L1031.1 363.822C1041.76 372.911 1045.49 384.317 1041.87 396.8C1034.03 423.857 994.296 448.348 947.412 455.046L634.039 499.811C602.658 504.281 574.873 499.757 558.225 488.36ZM874.396 236.964C839.513 213.084 757.653 226.045 723.388 262.175L559.864 434.669C547.524 447.688 543.918 461.026 549.72 472.237C557.974 488.304 587.082 501.665 633.326 495.03L946.735 450.27C997.291 443.044 1031.09 416.647 1037.24 395.461C1040.28 384.949 1037.07 375.286 1027.97 367.516L878.112 239.777C876.931 238.775 875.698 237.834 874.418 236.96L874.396 236.964Z" fill="white" fill-opacity="0.02"/>
<path d="M543.886 511.581C538.969 508.312 534.802 504.036 531.663 499.035C523.454 485.715 526.065 469.443 538.949 453.35L695.422 258.027C731.457 213.04 826.367 193.475 867.558 222.964L1045.92 349.687C1058.87 358.884 1064.22 371.187 1061.25 385.216C1055.16 414.175 1015.13 442.47 966.095 452.53L631.199 521.085C595.252 528.456 562.829 524.549 543.886 511.581ZM864.026 226.322C824.935 199.561 733.004 218.739 699.171 260.96L542.626 456.387C531.112 470.761 528.649 485.016 535.686 496.533C548.238 517.063 587.105 525.227 630.185 516.406L965.07 447.728C1018.57 436.762 1051.55 407.455 1056.46 384.17C1058.92 372.144 1054.38 361.565 1043.04 353.573L864.689 226.872L864.026 226.322Z" fill="white" fill-opacity="0.02"/>
<path d="M531.02 537.293C526.575 534.307 522.684 530.568 519.523 526.245C509.797 512.695 510.885 495.554 522.589 477.979L668.609 258.693C702.204 208.242 802.753 181.256 850.949 209.764L1060.15 333.478C1075.57 342.613 1082.92 356.188 1080.82 371.712C1076.53 403.03 1037.52 434.598 985.917 448.465L630.664 544.111C590.057 554.972 552.571 552.047 531.02 537.293ZM1060.67 339.632C1059.72 338.977 1058.72 338.295 1057.65 337.695L848.496 213.938C803.026 187.045 704.416 213.645 672.63 261.369L526.61 480.655C515.952 496.674 514.858 511.462 523.453 523.43C539.24 545.366 582.863 551.953 629.445 539.368L984.711 443.73C1040.19 428.805 1072.67 395.843 1076.05 370.993C1077.74 358.437 1072.46 347.62 1060.71 339.579L1060.67 339.632Z" fill="white" fill-opacity="0.02"/>
<path d="M519.643 565.163C515.961 562.677 512.635 559.701 509.758 556.317C498.227 542.647 497.576 524.585 507.903 505.452L639.631 261.229C669.917 205.067 775.678 169.539 831.424 196.805L1073.75 315.299C1092.18 324.317 1101.72 338.897 1100.58 356.346C1098.41 389.518 1059.95 425.12 1007.04 442.901L632.979 568.629C588.143 583.698 544.117 581.918 519.643 565.163ZM1072.66 317.458L1071.6 319.622L829.274 201.128C776.523 175.335 672.558 210.321 643.864 263.511L512.201 507.778C502.75 525.297 503.213 541.016 513.501 553.238C533.028 576.406 581.542 580.854 631.498 564.072L1005.49 438.264C1056.59 421.087 1093.71 387.243 1095.75 355.969C1096.79 340.392 1088.39 327.827 1071.63 319.583L1072.66 317.458Z" fill="white" fill-opacity="0.02"/>
<path d="M510.879 595.933C508.006 593.978 505.327 591.75 502.88 589.282C489.282 575.565 486.604 556.558 495.32 535.782L608.5 265.867C634.509 203.83 744.886 158.832 808.675 184.25L1086.29 294.925C1108.13 303.637 1120.21 319.239 1120.28 338.871C1120.41 373.887 1082.98 413.64 1029.25 435.54L638.435 594.771C589.037 614.9 538.697 614.977 510.879 595.933ZM1084.47 299.415L806.879 188.7C746.366 164.601 637.633 208.857 612.95 267.719L499.783 537.644C491.765 556.78 494.028 573.442 506.332 585.87C530.271 609.96 583.783 611.804 636.586 590.329L1027.4 431.04C1079.34 409.863 1115.51 371.993 1115.41 338.869C1115.34 321.087 1104.64 307.445 1084.47 299.415Z" fill="white" fill-opacity="0.02"/>
<path d="M504.811 629.209C503.007 627.975 501.267 626.649 499.599 625.236C483.582 611.538 478.54 591.567 485.356 569.068L575.215 272.866C584.401 242.575 612.66 213.192 652.799 192.076C697.315 168.644 746.986 161.081 782.417 172.322L1097.42 272.318C1123.08 280.473 1138.08 297.094 1139.66 319.163C1142.36 356.568 1107.31 399.576 1052.44 426.159L647.569 622.378C593.815 648.42 536.482 650.891 504.811 629.209ZM1114.8 285.91C1108.97 282.013 1102.61 278.992 1095.91 276.944L781.015 176.984C746.774 166.115 698.533 173.559 655.116 196.397C616.698 216.63 588.587 245.768 579.908 274.308L489.97 570.512C483.636 591.379 488.05 609.032 502.723 621.6C531.591 646.252 590.268 644.798 645.436 618.068L1050.33 421.811C1102.6 396.482 1137.35 354.409 1134.84 319.518C1133.82 305.652 1126.86 294.166 1114.8 285.91Z" fill="white" fill-opacity="0.02"/>
<path d="M501.868 664.949L500.715 664.159C481.832 650.654 473.968 629.772 478.617 605.347L539.945 282.567C545.962 250.914 571.615 218.476 610.307 193.54C656.696 163.689 711.198 151.29 752.482 161.32L1106.8 247.417C1136.69 254.69 1155.08 272.322 1158.56 297.099C1164.06 336.309 1131.09 383.547 1076.5 414.637L660.86 651.307C603.184 684.232 538.036 689.709 501.868 664.949ZM1105.66 252.123L751.314 166.065C711.286 156.336 658.237 168.44 612.904 197.648C575.269 221.941 550.487 253.107 544.679 283.498L483.326 606.202C478.987 628.992 485.967 647.651 503.487 660.166C538.023 684.752 601.626 679.392 658.409 647.068L1074.11 410.421C1126.99 380.315 1159 335.04 1153.76 297.78C1150.58 275.096 1133.5 258.877 1105.66 252.123Z" fill="white" fill-opacity="0.02"/>
<path d="M502.829 703.227C483.415 689.936 473.834 669.283 475.742 644.56L502.858 295.259C505.42 262.128 528.132 226.617 565.157 197.845C612.477 161.064 671.293 143.321 718.663 151.549L1113.95 220.18C1148.53 226.176 1170.79 244.763 1176.61 272.53C1185.36 314.138 1155.78 364.444 1101.21 400.695L678.803 681.399C619.811 720.605 549.222 730.713 507.144 706.007C505.67 705.095 504.219 704.178 502.829 703.227ZM1148.06 238.253C1138.74 231.872 1126.99 227.352 1113.12 224.942L717.829 156.311C671.77 148.306 614.408 165.697 568.124 201.666C532.167 229.611 510.145 263.86 507.656 295.618L480.567 644.937C478.638 669.858 488.668 689.489 509.593 701.812C550.153 725.612 618.626 715.558 676.134 677.338L1098.56 396.643C1150.63 362.037 1180.12 312.549 1171.87 273.555C1168.92 259.1 1160.36 246.405 1148.06 238.253Z" fill="white" fill-opacity="0.02"/>
<path d="M508.186 743.859C489.086 730.783 478.288 710.896 477.423 686.68L464.109 311.281C462.862 276.542 482.37 237.837 517.571 205.063C563.997 161.856 628.044 137.624 680.746 143.322L1118.41 190.558C1157.5 194.771 1184.88 214.73 1193.51 245.298C1205.76 288.629 1179.39 343.143 1126.36 384.158L702.002 712.336C643.42 757.637 568.554 773.345 519.905 750.534C515.826 748.627 511.907 746.395 508.186 743.859ZM1118.12 193L1117.87 195.402L680.206 148.189C628.846 142.64 566.25 166.44 520.841 208.668C486.656 240.464 467.72 277.827 468.922 311.168L482.25 686.52C483.21 713.803 496.947 734.432 521.955 746.161C569.013 768.231 641.819 752.748 699.022 708.506L1123.38 380.35C1174.88 340.514 1200.55 288.049 1188.85 246.616C1180.66 217.635 1155.46 199.439 1117.88 195.376L1118.12 193Z" fill="white" fill-opacity="0.02"/>
<path d="M518.398 786.622C499.744 773.852 487.916 754.935 484.396 731.616L424.049 330.93C418.541 294.429 434.487 252.266 467.788 215.264C512.969 165.102 580.026 134.363 638.644 136.988L1119.64 158.578C1164.13 160.579 1196.58 181.191 1208.84 215.25C1224.97 260.219 1202.5 318.941 1151.64 364.773L730.978 743.918C673.919 795.344 595.45 817.385 540.185 797.629C532.48 794.911 525.157 791.212 518.398 786.622ZM1119.5 163.462L638.395 141.881C581.177 139.291 515.554 169.452 471.352 218.552C439.042 254.499 423.506 295.191 428.79 330.248L489.186 730.891C493.639 760.412 512.297 782.484 541.757 793.026C595.487 812.27 671.955 790.592 727.735 740.331L1148.37 361.225C1197.8 316.667 1219.75 260.009 1204.29 216.869C1192.78 184.793 1161.85 165.315 1119.43 163.418L1119.5 163.462Z" fill="white" fill-opacity="0.02"/>
<path d="M534.051 831.279C515.936 818.956 502.92 800.465 497.43 779.255L382.842 354.701C372.462 316.232 384.471 270.314 415.78 228.715C458.652 171.715 527.873 134.217 592.071 133.135L1117.09 124.31C1167.25 123.513 1205.58 144.576 1222.14 182.266C1242.96 229.535 1225.54 290.946 1176.69 342.505L766.304 775.84C711.141 834.089 631.834 862.584 568.959 846.744C556.502 843.688 544.684 838.453 534.051 831.279ZM1187.5 147.791C1169.15 135.227 1145.1 128.678 1117.17 129.141L592.114 137.938C529.348 138.981 461.661 175.7 419.579 231.603C389.17 272.029 377.484 316.378 387.45 353.427L502.144 777.938C510.901 810.368 535.011 833.168 570.132 841.964C631.347 857.418 708.769 829.481 762.768 772.456L1173.16 339.13C1220.64 288.995 1237.7 229.616 1217.66 184.145C1211.23 169.428 1200.78 156.826 1187.5 147.791Z" fill="white" fill-opacity="0.02"/>
<path d="M555.726 877.518C538.364 865.648 525.013 848.787 517.438 829.166L341.068 382.705C325.052 342.091 332.595 292.038 361.799 245.301C401.357 181.893 471.823 137.374 541.102 131.991L1110.14 87.8039C1166.24 83.4489 1210.96 104.666 1232.83 146.012C1258.63 194.749 1246.49 260.221 1201.16 316.859L808.547 807.53C757.358 871.504 676.576 907.498 607.583 897.135C589.034 894.61 571.302 887.902 555.726 877.518ZM1110.27 90.282L1110.52 92.7394L541.479 136.812C473.677 142.089 404.752 185.681 365.901 247.859C337.515 293.288 330.15 341.731 345.571 380.936L521.977 827.402C536.079 863.048 566.703 886.092 608.334 892.297C675.695 902.429 754.653 867.13 804.804 804.448L1197.43 313.786C1241.53 258.67 1253.53 195.268 1228.6 148.221C1207.66 108.666 1164.64 88.3777 1110.55 92.5856L1110.27 90.282Z" fill="white" fill-opacity="0.02"/>
<path d="M584.016 925.036C567.735 913.822 554.456 898.781 545.346 881.235L299.102 415.433C276.46 372.575 278.874 317.836 305.774 265.324C341.352 195.862 411.957 144.39 485.623 134.175L1098.12 49.2336C1160.21 40.6252 1212.04 61.4933 1240.3 106.488C1271.75 156.545 1265.73 226.05 1224.59 287.913L858.273 838.726C811.5 909.073 732.544 952.074 657.072 948.25C628.964 946.758 604.112 938.794 584.016 925.036ZM1098.46 51.6261L1098.76 54.0049L486.291 138.964C414.148 148.951 344.97 199.436 310.074 267.536C283.914 318.629 281.463 371.706 303.404 413.142L549.577 879.049C570.173 918.062 608.449 940.896 657.339 943.388C731.133 947.103 808.431 904.95 854.279 836.011L1220.61 285.185C1260.64 224.969 1266.63 157.469 1236.17 109.09C1208.98 65.7695 1158.89 45.7072 1098.77 54.0491L1098.46 51.6261Z" fill="white" fill-opacity="0.02"/>
<path d="M619.108 972.741C604.43 962.694 591.799 949.944 581.891 935.171L257.52 453.196C227.051 407.906 223.491 348.057 247.775 289.018C279.063 212.941 347.22 155.905 425.647 140.17L1080.39 8.75731C1147.35 -4.68244 1208.43 15.7796 1243.72 63.4473C1282.21 115.42 1283.26 187.144 1246.55 255.31L916.162 868.711C875.658 943.907 798.064 995.041 718.474 998.949C680.82 1000.8 646.506 991.497 619.108 972.741ZM1081.34 13.506L426.593 144.918C349.743 160.347 282.931 216.263 252.256 290.853C228.603 348.38 231.976 406.561 261.528 450.492L585.899 932.466C614.113 974.385 662.366 996.848 718.207 994.164C796.131 990.329 872.143 940.211 911.858 866.476L1242.28 253.024C1278.14 186.583 1277.18 116.75 1239.84 66.3342C1205.67 20.205 1146.35 0.407947 1081.34 13.506Z" fill="white" fill-opacity="0.02"/>
<path d="M661.769 1021.01C649.214 1012.38 637.915 1002.05 628.194 990.32L216.961 496.3C177.25 448.591 166.648 383.112 187.886 316.597C213.74 235.607 280.18 171.966 361.282 150.495L1056.19 -33.3754C1128.63 -52.5379 1198.16 -33.8183 1242.17 16.7196C1288.23 69.5829 1297.28 145.204 1266.39 219.012L982.697 896.951C948.878 977.765 875.996 1035.69 792.483 1048.25C743.621 1055.61 697.937 1045.77 661.769 1021.01ZM1056.8 -31.0325L1057.43 -28.6805L362.501 155.239C282.978 176.288 217.827 238.693 192.468 318.117C171.81 382.911 182.045 446.791 220.678 493.204L631.885 987.264C669.602 1032.57 727.909 1053 791.696 1043.49C873.592 1031.21 944.997 974.434 978.207 895.129L1261.9 217.19C1292.01 145.082 1283.31 71.3731 1238.51 19.931C1195.71 -29.1774 1128.03 -47.3501 1057.41 -28.6543L1056.8 -31.0325Z" fill="white" fill-opacity="0.02"/>
<path d="M712.232 1068.64C702.565 1062.01 693.514 1054.53 685.187 1046.28L178.17 545.06C127.577 495.022 108.585 423.434 126.088 348.624C145.971 263.334 209.845 193.374 292.628 165.931L1024.8 -76.7574C1102.14 -102.381 1180.54 -86.3153 1234.52 -33.7246C1289.35 19.6916 1307.7 99.1596 1283.53 178.977L1058.34 922.857C1032.69 1007.59 964.126 1073.61 879.376 1095.12C818.508 1110.57 759.32 1100.88 712.232 1068.64ZM1206.01 -50.8555C1155.59 -85.3709 1090.58 -93.5299 1026.2 -72.2412L294.031 170.434C212.95 197.444 150.365 266.112 130.834 349.679C113.726 422.814 132.228 492.757 181.606 541.559L688.601 1042.78C737.574 1091.19 806.688 1108.55 878.213 1090.38C961.337 1069.27 1028.59 1004.53 1053.75 921.408L1278.83 177.527C1302.43 99.5178 1284.58 21.8186 1231.11 -30.3428C1223.35 -37.8869 1214.95 -44.7498 1206.01 -50.8555Z" fill="white" fill-opacity="0.02"/>
<path d="M769.613 1114.11C764.23 1110.42 758.977 1106.48 753.856 1102.28L141.975 599.757C79.5362 548.464 49.8575 468.327 62.604 385.391C69.1476 341.434 87.1263 299.968 114.739 265.146C142.352 230.325 178.63 203.37 219.939 186.981L985.307 -121.066C1066.73 -153.888 1154.13 -141.475 1219.23 -87.9938C1284.33 -34.5128 1313.43 48.8286 1297.12 135.026L1143.68 945.508C1135.63 989.232 1116.23 1030.07 1087.42 1063.94C1058.62 1097.8 1021.42 1123.5 979.548 1138.46C907.143 1164.75 830.081 1155.48 769.613 1114.11ZM1200.52 -96.125C1138.9 -138.304 1060.46 -146.223 987.108 -116.695L221.731 191.365C181.196 207.433 145.594 233.87 118.493 268.029C91.3911 302.188 73.7414 342.868 67.3114 385.995C54.8284 467.225 83.8622 545.688 145.024 595.895L756.904 1098.42C818.013 1148.59 900.622 1161.84 977.878 1133.81C1018.95 1119.13 1055.45 1093.91 1083.71 1060.69C1111.97 1027.46 1131 987.385 1138.89 944.484L1292.32 134.051C1308.31 49.616 1279.81 -32.0215 1216.12 -84.3483C1211.06 -88.5439 1205.86 -92.4694 1200.52 -96.125Z" fill="white" fill-opacity="0.02"/>
<path d="M835.301 1157.61L109.348 660.633C32.2269 607.837 -9.54481 520.673 -2.37427 427.489C4.79627 334.304 59.3742 254.553 143.71 214.099L937.03 -166.051C1021.32 -206.439 1117.69 -199.031 1194.81 -146.235C1271.93 -93.4391 1313.71 -6.27549 1306.55 86.9178L1239.16 964.032C1231.95 1057.29 1177.4 1136.98 1093.11 1177.37C1008.82 1217.76 912.422 1210.41 835.301 1157.61ZM938.078 -163.87L939.127 -161.689L145.749 218.518C63.0445 258.163 9.47654 336.411 2.43753 427.856C-4.60142 519.302 36.3971 604.839 112.076 656.648L838.03 1153.63C913.708 1205.44 1008.27 1212.7 1090.98 1173.06C1173.68 1133.41 1227.27 1055.16 1234.29 963.721L1301.71 86.5673C1308.73 -4.88698 1267.74 -90.4018 1192.06 -142.211C1116.38 -194.02 1021.83 -201.3 939.109 -161.663L938.078 -163.87Z" fill="white" fill-opacity="0.02"/>
</svg>
