<svg width="19" height="17" viewBox="0 0 19 17" fill="none" xmlns="http://www.w3.org/2000/svg">
<path d="M13.5 9.79815C13.5 10.3504 13.0523 10.7982 12.5 10.7982H11.5C10.9477 10.7982 10.5 10.3504 10.5 9.79815C10.5 9.24586 10.9477 8.79815 11.5 8.79815H12.5C13.0523 8.79815 13.5 9.24586 13.5 9.79815Z" fill="#30C67C"/>
<path d="M12.5 7.79815C13.0523 7.79815 13.5 7.35043 13.5 6.79815C13.5 6.24586 13.0523 5.79815 12.5 5.79815H11.5C10.9477 5.79815 10.5 6.24586 10.5 6.79815C10.5 7.35043 10.9477 7.79815 11.5 7.79815H12.5Z" fill="#30C67C"/>
<path d="M8.5 9.79815C8.5 10.3504 8.05228 10.7982 7.5 10.7982H6.5C5.94772 10.7982 5.5 10.3504 5.5 9.79815C5.5 9.24586 5.94772 8.79815 6.5 8.79815H7.5C8.05228 8.79815 8.5 9.24586 8.5 9.79815Z" fill="#30C67C"/>
<path d="M7.5 7.79815C8.05228 7.79815 8.5 7.35043 8.5 6.79815C8.5 6.24586 8.05228 5.79815 7.5 5.79815H6.5C5.94772 5.79815 5.5 6.24586 5.5 6.79815C5.5 7.35043 5.94772 7.79815 6.5 7.79815H7.5Z" fill="#30C67C"/>
<path fill-rule="evenodd" clip-rule="evenodd" d="M10.6094 0.3359C9.9376 -0.111966 9.0624 -0.111967 8.3906 0.335899L3.3906 3.66923C2.8342 4.04016 2.5 4.66463 2.5 5.33333V14.7982H1.5C0.947715 14.7982 0.5 15.2459 0.5 15.7982C0.5 16.3504 0.947715 16.7981 1.5 16.7981H17.5C18.0523 16.7981 18.5 16.3504 18.5 15.7982C18.5 15.2459 18.0523 14.7982 17.5 14.7982H16.5V5.33333C16.5 4.66463 16.1658 4.04016 15.6094 3.66923L10.6094 0.3359ZM10.5 14.7982V12.7982C10.5 12.2459 10.0523 11.7982 9.5 11.7982C8.94771 11.7982 8.5 12.2459 8.5 12.7982V14.7982H4.5V5.33333L9.5 2L14.5 5.33333V14.7982H10.5Z" fill="#30C67C"/>
</svg>
