<svg width="18" height="17" viewBox="0 0 18 17" fill="none" xmlns="http://www.w3.org/2000/svg">
<path d="M13 9.79815C13 10.3504 12.5523 10.7982 12 10.7982H11C10.4477 10.7982 10 10.3504 10 9.79815C10 9.24586 10.4477 8.79815 11 8.79815H12C12.5523 8.79815 13 9.24586 13 9.79815Z" fill="#1F3C15"/>
<path d="M12 7.79815C12.5523 7.79815 13 7.35043 13 6.79815C13 6.24586 12.5523 5.79815 12 5.79815H11C10.4477 5.79815 10 6.24586 10 6.79815C10 7.35043 10.4477 7.79815 11 7.79815H12Z" fill="#1F3C15"/>
<path d="M8 9.79815C8 10.3504 7.55228 10.7982 7 10.7982H6C5.44772 10.7982 5 10.3504 5 9.79815C5 9.24586 5.44772 8.79815 6 8.79815H7C7.55228 8.79815 8 9.24586 8 9.79815Z" fill="#1F3C15"/>
<path d="M7 7.79815C7.55228 7.79815 8 7.35043 8 6.79815C8 6.24586 7.55228 5.79815 7 5.79815H6C5.44772 5.79815 5 6.24586 5 6.79815C5 7.35043 5.44772 7.79815 6 7.79815H7Z" fill="#1F3C15"/>
<path fill-rule="evenodd" clip-rule="evenodd" d="M10.1094 0.3359C9.4376 -0.111966 8.5624 -0.111967 7.8906 0.335899L2.8906 3.66923C2.3342 4.04016 2 4.66463 2 5.33333V14.7982H1C0.447715 14.7982 0 15.2459 0 15.7982C0 16.3504 0.447715 16.7981 1 16.7981H17C17.5523 16.7981 18 16.3504 18 15.7982C18 15.2459 17.5523 14.7982 17 14.7982H16V5.33333C16 4.66463 15.6658 4.04016 15.1094 3.66923L10.1094 0.3359ZM10 14.7982V12.7982C10 12.2459 9.55229 11.7982 9 11.7982C8.44771 11.7982 8 12.2459 8 12.7982V14.7982H4V5.33333L9 2L14 5.33333V14.7982H10Z" fill="#1F3C15"/>
</svg>
