<svg width="1877" height="1846" viewBox="0 0 1877 1846" fill="none" xmlns="http://www.w3.org/2000/svg">
<path d="M711.952 974.157C704.952 969.365 700.199 963.454 698.321 956.72C694.885 944.472 701.835 931.536 717.367 921.222L885.634 809.521C908.679 794.224 946.1 788.017 976.638 794.426C993.959 798.063 1006.98 805.454 1013.29 815.279L1091.48 936.984C1096.82 945.298 1096.91 954.355 1091.88 963.251C1080.01 984.001 1042.41 998.56 1004.49 997.031L758.031 987.027C738.938 986.259 722.754 981.552 711.952 974.157ZM1000.06 808.806C992.62 804.041 984.325 800.762 975.637 799.15C946.277 792.99 910.344 798.906 888.307 813.547L720.041 925.247C706.175 934.449 700.125 945.171 702.982 955.425C707.194 970.476 728.877 980.988 758.232 982.178L1004.69 992.182C1045.93 993.822 1078.26 977.299 1087.73 960.887C1091.91 953.566 1091.87 946.396 1087.45 939.613L1009.25 817.908C1006.83 814.292 1003.7 811.197 1000.06 808.806Z" fill="white" fill-opacity="0.02"/>
<path d="M695.152 990.399C689.017 986.501 684.29 980.742 681.664 973.964C677.171 961.262 683.132 947.746 698.418 935.935L867.522 805.266C906.6 775.068 983.22 773.729 1006.46 802.829L1106.21 927.871C1109.53 931.722 1111.62 936.474 1112.23 941.521C1112.83 946.568 1111.92 951.681 1109.6 956.207C1098.94 978.98 1060.04 996.802 1019.12 997.651L750.352 1003.33C727.243 1003.76 707.698 998.987 695.152 990.399ZM994.822 798.768C966.9 779.653 903.441 783.649 870.444 809.153L701.393 939.858C687.886 950.307 682.482 961.856 686.225 972.447C691.987 988.751 717.689 999.242 750.19 998.563L1019.05 992.944C1063.72 992.009 1096.74 972.273 1105.23 954.249C1107.16 950.542 1107.93 946.338 1107.43 942.187C1106.93 938.037 1105.19 934.133 1102.44 930.988L1002.62 805.994C1000.4 803.208 997.769 800.772 994.822 798.768Z" fill="white" fill-opacity="0.02"/>
<path d="M678.726 1008.57C673.004 1004.89 668.445 999.661 665.582 993.489C659.991 980.535 665.037 966.162 679.667 952.92L847.297 801.989C885.974 767.147 968.805 760.587 997.516 790.081L1121.17 917.263C1129.81 926.125 1132.16 936.703 1127.99 947.826C1118.52 972.915 1079.53 993.816 1035.13 997.442L743.875 1021.23C716.867 1023.42 693.29 1018.54 678.726 1008.57ZM987.952 788.443C956.753 767.084 884.401 775.041 850.465 805.602L682.835 956.532C669.837 968.235 665.255 980.693 669.968 991.582C676.356 1006.41 701.541 1019.82 743.436 1016.44L1034.72 992.581C1082.49 988.701 1116.09 965.711 1123.46 946.092C1126.89 936.889 1124.93 928.021 1117.7 920.587L994.085 793.546C992.22 791.64 990.165 789.931 987.952 788.443Z" fill="white" fill-opacity="0.02"/>
<path d="M663.224 1029.36C657.868 1025.86 653.466 1021.08 650.414 1015.45C643.614 1002.27 647.491 986.958 661.357 972.327L824.904 799.829C862.602 760.062 951.556 747.51 986.237 777.085L1136.1 904.824C1146.76 913.913 1150.49 925.319 1146.87 937.802C1139.03 964.859 1099.3 989.35 1052.41 996.048L739.038 1040.81C707.658 1045.28 679.873 1040.76 663.224 1029.36ZM979.396 777.966C944.513 754.085 862.652 767.047 828.388 803.177L664.863 975.671C652.524 988.69 648.918 1002.03 654.72 1013.24C662.974 1029.31 692.082 1042.67 738.326 1036.03L1051.73 991.272C1102.29 984.046 1136.09 957.649 1142.24 936.463C1145.28 925.951 1142.07 916.288 1132.97 908.518L983.112 780.779C981.93 779.777 980.698 778.836 979.418 777.962L979.396 777.966Z" fill="white" fill-opacity="0.02"/>
<path d="M648.886 1052.58C643.969 1049.31 639.803 1045.04 636.663 1040.04C628.454 1026.71 631.065 1010.44 643.949 994.35L800.422 799.027C836.457 754.04 931.367 734.475 972.558 763.964L1150.92 890.687C1163.87 899.884 1169.22 912.187 1166.25 926.216C1160.16 955.175 1120.13 983.47 1071.09 993.53L736.199 1062.09C700.252 1069.46 667.829 1065.55 648.886 1052.58ZM969.026 767.322C929.935 740.561 838.004 759.739 804.171 801.96L647.626 997.387C636.112 1011.76 633.649 1026.02 640.686 1037.53C653.238 1058.06 692.105 1066.23 735.185 1057.41L1070.07 988.728C1123.57 977.762 1156.55 948.455 1161.46 925.17C1163.92 913.144 1159.38 902.565 1148.04 894.573L969.689 767.872L969.026 767.322Z" fill="white" fill-opacity="0.02"/>
<path d="M636.02 1078.29C631.575 1075.31 627.684 1071.57 624.523 1067.25C614.797 1053.69 615.885 1036.55 627.589 1018.98L773.609 799.693C807.204 749.242 907.753 722.256 955.949 750.764L1165.15 874.478C1180.57 883.613 1187.92 897.188 1185.82 912.712C1181.53 944.03 1142.52 975.598 1090.92 989.465L735.664 1085.11C695.057 1095.97 657.571 1093.05 636.02 1078.29ZM1165.67 880.632C1164.72 879.977 1163.72 879.295 1162.65 878.695L953.496 754.938C908.026 728.045 809.416 754.645 777.63 802.369L631.61 1021.65C620.952 1037.67 619.858 1052.46 628.453 1064.43C644.24 1086.37 687.863 1092.95 734.445 1080.37L1089.71 984.73C1145.19 969.805 1177.67 936.843 1181.05 911.993C1182.74 899.437 1177.46 888.62 1165.71 880.579L1165.67 880.632Z" fill="white" fill-opacity="0.02"/>
<path d="M624.643 1106.16C620.961 1103.68 617.635 1100.7 614.758 1097.32C603.227 1083.65 602.576 1065.59 612.903 1046.45L744.631 802.229C774.917 746.067 880.678 710.539 936.424 737.805L1178.75 856.299C1197.18 865.317 1206.72 879.897 1205.58 897.346C1203.41 930.518 1164.95 966.12 1112.04 983.901L737.98 1109.63C693.143 1124.7 649.117 1122.92 624.643 1106.16ZM1177.66 858.458L1176.6 860.622L934.274 742.128C881.523 716.335 777.558 751.321 748.864 804.511L617.201 1048.78C607.75 1066.3 608.213 1082.02 618.501 1094.24C638.028 1117.41 686.542 1121.85 736.498 1105.07L1110.49 979.264C1161.59 962.087 1198.71 928.243 1200.75 896.969C1201.79 881.392 1193.39 868.827 1176.63 860.583L1177.66 858.458Z" fill="white" fill-opacity="0.02"/>
<path d="M615.879 1136.94C613.006 1134.98 610.327 1132.75 607.88 1130.28C594.283 1116.57 591.604 1097.56 600.32 1076.78L713.501 806.869C739.509 744.832 849.886 699.834 913.675 725.252L1191.29 835.927C1213.13 844.639 1225.21 860.241 1225.28 879.873C1225.41 914.889 1187.98 954.642 1134.25 976.542L743.436 1135.77C694.038 1155.9 643.697 1155.98 615.879 1136.94ZM1189.47 840.417L911.879 729.702C851.366 705.603 742.633 749.859 717.95 808.721L604.783 1078.65C596.766 1097.78 599.028 1114.44 611.332 1126.87C635.272 1150.96 688.784 1152.81 741.587 1131.33L1132.4 972.042C1184.34 950.865 1220.51 912.995 1220.41 879.87C1220.34 862.089 1209.64 848.447 1189.47 840.417Z" fill="white" fill-opacity="0.02"/>
<path d="M609.811 1170.21C608.006 1168.98 606.267 1167.65 604.598 1166.24C588.582 1152.54 583.54 1132.57 590.356 1110.07L680.215 813.868C689.4 783.577 717.66 754.194 757.798 733.078C802.315 709.646 851.986 702.083 887.417 713.324L1202.42 813.32C1228.08 821.475 1243.08 838.096 1244.66 860.165C1247.36 897.57 1212.31 940.578 1157.44 967.161L752.569 1163.38C698.815 1189.42 641.482 1191.89 609.811 1170.21ZM1219.8 826.912C1213.97 823.015 1207.61 819.994 1200.91 817.946L886.015 717.986C851.774 707.117 803.532 714.561 760.116 737.399C721.698 757.632 693.587 786.77 684.907 815.31L594.969 1111.51C588.636 1132.38 593.05 1150.03 607.723 1162.6C636.591 1187.25 695.268 1185.8 750.436 1159.07L1155.33 962.813C1207.6 937.484 1242.35 895.411 1239.84 860.52C1238.82 846.654 1231.86 835.168 1219.8 826.912Z" fill="white" fill-opacity="0.02"/>
<path d="M606.868 1205.95L605.715 1205.16C586.832 1191.65 578.968 1170.77 583.617 1146.35L644.945 823.567C650.962 791.914 676.615 759.476 715.307 734.54C761.695 704.689 816.198 692.29 857.482 702.32L1211.8 788.417C1241.69 795.69 1260.08 813.322 1263.56 838.099C1269.06 877.309 1236.09 924.547 1181.5 955.637L765.86 1192.31C708.183 1225.23 643.036 1230.71 606.868 1205.95ZM1210.66 793.123L856.314 707.065C816.286 697.336 763.237 709.44 717.904 738.648C680.269 762.941 655.487 794.107 649.679 824.498L588.326 1147.2C583.987 1169.99 590.967 1188.65 608.487 1201.17C643.022 1225.75 706.626 1220.39 763.409 1188.07L1179.11 951.421C1231.99 921.315 1264 876.04 1258.76 838.78C1255.58 816.096 1238.5 799.877 1210.66 793.123Z" fill="white" fill-opacity="0.02"/>
<path d="M607.829 1244.23C588.415 1230.94 578.834 1210.28 580.742 1185.56L607.858 836.259C610.42 803.128 633.132 767.617 670.157 738.845C717.477 702.064 776.294 684.321 823.664 692.549L1218.95 761.18C1253.53 767.176 1275.79 785.763 1281.61 813.53C1290.37 855.138 1260.78 905.444 1206.22 941.695L783.803 1222.4C724.811 1261.6 654.222 1271.71 612.144 1247.01C610.671 1246.09 609.219 1245.18 607.829 1244.23ZM1253.06 779.253C1243.74 772.872 1231.99 768.352 1218.12 765.942L822.829 697.311C776.77 689.306 719.408 706.697 673.124 742.666C637.167 770.611 615.145 804.86 612.656 836.618L585.567 1185.94C583.638 1210.86 593.668 1230.49 614.593 1242.81C655.153 1266.61 723.626 1256.56 781.134 1218.34L1203.56 937.643C1255.63 903.037 1285.12 853.549 1276.87 814.555C1273.92 800.1 1265.36 787.405 1253.06 779.253Z" fill="white" fill-opacity="0.02"/>
<path d="M613.186 1284.86C594.087 1271.78 583.289 1251.9 582.423 1227.68L569.109 852.281C567.862 817.542 587.37 778.837 622.572 746.063C668.997 702.856 733.044 678.624 785.747 684.322L1223.41 731.558C1262.5 735.771 1289.88 755.73 1298.51 786.298C1310.76 829.629 1284.39 884.143 1231.36 925.158L807.002 1253.34C748.42 1298.64 673.554 1314.35 624.905 1291.53C620.826 1289.63 616.907 1287.39 613.186 1284.86ZM1223.12 734L1222.87 736.402L785.206 689.189C733.846 683.64 671.25 707.44 625.841 749.668C591.656 781.464 572.72 818.827 573.922 852.168L587.25 1227.52C588.21 1254.8 601.947 1275.43 626.955 1287.16C674.014 1309.23 746.819 1293.75 804.022 1249.51L1228.38 921.35C1279.88 881.514 1305.55 829.049 1293.85 787.616C1285.66 758.635 1260.46 740.439 1222.88 736.376L1223.12 734Z" fill="white" fill-opacity="0.02"/>
<path d="M623.398 1327.62C604.743 1314.85 592.916 1295.93 589.395 1272.62L529.049 871.93C523.54 835.429 539.487 793.266 572.788 756.264C617.968 706.102 685.026 675.363 743.644 677.988L1224.64 699.578C1269.13 701.579 1301.58 722.191 1313.84 756.25C1329.97 801.219 1307.5 859.941 1256.64 905.773L835.978 1284.92C778.919 1336.34 700.45 1358.39 645.185 1338.63C637.48 1335.91 630.157 1332.21 623.398 1327.62ZM1224.5 704.462L743.395 682.881C686.177 680.291 620.554 710.452 576.352 759.552C544.042 795.499 528.506 836.191 533.79 871.248L594.185 1271.89C598.638 1301.41 617.297 1323.48 646.757 1334.03C700.487 1353.27 776.955 1331.59 832.734 1281.33L1253.37 902.225C1302.8 857.667 1324.75 801.009 1309.28 757.869C1297.78 725.793 1266.85 706.315 1224.43 704.418L1224.5 704.462Z" fill="white" fill-opacity="0.02"/>
<path d="M639.051 1372.28C620.936 1359.95 607.92 1341.46 602.43 1320.25L487.842 895.699C477.463 857.23 489.472 811.312 520.781 769.713C563.652 712.713 632.873 675.215 697.071 674.133L1222.09 665.308C1272.25 664.511 1310.59 685.574 1327.14 723.264C1347.96 770.533 1330.54 831.944 1281.69 883.503L871.304 1316.84C816.141 1375.09 736.834 1403.58 673.959 1387.74C661.502 1384.69 649.684 1379.45 639.051 1372.28ZM1292.5 688.789C1274.15 676.225 1250.1 669.676 1222.17 670.139L697.114 678.936C634.348 679.979 566.661 716.699 524.579 772.602C494.17 813.027 482.484 857.376 492.45 894.425L607.144 1318.94C615.901 1351.37 640.011 1374.17 675.132 1382.96C736.347 1398.42 813.769 1370.48 867.768 1313.45L1278.16 880.128C1325.64 829.993 1342.7 770.614 1322.66 725.144C1316.23 710.426 1305.78 697.824 1292.5 688.789Z" fill="white" fill-opacity="0.02"/>
<path d="M660.726 1418.52C643.364 1406.65 630.013 1389.79 622.438 1370.16L446.068 923.703C430.052 883.089 437.595 833.036 466.799 786.299C506.357 722.891 576.823 678.372 646.102 672.989L1215.14 628.802C1271.24 624.447 1315.96 645.664 1337.83 687.01C1363.63 735.747 1351.49 801.219 1306.16 857.857L913.547 1348.53C862.358 1412.5 781.576 1448.5 712.583 1438.13C694.034 1435.61 676.302 1428.9 660.726 1418.52ZM1215.28 631.28L1215.52 633.738L646.479 677.81C578.677 683.087 509.752 726.679 470.901 788.857C442.515 834.287 435.15 882.729 450.571 921.934L626.977 1368.4C641.079 1404.05 671.703 1427.09 713.334 1433.3C780.695 1443.43 859.653 1408.13 909.804 1345.45L1302.43 854.784C1346.53 799.669 1358.53 736.266 1333.6 689.219C1312.66 649.664 1269.64 629.376 1215.55 633.584L1215.28 631.28Z" fill="white" fill-opacity="0.02"/>
<path d="M689.016 1466.04C672.735 1454.82 659.456 1439.78 650.346 1422.24L404.102 956.433C381.46 913.575 383.874 858.836 410.774 806.324C446.352 736.862 516.957 685.39 590.623 675.175L1203.12 590.234C1265.21 581.625 1317.04 602.493 1345.3 647.488C1376.75 697.545 1370.73 767.05 1329.59 828.913L963.273 1379.73C916.5 1450.07 837.544 1493.07 762.072 1489.25C733.964 1487.76 709.112 1479.79 689.016 1466.04ZM1203.46 592.626L1203.76 595.005L591.291 679.964C519.148 689.951 449.97 740.436 415.074 808.536C388.914 859.629 386.463 912.706 408.404 954.142L654.577 1420.05C675.173 1459.06 713.449 1481.9 762.339 1484.39C836.133 1488.1 913.431 1445.95 959.279 1377.01L1325.61 826.185C1365.64 765.969 1371.63 698.469 1341.17 650.09C1313.98 606.77 1263.89 586.707 1203.77 595.049L1203.46 592.626Z" fill="white" fill-opacity="0.02"/>
<path d="M724.109 1513.74C709.43 1503.69 696.799 1490.94 686.891 1476.17L362.52 994.196C332.051 948.906 328.491 889.057 352.775 830.018C384.063 753.941 452.22 696.905 530.647 681.17L1185.39 549.757C1252.35 536.318 1313.43 556.78 1348.72 604.447C1387.21 656.42 1388.26 728.144 1351.55 796.31L1021.16 1409.71C980.658 1484.91 903.064 1536.04 823.474 1539.95C785.82 1541.8 751.506 1532.5 724.109 1513.74ZM1186.34 554.506L531.593 685.918C454.743 701.347 387.931 757.263 357.256 831.853C333.603 889.38 336.976 947.561 366.528 991.492L690.899 1473.47C719.113 1515.38 767.366 1537.85 823.207 1535.16C901.131 1531.33 977.143 1481.21 1016.86 1407.48L1347.28 794.024C1383.14 727.583 1382.18 657.75 1344.84 607.334C1310.67 561.205 1251.35 541.408 1186.34 554.506Z" fill="white" fill-opacity="0.02"/>
<path d="M766.769 1562.01C754.214 1553.38 742.915 1543.05 733.195 1531.32L321.961 1037.3C282.251 989.591 271.648 924.112 292.886 857.597C318.74 776.607 385.181 712.966 466.282 691.495L1161.19 507.625C1233.63 488.462 1303.16 507.182 1347.17 557.72C1393.23 610.583 1402.28 686.204 1371.39 760.012L1087.7 1437.95C1053.88 1518.76 980.996 1576.69 897.483 1589.25C848.621 1596.61 802.937 1586.77 766.769 1562.01ZM1161.81 509.968L1162.43 512.319L467.502 696.239C387.978 717.288 322.827 779.693 297.468 859.117C276.811 923.911 287.045 987.791 325.679 1034.2L736.885 1528.26C774.603 1573.57 832.909 1594 896.696 1584.49C978.592 1572.21 1050 1515.43 1083.21 1436.13L1366.9 758.19C1397.01 686.082 1388.31 612.373 1343.51 560.931C1300.72 511.823 1233.03 493.65 1162.41 512.346L1161.81 509.968Z" fill="white" fill-opacity="0.02"/>
<path d="M817.232 1609.65C807.565 1603.02 798.514 1595.53 790.187 1587.28L283.17 1086.06C232.578 1036.02 213.585 964.436 231.088 889.626C250.971 804.336 314.845 734.376 397.628 706.933L1129.8 464.245C1207.15 438.621 1285.54 454.687 1339.52 507.277C1394.35 560.694 1412.7 640.162 1388.54 719.979L1163.34 1463.86C1137.69 1548.59 1069.13 1614.61 984.376 1636.12C923.508 1651.58 864.32 1641.88 817.232 1609.65ZM1311.01 490.146C1260.59 455.631 1195.58 447.472 1131.2 468.761L399.032 711.436C317.95 738.446 255.365 807.113 235.834 890.68C218.727 963.816 237.228 1033.76 286.606 1082.56L793.601 1583.78C842.574 1632.19 911.688 1649.55 983.214 1631.38C1066.34 1610.27 1133.59 1545.53 1158.75 1462.41L1383.83 718.529C1407.43 640.52 1389.58 562.82 1336.11 510.659C1328.35 503.115 1319.95 496.252 1311.01 490.146Z" fill="white" fill-opacity="0.02"/>
<path d="M874.613 1655.11C869.23 1651.42 863.977 1647.48 858.856 1643.28L246.975 1140.76C184.536 1089.46 154.858 1009.33 167.604 926.391C174.148 882.434 192.126 840.968 219.739 806.146C247.352 771.325 283.63 744.37 324.939 727.981L1090.31 419.934C1171.73 387.112 1259.13 399.525 1324.23 453.006C1389.33 506.487 1418.43 589.829 1402.12 676.026L1248.68 1486.51C1240.63 1530.23 1221.23 1571.07 1192.42 1604.94C1163.62 1638.8 1126.42 1664.5 1084.55 1679.46C1012.14 1705.75 935.081 1696.48 874.613 1655.11ZM1305.52 444.875C1243.91 402.696 1165.46 394.777 1092.11 424.305L326.731 732.365C286.196 748.433 250.594 774.87 223.493 809.029C196.391 843.188 178.741 883.868 172.312 926.995C159.828 1008.23 188.862 1086.69 250.024 1136.89L861.904 1639.42C923.013 1689.59 1005.62 1702.84 1082.88 1674.81C1123.95 1660.13 1160.45 1634.91 1188.71 1601.69C1216.97 1568.46 1236 1528.38 1243.89 1485.48L1397.32 675.051C1413.31 590.616 1384.81 508.979 1321.12 456.652C1316.06 452.456 1310.86 448.531 1305.52 444.875Z" fill="white" fill-opacity="0.02"/>
<path d="M940.302 1698.61L214.348 1201.63C137.227 1148.84 95.4554 1061.67 102.626 968.489C109.796 875.304 164.374 795.553 248.71 755.099L1042.03 374.949C1126.32 334.561 1222.69 341.969 1299.81 394.765C1376.93 447.561 1418.71 534.725 1411.55 627.918L1344.16 1505.03C1336.95 1598.29 1282.4 1677.98 1198.11 1718.37C1113.82 1758.76 1017.42 1751.41 940.302 1698.61ZM1043.08 377.13L1044.13 379.311L250.749 759.518C168.045 799.163 114.477 877.411 107.438 968.856C100.399 1060.3 141.397 1145.84 217.076 1197.65L943.03 1694.63C1018.71 1746.44 1113.27 1753.7 1195.98 1714.06C1278.68 1674.41 1332.27 1596.16 1339.29 1504.72L1406.71 627.567C1413.73 536.113 1372.74 450.598 1297.06 398.789C1221.38 346.98 1126.83 339.7 1044.11 379.337L1043.08 377.13Z" fill="white" fill-opacity="0.02"/>
</svg>
