<svg width="118" height="118" viewBox="0 0 118 118" fill="none" xmlns="http://www.w3.org/2000/svg">
<mask id="path-1-inside-1_1458_12447" fill="white">
<path d="M117.889 32.936C117.552 32.3182 116.713 31.9521 116.128 31.6798C115.113 31.2085 114.46 31.7374 114.631 30.7585C114.87 29.3872 113.73 28.3295 112.647 27.7799C111.943 27.4238 108.627 27.8269 108.685 27.9157C107.809 26.4868 106.043 26.3767 104.66 26.9106C104.396 27.0101 103.458 27.8632 103.282 27.6641C102.718 27.0201 102.22 26.617 101.49 26.5231C101.962 25.4554 101.718 24.3613 100.237 24.1779C100.2 24.1779 100.112 24.1779 100.004 24.1829C100.605 22.7277 98.3778 20.8169 96.6061 21.471C96.6426 18.4974 88.5983 19.2515 89.6913 22.4292C87.7233 22.4135 86.9151 24.8689 86.9096 26.8843C85.91 26.172 84.5111 26.5388 83.7965 27.6015C83.6045 27.0777 83.2942 26.6539 82.8174 26.3291C84.5006 25.528 86.2308 23.8475 84.791 22.366C87.0185 20.6905 84.5786 17.4765 82.3307 18.9267C81.673 17.4659 79.6474 16.7073 78.6584 17.8533C78.2905 17.1623 77.6378 16.8375 76.8662 16.6022C77.7728 16.0789 78.472 15.147 77.5759 14.1731C76.7318 13.2518 77.7883 13.3094 77.7573 12.2047C77.7264 11.1313 77.0737 10.9848 77.6174 10.1893C79.5235 7.36779 74.2869 5.61906 72.5363 8.52444C71.024 7.04296 68.3147 8.01121 67.9989 10.1424C67.0353 9.86509 66.1547 10.0585 65.4295 10.6293C65.4295 9.65542 64.9013 8.88057 63.8287 8.88057C64.5489 7.07988 62.3164 6.76568 60.7261 7.50361C61.4253 5.59777 61.5293 3.99112 59.8195 2.46207C58.6076 1.37865 56.9034 1.24784 55.484 1.84432C55.2561 -0.527178 51.7232 -0.537816 50.5218 1.38867C48.4807 -1.37526 44.1247 2.36756 44.5545 5.55584C43.3426 5.15277 42.2545 5.3831 42.1616 6.59732C40.9286 5.91135 39.4368 6.27249 39.23 7.62879C37.7332 6.70748 36.1429 8.50816 35.4642 10.1524C34.8009 9.34122 33.8324 9.20477 32.9314 9.84381C32.3307 7.56682 30.2951 6.85456 28.28 8.45621C26.2234 10.0898 27.6428 11.6182 29.3885 12.2097C29.0832 12.5865 28.8498 13.0628 28.7463 13.3669C28.2751 14.7439 28.4875 15.9005 29.3941 16.6441C28.2237 16.8901 26.9232 17.5341 27.3846 18.754C27.2502 18.3872 25.4939 19.5658 25.375 19.7379C25.0121 20.2667 24.8728 20.7011 24.9038 21.1461C22.5004 20.1359 18.807 23.0463 19.9781 25.5223C18.3048 25.8572 18.3673 27.6166 19.2009 28.9772C18.1803 28.9247 17.2793 29.2758 16.6266 30.0713C15.0778 25.8465 9.58731 31.7362 12.9072 33.1914C12.1821 34.2015 12.4929 35.678 13.9018 36.1437C14.2387 36.2538 16.1343 36.3896 16.0568 35.9396C16.1448 36.4529 16.5232 36.7671 16.9789 36.9555C16.4451 37.3116 16.1603 37.8874 16.1089 38.5734C15.0679 38.2698 14.1718 38.9032 13.721 39.8871C12.488 37.453 9.75823 39.735 10.5973 41.4055C9.10552 41.552 7.9865 42.2536 8.11654 44.0386C8.16856 44.7822 7.35484 45.1483 7.16348 45.8393C7.08545 46.1222 7.07555 46.4045 7.10094 46.6768C5.86301 45.7398 4.38667 46.2211 3.29923 48.0011C2.30963 49.6184 2.38271 51.8491 4.25229 51.8748C3.29428 53.6598 5.81162 54.173 7.62422 54.2826C7.10094 55.0524 7.18392 56.0413 6.2674 56.1408C5.24188 56.251 5.04 57.141 5.15395 57.9728C3.3723 56.957 1.03579 56.9363 0.202254 59.1877C-0.854224 62.0511 2.46569 63.1664 4.66224 62.8472C3.8126 65.4697 6.88419 67.0144 8.60391 65.2763C8.71786 66.5225 9.51052 67.2134 11.1473 67.2447C10.6134 67.2447 11.1937 69.1293 11.3027 69.3546C11.5876 69.9567 13.3333 70.4067 13.3333 70.8467C13.2658 74.0557 16.6278 74.726 18.0156 72.8677C19.8697 75.5478 24.7025 73.5637 23.2577 70.7059C24.3142 70.7529 24.8635 69.8528 25.1019 68.7688C25.3868 69.1668 25.7961 69.4128 26.4073 69.6275C26.5368 69.6744 27.174 69.8372 27.2514 69.6275C27.0601 70.1407 27.1839 70.7898 27.2564 71.313C27.4533 72.6637 28.3909 73.4805 29.2349 72.8414C29.8926 77.0136 36.4971 76.998 36.5801 72.9197C37.3777 73.5268 38.3203 73.2808 38.8696 72.4747C39.2424 74.0244 39.8691 75.5109 40.5788 76.7464C41.8997 79.029 44.2566 80.4685 46.525 81.6202C48.7216 82.7299 51.8705 82.9971 53.5537 84.866C53.5432 85.4469 53.5327 86.0333 53.5172 86.6198C53.3723 93.467 52.9475 100.262 51.5646 106.984C51.0364 109.555 49.7204 112.062 49.4151 114.653C49.3117 115.538 49.1823 117.187 50.4097 117.439C52.2434 117.81 54.2529 117.496 56.133 117.716C58.35 117.977 60.5874 118.297 62.7115 117.459C62.9859 117.355 63.0899 117.04 62.8824 116.81C61.6185 115.397 59.8109 114.815 58.8733 113.051C57.6248 110.69 57.3455 107.56 57.0347 104.963C56.4649 100.262 56.325 95.508 56.6049 90.7863C56.7083 89.1108 56.8328 87.4466 56.9467 85.7817C62.9499 84.2946 67.6013 80.2689 71.1287 75.228C72.2477 73.6363 73.3871 72.0923 74.7495 70.7103C75.2933 70.1608 75.9875 69.7107 76.6817 69.2814C77.4378 69.6638 78.3803 69.533 79.0436 68.8733C79.4473 69.7896 80.6698 69.9361 81.6284 69.3709C81.7578 71.5383 83.7104 73.2395 85.5081 71.7055C85.9639 73.0142 87.3523 73.6845 87.953 73.0035C88.4453 74.485 90.3923 74.7836 91.3095 73.9249C91.9257 74.48 93.1797 74.49 93.7593 73.6945C94.8003 74.9407 96.7894 73.9355 97.1777 72.3232C100.12 75.5791 105.761 69.0254 100.783 66.6276C103.191 64.0571 100.628 61.8377 97.7165 62.1988C98.8559 60.0996 95.6239 58.6807 93.402 59.5607C93.568 57.9584 91.9622 57.4821 90.3923 57.6392C90.91 56.9639 90.967 56.1628 90.5323 55.2727C91.6043 55.4192 92.6143 55.0218 93.0855 54.1317C93.6862 55.1 94.7743 55.6082 96.0172 55.3047C96.468 55.1945 96.7423 54.8653 96.8098 54.4566C96.8303 54.3364 96.8359 54.2106 96.8359 54.0848C97.478 55.3729 99.3327 56.1527 100.42 55.4248C100.804 56.8018 102.399 58.0529 102.99 57.2155C103.601 58.1161 104.554 58.5868 105.755 58.6237C106.314 58.6394 106.75 58.4197 106.988 58.0586C108.045 59.2315 110.096 58.8121 111.122 57.4984C111.308 57.2574 111.5 56.7861 111.474 56.4776C111.5 56.7811 112.147 56.9382 112.603 57.0534C113.484 57.2731 114.317 56.9539 115.007 56.415C117.404 54.5304 116.871 48.5882 113.546 49.0489C114.224 47.4573 113.385 45.9601 111.407 45.6409C111.065 45.5833 110.935 44.0599 110.64 43.6199C110.221 42.9915 109.521 42.9602 108.868 43.1067C109.013 42.5259 108.982 41.8399 108.811 41.2641C109.557 41.3267 110.308 41.0444 110.728 40.3428C110.857 40.1281 112.681 40.1174 113.095 39.9447C113.722 39.6774 113.98 39.1279 114.063 38.5314C116.14 39.6149 118.73 37.0237 117.503 34.773C117.48 34.7317 118.288 33.6689 117.889 32.936ZM27.0681 53.4833C26.4365 52.4418 24.9861 52.6352 24.4003 53.7919C23.8411 53.0014 23.0119 52.567 22.2093 53.0383C22.1214 51.7402 21.1163 50.986 19.801 51.1431C19.9459 50.6299 19.7749 50.1642 19.4436 49.7768C19.9929 49.651 20.4431 49.3318 20.6611 48.8085C20.894 49.1334 21.3089 49.3737 21.7801 49.5308C21.8891 49.5621 22.9561 49.5095 22.9506 49.447C22.9815 50.0597 23.4478 50.4834 23.8826 50.8183C24.178 51.038 24.6697 50.9334 24.9446 50.7713C25.1106 50.6768 25.245 51.033 25.5713 51.1951C26.286 51.5512 26.9957 50.8233 27.374 50.1742C28.0472 51.043 28.9123 50.5879 29.399 49.7399C29.5495 50.2162 29.7979 50.6086 30.1967 50.8496C29.3941 51.232 28.9433 51.9593 28.9792 52.8862C28.1401 52.4681 27.1821 52.552 27.0681 53.4833ZM82.1907 53.5515C81.8594 52.5514 81.1547 51.8347 80.5174 50.9447C81.6618 51.4999 82.9363 50.8508 82.9314 49.5521C83.589 49.9026 84.3198 49.6723 84.905 49.1278C85.0654 50.3213 86.0859 51.1225 87.2929 50.8971C87.096 51.5356 87.1684 52.122 87.4743 52.6772C86.4748 52.5514 85.5112 53.0646 85.1644 54.0122C84.3916 53.0333 83.0868 52.6615 82.1907 53.5515ZM82.1387 35.8101C82.9258 36.3909 83.9463 35.5848 84.6765 34.6691C85.0493 36.2814 86.7795 36.7739 88.0948 35.9885C88.0273 36.5067 88.1054 36.9936 88.3593 37.423C86.7795 37.3704 85.6865 38.8995 86.1992 40.4229C85.6914 40.2501 85.1118 40.1819 84.7694 40.1875C83.8782 40.1982 83.6039 40.8472 83.5834 41.5645C82.7858 40.8785 81.8117 40.8109 80.8902 41.4806C80.7453 40.538 80.2375 39.7219 79.3154 39.7375C79.4139 39.3295 79.3204 38.984 79.0721 38.7324C79.7037 38.4394 80.196 37.9369 80.2326 37.3448C81.1547 37.7159 81.9938 36.8885 82.1387 35.8101ZM33.5166 37.2916C34.4851 37.1714 35.0549 36.3965 35.1428 35.4433C35.9144 35.9459 36.764 35.9722 37.5257 35.5322C37.4843 36.1656 37.8001 36.6525 38.4014 36.9454C38.0131 37.254 37.7951 37.7046 37.7282 38.2173C37.1796 37.453 35.8896 37.7779 36.0345 39.0128C35.1434 38.8087 34.2839 39.2537 34.2114 40.0805C33.7866 39.7663 33.3463 39.4891 32.875 39.2431C33.4807 38.7104 33.7909 38.0508 33.5166 37.2916ZM37.2514 54.5361C38.1735 54.8446 38.8206 54.1017 39.0956 53.1491C39.9087 53.8194 40.9862 53.6723 41.6594 52.9238C41.8043 53.5465 42.0892 54.1067 42.5035 54.5674C41.5089 54.5674 40.5973 54.9704 40.4574 55.8761C39.4994 55.3003 38.4163 56.0282 38.4838 57.2268C37.7635 56.8393 37.0074 56.6196 36.2309 56.363C36.7801 56.0332 37.2304 55.2896 37.2514 54.5361ZM47.8694 15.0112C48.8535 15.095 49.1903 13.6498 48.7395 12.5614C49.1179 12.5351 49.4281 12.378 49.6721 12.1321C49.7811 13.1322 50.1905 13.9803 51.107 14.2526C50.5577 14.9123 50.9206 15.9857 51.6767 16.6604C50.9051 16.8957 50.4388 17.561 50.4493 18.3772C49.5532 17.822 48.4293 17.9322 47.854 18.8272C47.4657 18.0367 46.7975 17.5028 46.0878 16.9426C46.891 17.2412 48.4862 16.4563 47.8694 15.0112ZM54.0182 37.3122C54.438 38.5846 55.593 38.8932 56.7275 38.1027C56.7225 39.4008 57.7685 39.956 58.903 39.3751C58.8256 39.8934 58.9234 40.4116 59.4523 40.7208C59.9186 40.9881 60.2654 41.0769 60.7627 41.0663C60.1775 42.2599 61.2445 43.5423 62.4929 43.4904C61.7003 44.8936 62.156 46.7099 63.6429 46.9353C62.8657 47.6262 62.317 48.5895 63.306 49.2698C63.2336 49.3274 63.1196 49.4219 62.9487 49.5577C62.6434 49.8087 62.5394 50.2381 62.4205 50.5892C62.2601 51.0605 62.353 51.5318 62.5548 51.9605C61.9486 51.6833 61.3528 51.5468 60.7162 51.7408C60.7113 51.2332 60.5193 50.8039 60.1824 50.6311C60.4208 50.3276 60.5397 49.9715 60.3329 49.621C60.24 49.4639 60.162 49.3643 60.1 49.3068C60.1261 49.3068 60.1465 49.3118 60.1775 49.3118C60.3849 49.2961 60.7212 49.1653 60.8667 49.0032C61.9288 47.7783 60.9497 45.8306 59.7997 45.0401C59.4684 44.8148 58.9971 44.7785 58.5983 44.9093C58.6138 44.8723 58.6293 44.841 58.6448 44.8047C58.7587 44.4749 58.6497 43.8208 58.4844 43.5273C57.9196 42.5328 56.4383 40.8209 55.7701 41.5063C55.0449 39.3495 52.5226 40.2915 52.5846 42.4958C51.9684 41.9569 51.1448 41.5952 50.611 42.3181C50.0827 43.0404 50.0567 42.4176 49.2591 42.0458C49.1346 41.9932 49.0101 41.9619 48.8912 41.9413C49.5229 41.1402 49.8338 40.0098 49.4919 39.2087C50.367 39.3658 51.1181 39.0409 51.6055 38.4025C52.034 39.2443 53.3134 38.328 54.0182 37.3122ZM44.2077 70.7178C44.7824 72.5761 47.3362 73.6758 47.7505 72.1261C48.7401 72.9166 50.009 72.3877 50.2679 71.1578C51.0704 71.8331 51.8687 71.6973 52.4384 71.0896C53.319 74.3774 53.5574 77.7484 53.5835 81.162C50.2635 80.0942 47.0935 78.5758 44.4826 76.1993C43.0478 74.8956 42.0842 73.4198 41.4885 71.8175C42.4929 71.8744 43.4825 71.5133 44.2077 70.7178ZM57.1207 77.4186C58.4776 76.3139 59.3167 74.7592 60.1353 73.1938C61.042 71.4614 61.995 69.896 63.1085 68.3463C64.4653 69.2676 66.8897 68.1423 67.6199 66.4305C68.3655 67.216 69.438 67.174 70.0802 66.3992C70.4741 67.8281 71.4216 68.7494 72.6545 68.6505C71.8774 70.9644 70.588 73.0686 69.0442 74.9432C67.4434 76.8853 65.3255 78.4663 63.2689 79.8696C61.9535 80.7646 59.1408 82.8482 57.0891 83.2256C57.1827 81.2978 57.2192 79.3713 57.1207 77.4186ZM55.1886 69.215C55.8878 68.9321 56.5095 68.1836 56.8563 67.3461C57.6124 68.2674 58.7469 68.2725 59.4306 67.3831C59.6226 67.7336 59.9068 67.9802 60.2233 68.1003C59.534 70.5451 58.4002 72.9165 56.7993 74.838C56.4005 72.9422 55.7063 71.084 55.1886 69.215Z"/>
</mask>
<path d="M117.889 32.936C117.552 32.3182 116.713 31.9521 116.128 31.6798C115.113 31.2085 114.46 31.7374 114.631 30.7585C114.87 29.3872 113.73 28.3295 112.647 27.7799C111.943 27.4238 108.627 27.8269 108.685 27.9157C107.809 26.4868 106.043 26.3767 104.66 26.9106C104.396 27.0101 103.458 27.8632 103.282 27.6641C102.718 27.0201 102.22 26.617 101.49 26.5231C101.962 25.4554 101.718 24.3613 100.237 24.1779C100.2 24.1779 100.112 24.1779 100.004 24.1829C100.605 22.7277 98.3778 20.8169 96.6061 21.471C96.6426 18.4974 88.5983 19.2515 89.6913 22.4292C87.7233 22.4135 86.9151 24.8689 86.9096 26.8843C85.91 26.172 84.5111 26.5388 83.7965 27.6015C83.6045 27.0777 83.2942 26.6539 82.8174 26.3291C84.5006 25.528 86.2308 23.8475 84.791 22.366C87.0185 20.6905 84.5786 17.4765 82.3307 18.9267C81.673 17.4659 79.6474 16.7073 78.6584 17.8533C78.2905 17.1623 77.6378 16.8375 76.8662 16.6022C77.7728 16.0789 78.472 15.147 77.5759 14.1731C76.7318 13.2518 77.7883 13.3094 77.7573 12.2047C77.7264 11.1313 77.0737 10.9848 77.6174 10.1893C79.5235 7.36779 74.2869 5.61906 72.5363 8.52444C71.024 7.04296 68.3147 8.01121 67.9989 10.1424C67.0353 9.86509 66.1547 10.0585 65.4295 10.6293C65.4295 9.65542 64.9013 8.88057 63.8287 8.88057C64.5489 7.07988 62.3164 6.76568 60.7261 7.50361C61.4253 5.59777 61.5293 3.99112 59.8195 2.46207C58.6076 1.37865 56.9034 1.24784 55.484 1.84432C55.2561 -0.527178 51.7232 -0.537816 50.5218 1.38867C48.4807 -1.37526 44.1247 2.36756 44.5545 5.55584C43.3426 5.15277 42.2545 5.3831 42.1616 6.59732C40.9286 5.91135 39.4368 6.27249 39.23 7.62879C37.7332 6.70748 36.1429 8.50816 35.4642 10.1524C34.8009 9.34122 33.8324 9.20477 32.9314 9.84381C32.3307 7.56682 30.2951 6.85456 28.28 8.45621C26.2234 10.0898 27.6428 11.6182 29.3885 12.2097C29.0832 12.5865 28.8498 13.0628 28.7463 13.3669C28.2751 14.7439 28.4875 15.9005 29.3941 16.6441C28.2237 16.8901 26.9232 17.5341 27.3846 18.754C27.2502 18.3872 25.4939 19.5658 25.375 19.7379C25.0121 20.2667 24.8728 20.7011 24.9038 21.1461C22.5004 20.1359 18.807 23.0463 19.9781 25.5223C18.3048 25.8572 18.3673 27.6166 19.2009 28.9772C18.1803 28.9247 17.2793 29.2758 16.6266 30.0713C15.0778 25.8465 9.58731 31.7362 12.9072 33.1914C12.1821 34.2015 12.4929 35.678 13.9018 36.1437C14.2387 36.2538 16.1343 36.3896 16.0568 35.9396C16.1448 36.4529 16.5232 36.7671 16.9789 36.9555C16.4451 37.3116 16.1603 37.8874 16.1089 38.5734C15.0679 38.2698 14.1718 38.9032 13.721 39.8871C12.488 37.453 9.75823 39.735 10.5973 41.4055C9.10552 41.552 7.9865 42.2536 8.11654 44.0386C8.16856 44.7822 7.35484 45.1483 7.16348 45.8393C7.08545 46.1222 7.07555 46.4045 7.10094 46.6768C5.86301 45.7398 4.38667 46.2211 3.29923 48.0011C2.30963 49.6184 2.38271 51.8491 4.25229 51.8748C3.29428 53.6598 5.81162 54.173 7.62422 54.2826C7.10094 55.0524 7.18392 56.0413 6.2674 56.1408C5.24188 56.251 5.04 57.141 5.15395 57.9728C3.3723 56.957 1.03579 56.9363 0.202254 59.1877C-0.854224 62.0511 2.46569 63.1664 4.66224 62.8472C3.8126 65.4697 6.88419 67.0144 8.60391 65.2763C8.71786 66.5225 9.51052 67.2134 11.1473 67.2447C10.6134 67.2447 11.1937 69.1293 11.3027 69.3546C11.5876 69.9567 13.3333 70.4067 13.3333 70.8467C13.2658 74.0557 16.6278 74.726 18.0156 72.8677C19.8697 75.5478 24.7025 73.5637 23.2577 70.7059C24.3142 70.7529 24.8635 69.8528 25.1019 68.7688C25.3868 69.1668 25.7961 69.4128 26.4073 69.6275C26.5368 69.6744 27.174 69.8372 27.2514 69.6275C27.0601 70.1407 27.1839 70.7898 27.2564 71.313C27.4533 72.6637 28.3909 73.4805 29.2349 72.8414C29.8926 77.0136 36.4971 76.998 36.5801 72.9197C37.3777 73.5268 38.3203 73.2808 38.8696 72.4747C39.2424 74.0244 39.8691 75.5109 40.5788 76.7464C41.8997 79.029 44.2566 80.4685 46.525 81.6202C48.7216 82.7299 51.8705 82.9971 53.5537 84.866C53.5432 85.4469 53.5327 86.0333 53.5172 86.6198C53.3723 93.467 52.9475 100.262 51.5646 106.984C51.0364 109.555 49.7204 112.062 49.4151 114.653C49.3117 115.538 49.1823 117.187 50.4097 117.439C52.2434 117.81 54.2529 117.496 56.133 117.716C58.35 117.977 60.5874 118.297 62.7115 117.459C62.9859 117.355 63.0899 117.04 62.8824 116.81C61.6185 115.397 59.8109 114.815 58.8733 113.051C57.6248 110.69 57.3455 107.56 57.0347 104.963C56.4649 100.262 56.325 95.508 56.6049 90.7863C56.7083 89.1108 56.8328 87.4466 56.9467 85.7817C62.9499 84.2946 67.6013 80.2689 71.1287 75.228C72.2477 73.6363 73.3871 72.0923 74.7495 70.7103C75.2933 70.1608 75.9875 69.7107 76.6817 69.2814C77.4378 69.6638 78.3803 69.533 79.0436 68.8733C79.4473 69.7896 80.6698 69.9361 81.6284 69.3709C81.7578 71.5383 83.7104 73.2395 85.5081 71.7055C85.9639 73.0142 87.3523 73.6845 87.953 73.0035C88.4453 74.485 90.3923 74.7836 91.3095 73.9249C91.9257 74.48 93.1797 74.49 93.7593 73.6945C94.8003 74.9407 96.7894 73.9355 97.1777 72.3232C100.12 75.5791 105.761 69.0254 100.783 66.6276C103.191 64.0571 100.628 61.8377 97.7165 62.1988C98.8559 60.0996 95.6239 58.6807 93.402 59.5607C93.568 57.9584 91.9622 57.4821 90.3923 57.6392C90.91 56.9639 90.967 56.1628 90.5323 55.2727C91.6043 55.4192 92.6143 55.0218 93.0855 54.1317C93.6862 55.1 94.7743 55.6082 96.0172 55.3047C96.468 55.1945 96.7423 54.8653 96.8098 54.4566C96.8303 54.3364 96.8359 54.2106 96.8359 54.0848C97.478 55.3729 99.3327 56.1527 100.42 55.4248C100.804 56.8018 102.399 58.0529 102.99 57.2155C103.601 58.1161 104.554 58.5868 105.755 58.6237C106.314 58.6394 106.75 58.4197 106.988 58.0586C108.045 59.2315 110.096 58.8121 111.122 57.4984C111.308 57.2574 111.5 56.7861 111.474 56.4776C111.5 56.7811 112.147 56.9382 112.603 57.0534C113.484 57.2731 114.317 56.9539 115.007 56.415C117.404 54.5304 116.871 48.5882 113.546 49.0489C114.224 47.4573 113.385 45.9601 111.407 45.6409C111.065 45.5833 110.935 44.0599 110.64 43.6199C110.221 42.9915 109.521 42.9602 108.868 43.1067C109.013 42.5259 108.982 41.8399 108.811 41.2641C109.557 41.3267 110.308 41.0444 110.728 40.3428C110.857 40.1281 112.681 40.1174 113.095 39.9447C113.722 39.6774 113.98 39.1279 114.063 38.5314C116.14 39.6149 118.73 37.0237 117.503 34.773C117.48 34.7317 118.288 33.6689 117.889 32.936ZM27.0681 53.4833C26.4365 52.4418 24.9861 52.6352 24.4003 53.7919C23.8411 53.0014 23.0119 52.567 22.2093 53.0383C22.1214 51.7402 21.1163 50.986 19.801 51.1431C19.9459 50.6299 19.7749 50.1642 19.4436 49.7768C19.9929 49.651 20.4431 49.3318 20.6611 48.8085C20.894 49.1334 21.3089 49.3737 21.7801 49.5308C21.8891 49.5621 22.9561 49.5095 22.9506 49.447C22.9815 50.0597 23.4478 50.4834 23.8826 50.8183C24.178 51.038 24.6697 50.9334 24.9446 50.7713C25.1106 50.6768 25.245 51.033 25.5713 51.1951C26.286 51.5512 26.9957 50.8233 27.374 50.1742C28.0472 51.043 28.9123 50.5879 29.399 49.7399C29.5495 50.2162 29.7979 50.6086 30.1967 50.8496C29.3941 51.232 28.9433 51.9593 28.9792 52.8862C28.1401 52.4681 27.1821 52.552 27.0681 53.4833ZM82.1907 53.5515C81.8594 52.5514 81.1547 51.8347 80.5174 50.9447C81.6618 51.4999 82.9363 50.8508 82.9314 49.5521C83.589 49.9026 84.3198 49.6723 84.905 49.1278C85.0654 50.3213 86.0859 51.1225 87.2929 50.8971C87.096 51.5356 87.1684 52.122 87.4743 52.6772C86.4748 52.5514 85.5112 53.0646 85.1644 54.0122C84.3916 53.0333 83.0868 52.6615 82.1907 53.5515ZM82.1387 35.8101C82.9258 36.3909 83.9463 35.5848 84.6765 34.6691C85.0493 36.2814 86.7795 36.7739 88.0948 35.9885C88.0273 36.5067 88.1054 36.9936 88.3593 37.423C86.7795 37.3704 85.6865 38.8995 86.1992 40.4229C85.6914 40.2501 85.1118 40.1819 84.7694 40.1875C83.8782 40.1982 83.6039 40.8472 83.5834 41.5645C82.7858 40.8785 81.8117 40.8109 80.8902 41.4806C80.7453 40.538 80.2375 39.7219 79.3154 39.7375C79.4139 39.3295 79.3204 38.984 79.0721 38.7324C79.7037 38.4394 80.196 37.9369 80.2326 37.3448C81.1547 37.7159 81.9938 36.8885 82.1387 35.8101ZM33.5166 37.2916C34.4851 37.1714 35.0549 36.3965 35.1428 35.4433C35.9144 35.9459 36.764 35.9722 37.5257 35.5322C37.4843 36.1656 37.8001 36.6525 38.4014 36.9454C38.0131 37.254 37.7951 37.7046 37.7282 38.2173C37.1796 37.453 35.8896 37.7779 36.0345 39.0128C35.1434 38.8087 34.2839 39.2537 34.2114 40.0805C33.7866 39.7663 33.3463 39.4891 32.875 39.2431C33.4807 38.7104 33.7909 38.0508 33.5166 37.2916ZM37.2514 54.5361C38.1735 54.8446 38.8206 54.1017 39.0956 53.1491C39.9087 53.8194 40.9862 53.6723 41.6594 52.9238C41.8043 53.5465 42.0892 54.1067 42.5035 54.5674C41.5089 54.5674 40.5973 54.9704 40.4574 55.8761C39.4994 55.3003 38.4163 56.0282 38.4838 57.2268C37.7635 56.8393 37.0074 56.6196 36.2309 56.363C36.7801 56.0332 37.2304 55.2896 37.2514 54.5361ZM47.8694 15.0112C48.8535 15.095 49.1903 13.6498 48.7395 12.5614C49.1179 12.5351 49.4281 12.378 49.6721 12.1321C49.7811 13.1322 50.1905 13.9803 51.107 14.2526C50.5577 14.9123 50.9206 15.9857 51.6767 16.6604C50.9051 16.8957 50.4388 17.561 50.4493 18.3772C49.5532 17.822 48.4293 17.9322 47.854 18.8272C47.4657 18.0367 46.7975 17.5028 46.0878 16.9426C46.891 17.2412 48.4862 16.4563 47.8694 15.0112ZM54.0182 37.3122C54.438 38.5846 55.593 38.8932 56.7275 38.1027C56.7225 39.4008 57.7685 39.956 58.903 39.3751C58.8256 39.8934 58.9234 40.4116 59.4523 40.7208C59.9186 40.9881 60.2654 41.0769 60.7627 41.0663C60.1775 42.2599 61.2445 43.5423 62.4929 43.4904C61.7003 44.8936 62.156 46.7099 63.6429 46.9353C62.8657 47.6262 62.317 48.5895 63.306 49.2698C63.2336 49.3274 63.1196 49.4219 62.9487 49.5577C62.6434 49.8087 62.5394 50.2381 62.4205 50.5892C62.2601 51.0605 62.353 51.5318 62.5548 51.9605C61.9486 51.6833 61.3528 51.5468 60.7162 51.7408C60.7113 51.2332 60.5193 50.8039 60.1824 50.6311C60.4208 50.3276 60.5397 49.9715 60.3329 49.621C60.24 49.4639 60.162 49.3643 60.1 49.3068C60.1261 49.3068 60.1465 49.3118 60.1775 49.3118C60.3849 49.2961 60.7212 49.1653 60.8667 49.0032C61.9288 47.7783 60.9497 45.8306 59.7997 45.0401C59.4684 44.8148 58.9971 44.7785 58.5983 44.9093C58.6138 44.8723 58.6293 44.841 58.6448 44.8047C58.7587 44.4749 58.6497 43.8208 58.4844 43.5273C57.9196 42.5328 56.4383 40.8209 55.7701 41.5063C55.0449 39.3495 52.5226 40.2915 52.5846 42.4958C51.9684 41.9569 51.1448 41.5952 50.611 42.3181C50.0827 43.0404 50.0567 42.4176 49.2591 42.0458C49.1346 41.9932 49.0101 41.9619 48.8912 41.9413C49.5229 41.1402 49.8338 40.0098 49.4919 39.2087C50.367 39.3658 51.1181 39.0409 51.6055 38.4025C52.034 39.2443 53.3134 38.328 54.0182 37.3122ZM44.2077 70.7178C44.7824 72.5761 47.3362 73.6758 47.7505 72.1261C48.7401 72.9166 50.009 72.3877 50.2679 71.1578C51.0704 71.8331 51.8687 71.6973 52.4384 71.0896C53.319 74.3774 53.5574 77.7484 53.5835 81.162C50.2635 80.0942 47.0935 78.5758 44.4826 76.1993C43.0478 74.8956 42.0842 73.4198 41.4885 71.8175C42.4929 71.8744 43.4825 71.5133 44.2077 70.7178ZM57.1207 77.4186C58.4776 76.3139 59.3167 74.7592 60.1353 73.1938C61.042 71.4614 61.995 69.896 63.1085 68.3463C64.4653 69.2676 66.8897 68.1423 67.6199 66.4305C68.3655 67.216 69.438 67.174 70.0802 66.3992C70.4741 67.8281 71.4216 68.7494 72.6545 68.6505C71.8774 70.9644 70.588 73.0686 69.0442 74.9432C67.4434 76.8853 65.3255 78.4663 63.2689 79.8696C61.9535 80.7646 59.1408 82.8482 57.0891 83.2256C57.1827 81.2978 57.2192 79.3713 57.1207 77.4186ZM55.1886 69.215C55.8878 68.9321 56.5095 68.1836 56.8563 67.3461C57.6124 68.2674 58.7469 68.2725 59.4306 67.3831C59.6226 67.7336 59.9068 67.9802 60.2233 68.1003C59.534 70.5451 58.4002 72.9165 56.7993 74.838C56.4005 72.9422 55.7063 71.084 55.1886 69.215Z" stroke="#DD5D36" stroke-width="2" mask="url(#path-1-inside-1_1458_12447)"/>
</svg>
