<svg width="18" height="16" viewBox="0 0 18 16" fill="none" xmlns="http://www.w3.org/2000/svg">
<path fill-rule="evenodd" clip-rule="evenodd" d="M-0.000640869 1.24944C-0.000640869 0.716884 0.431084 0.285156 0.963645 0.285156H17.0358C17.5684 0.285156 18.0001 0.716884 18.0001 1.24944C18.0001 1.78201 17.5684 2.21373 17.0358 2.21373H0.963645C0.431084 2.21373 -0.000640869 1.78201 -0.000640869 1.24944ZM-0.000640869 7.99963C-0.000640869 7.46708 0.431084 7.03535 0.963645 7.03535H17.0358C17.5684 7.03535 18.0001 7.46708 18.0001 7.99963C18.0001 8.5322 17.5684 8.96392 17.0358 8.96392H0.963645C0.431084 8.96392 -0.000640869 8.5322 -0.000640869 7.99963ZM0.963645 13.7862C0.431084 13.7862 -0.000640869 14.2179 -0.000640869 14.7505C-0.000640869 15.283 0.431084 15.7147 0.963645 15.7147H17.0358C17.5684 15.7147 18.0001 15.283 18.0001 14.7505C18.0001 14.2179 17.5684 13.7862 17.0358 13.7862H0.963645Z" fill="white"/>
</svg>
